<?xml version="1.0" encoding="UTF-8"?>
<svg version="1.1" xmlns="http://www.w3.org/2000/svg" width="676" height="482">
<path d="M0 0 C223.08 0 446.16 0 676 0 C676 159.06 676 318.12 676 482 C452.92 482 229.84 482 0 482 C0 322.94 0 163.88 0 0 Z " fill="#FEFDFD" transform="translate(0,0)"/>
<path d="M0 0 C50.16 0 100.32 0 152 0 C152 0.66 152 1.32 152 2 C153.98 2 155.96 2 158 2 C158 2.66 158 3.32 158 4 C159.98 4 161.96 4 164 4 C164 4.66 164 5.32 164 6 C165.32 6 166.64 6 168 6 C168 6.66 168 7.32 168 8 C168.66 8 169.32 8 170 8 C170 8.66 170 9.32 170 10 C171.32 10 172.64 10 174 10 C174 10.66 174 11.32 174 12 C174.66 12 175.32 12 176 12 C176 12.66 176 13.32 176 14 C176.66 14 177.32 14 178 14 C178 14.66 178 15.32 178 16 C178.66 16 179.32 16 180 16 C180 16.66 180 17.32 180 18 C180.66 18 181.32 18 182 18 C182 18.66 182 19.32 182 20 C182.66 20 183.32 20 184 20 C184 21.32 184 22.64 184 24 C184.66 24 185.32 24 186 24 C186 24.66 186 25.32 186 26 C186.66 26 187.32 26 188 26 C188 27.32 188 28.64 188 30 C188.66 30 189.32 30 190 30 C190 31.32 190 32.64 190 34 C190.66 34 191.32 34 192 34 C192 35.32 192 36.64 192 38 C192.66 38 193.32 38 194 38 C194 38.66 194 39.32 194 40 C194.66 40 195.32 40 196 40 C196 41.32 196 42.64 196 44 C196.66 44 197.32 44 198 44 C198 45.32 198 46.64 198 48 C198.66 48 199.32 48 200 48 C200 49.32 200 50.64 200 52 C200.66 52 201.32 52 202 52 C202 52.66 202 53.32 202 54 C202.66 54 203.32 54 204 54 C204 55.32 204 56.64 204 58 C204.66 58 205.32 58 206 58 C206 59.32 206 60.64 206 62 C206.66 62 207.32 62 208 62 C208 62.66 208 63.32 208 64 C208.66 64 209.32 64 210 64 C210 65.32 210 66.64 210 68 C210.66 68 211.32 68 212 68 C212 69.32 212 70.64 212 72 C212.66 72 213.32 72 214 72 C214 73.32 214 74.64 214 76 C214.66 76 215.32 76 216 76 C216 76.66 216 77.32 216 78 C216.66 78 217.32 78 218 78 C218 79.32 218 80.64 218 82 C218.66 82 219.32 82 220 82 C220 83.32 220 84.64 220 86 C220.66 86 221.32 86 222 86 C222 87.32 222 88.64 222 90 C222.66 90 223.32 90 224 90 C224 90.66 224 91.32 224 92 C224.66 92 225.32 92 226 92 C226 93.32 226 94.64 226 96 C226.66 96 227.32 96 228 96 C228 97.32 228 98.64 228 100 C228.66 100 229.32 100 230 100 C230 100.66 230 101.32 230 102 C230.66 102 231.32 102 232 102 C232 103.32 232 104.64 232 106 C232.66 106 233.32 106 234 106 C234 107.32 234 108.64 234 110 C234.66 110 235.32 110 236 110 C236 111.32 236 112.64 236 114 C236.66 114 237.32 114 238 114 C238 114.66 238 115.32 238 116 C238.66 116 239.32 116 240 116 C240 117.32 240 118.64 240 120 C240.66 120 241.32 120 242 120 C242 121.32 242 122.64 242 124 C242.66 124 243.32 124 244 124 C244 125.32 244 126.64 244 128 C244.66 128 245.32 128 246 128 C246 128.66 246 129.32 246 130 C246.66 130 247.32 130 248 130 C248 131.32 248 132.64 248 134 C248.66 134 249.32 134 250 134 C250 135.32 250 136.64 250 138 C250.66 138 251.32 138 252 138 C252 138.66 252 139.32 252 140 C252.66 140 253.32 140 254 140 C254 141.32 254 142.64 254 144 C254.66 144 255.32 144 256 144 C256 145.32 256 146.64 256 148 C256.66 148 257.32 148 258 148 C258 149.32 258 150.64 258 152 C258.66 152 259.32 152 260 152 C260 152.66 260 153.32 260 154 C260.66 154 261.32 154 262 154 C262 155.32 262 156.64 262 158 C262.66 158 263.32 158 264 158 C264 159.32 264 160.64 264 162 C264.66 162 265.32 162 266 162 C266 163.32 266 164.64 266 166 C266.66 166 267.32 166 268 166 C268 166.66 268 167.32 268 168 C268.66 168 269.32 168 270 168 C270 169.32 270 170.64 270 172 C270.66 172 271.32 172 272 172 C272 173.32 272 174.64 272 176 C272.66 176 273.32 176 274 176 C274 177.32 274 178.64 274 180 C274.66 180 275.32 180 276 180 C276 180.66 276 181.32 276 182 C276.66 182 277.32 182 278 182 C278 183.32 278 184.64 278 186 C278.66 186 279.32 186 280 186 C280 187.32 280 188.64 280 190 C280.66 190 281.32 190 282 190 C282 190.66 282 191.32 282 192 C282.66 192 283.32 192 284 192 C284 193.32 284 194.64 284 196 C284.66 196 285.32 196 286 196 C286 197.32 286 198.64 286 200 C286.66 200 287.32 200 288 200 C288 201.98 288 203.96 288 206 C288.66 206 289.32 206 290 206 C290 213.26 290 220.52 290 228 C289.34 228 288.68 228 288 228 C288 230.64 288 233.28 288 236 C287.34 236 286.68 236 286 236 C286 237.32 286 238.64 286 240 C285.34 240 284.68 240 284 240 C284 241.32 284 242.64 284 244 C283.34 244 282.68 244 282 244 C282 245.32 282 246.64 282 248 C281.34 248 280.68 248 280 248 C280 249.32 280 250.64 280 252 C279.34 252 278.68 252 278 252 C278 253.32 278 254.64 278 256 C277.34 256 276.68 256 276 256 C276 256.66 276 257.32 276 258 C275.34 258 274.68 258 274 258 C274 259.32 274 260.64 274 262 C273.34 262 272.68 262 272 262 C272 263.32 272 264.64 272 266 C271.34 266 270.68 266 270 266 C270 267.32 270 268.64 270 270 C269.34 270 268.68 270 268 270 C268 270.66 268 271.32 268 272 C267.34 272 266.68 272 266 272 C266 273.32 266 274.64 266 276 C265.34 276 264.68 276 264 276 C264 277.32 264 278.64 264 280 C263.34 280 262.68 280 262 280 C262 280.66 262 281.32 262 282 C261.34 282 260.68 282 260 282 C260 283.32 260 284.64 260 286 C259.34 286 258.68 286 258 286 C258 287.32 258 288.64 258 290 C257.34 290 256.68 290 256 290 C256 291.32 256 292.64 256 294 C255.34 294 254.68 294 254 294 C254 294.66 254 295.32 254 296 C253.34 296 252.68 296 252 296 C252 297.32 252 298.64 252 300 C251.34 300 250.68 300 250 300 C250 301.32 250 302.64 250 304 C249.34 304 248.68 304 248 304 C248 305.32 248 306.64 248 308 C247.34 308 246.68 308 246 308 C246 308.66 246 309.32 246 310 C245.34 310 244.68 310 244 310 C244 311.32 244 312.64 244 314 C243.34 314 242.68 314 242 314 C242 315.32 242 316.64 242 318 C241.34 318 240.68 318 240 318 C240 319.32 240 320.64 240 322 C239.34 322 238.68 322 238 322 C238 322.66 238 323.32 238 324 C237.34 324 236.68 324 236 324 C236 325.32 236 326.64 236 328 C235.34 328 234.68 328 234 328 C234 329.32 234 330.64 234 332 C233.34 332 232.68 332 232 332 C232 332.66 232 333.32 232 334 C231.34 334 230.68 334 230 334 C230 335.32 230 336.64 230 338 C229.34 338 228.68 338 228 338 C228 339.32 228 340.64 228 342 C227.34 342 226.68 342 226 342 C226 343.32 226 344.64 226 346 C225.34 346 224.68 346 224 346 C224 346.66 224 347.32 224 348 C223.34 348 222.68 348 222 348 C222 349.32 222 350.64 222 352 C221.34 352 220.68 352 220 352 C220 353.32 220 354.64 220 356 C219.34 356 218.68 356 218 356 C218 357.32 218 358.64 218 360 C217.34 360 216.68 360 216 360 C216 360.66 216 361.32 216 362 C215.34 362 214.68 362 214 362 C214 363.32 214 364.64 214 366 C213.34 366 212.68 366 212 366 C212 367.32 212 368.64 212 370 C211.34 370 210.68 370 210 370 C210 371.32 210 372.64 210 374 C209.34 374 208.68 374 208 374 C208 374.66 208 375.32 208 376 C207.34 376 206.68 376 206 376 C206 377.32 206 378.64 206 380 C205.34 380 204.68 380 204 380 C204 381.32 204 382.64 204 384 C203.34 384 202.68 384 202 384 C202 385.32 202 386.64 202 388 C201.34 388 200.68 388 200 388 C200 388.66 200 389.32 200 390 C199.34 390 198.68 390 198 390 C198 391.32 198 392.64 198 394 C197.34 394 196.68 394 196 394 C196 395.32 196 396.64 196 398 C195.34 398 194.68 398 194 398 C194 398.66 194 399.32 194 400 C193.34 400 192.68 400 192 400 C192 401.32 192 402.64 192 404 C191.34 404 190.68 404 190 404 C190 405.32 190 406.64 190 408 C189.34 408 188.68 408 188 408 C188 409.32 188 410.64 188 412 C187.34 412 186.68 412 186 412 C186 412.66 186 413.32 186 414 C185.34 414 184.68 414 184 414 C184 415.32 184 416.64 184 418 C183.34 418 182.68 418 182 418 C182 418.66 182 419.32 182 420 C181.34 420 180.68 420 180 420 C180 420.66 180 421.32 180 422 C179.34 422 178.68 422 178 422 C178 422.66 178 423.32 178 424 C177.34 424 176.68 424 176 424 C176 424.66 176 425.32 176 426 C175.34 426 174.68 426 174 426 C174 426.66 174 427.32 174 428 C172.68 428 171.36 428 170 428 C170 428.66 170 429.32 170 430 C169.34 430 168.68 430 168 430 C168 430.66 168 431.32 168 432 C166.68 432 165.36 432 164 432 C164 432.66 164 433.32 164 434 C162.02 434 160.04 434 158 434 C158 434.66 158 435.32 158 436 C155.36 436 152.72 436 150 436 C150 436.66 150 437.32 150 438 C52.32 438 -45.36 438 -146 438 C-146 437.34 -146 436.68 -146 436 C-146.66 436 -147.32 436 -148 436 C-148 435.34 -148 434.68 -148 434 C-149.32 434 -150.64 434 -152 434 C-152 433.34 -152 432.68 -152 432 C-152.66 432 -153.32 432 -154 432 C-154 431.34 -154 430.68 -154 430 C-154.66 430 -155.32 430 -156 430 C-156 429.34 -156 428.68 -156 428 C-156.66 428 -157.32 428 -158 428 C-158 426.68 -158 425.36 -158 424 C-158.66 424 -159.32 424 -160 424 C-160 422.68 -160 421.36 -160 420 C-160.66 420 -161.32 420 -162 420 C-162 415.38 -162 410.76 -162 406 C-161.34 406 -160.68 406 -160 406 C-160 404.68 -160 403.36 -160 402 C-159.34 402 -158.68 402 -158 402 C-158 401.34 -158 400.68 -158 400 C-157.34 400 -156.68 400 -156 400 C-156 398.68 -156 397.36 -156 396 C-155.34 396 -154.68 396 -154 396 C-154 395.34 -154 394.68 -154 394 C-152.68 394 -151.36 394 -150 394 C-150 393.34 -150 392.68 -150 392 C-148.68 392 -147.36 392 -146 392 C-146 391.34 -146 390.68 -146 390 C-82.64 390 -19.28 390 46 390 C46 389.34 46 388.68 46 388 C47.98 388 49.96 388 52 388 C52 387.34 52 386.68 52 386 C53.32 386 54.64 386 56 386 C56 385.34 56 384.68 56 384 C57.32 384 58.64 384 60 384 C60 383.34 60 382.68 60 382 C60.66 382 61.32 382 62 382 C62 381.34 62 380.68 62 380 C62.66 380 63.32 380 64 380 C64 378.68 64 377.36 64 376 C64.66 376 65.32 376 66 376 C66 374.68 66 373.36 66 372 C66.66 372 67.32 372 68 372 C68 366.72 68 361.44 68 356 C67.34 356 66.68 356 66 356 C66 354.68 66 353.36 66 352 C65.34 352 64.68 352 64 352 C64 351.34 64 350.68 64 350 C63.34 350 62.68 350 62 350 C62 349.34 62 348.68 62 348 C61.34 348 60.68 348 60 348 C60 347.34 60 346.68 60 346 C59.34 346 58.68 346 58 346 C58 345.34 58 344.68 58 344 C56.68 344 55.36 344 54 344 C54 343.34 54 342.68 54 342 C52.68 342 51.36 342 50 342 C50 341.34 50 340.68 50 340 C-35.8 340 -121.6 340 -210 340 C-210 339.34 -210 338.68 -210 338 C-210.66 338 -211.32 338 -212 338 C-212 337.34 -212 336.68 -212 336 C-213.32 336 -214.64 336 -216 336 C-216 335.34 -216 334.68 -216 334 C-216.66 334 -217.32 334 -218 334 C-218 332.68 -218 331.36 -218 330 C-218.66 330 -219.32 330 -220 330 C-220 329.34 -220 328.68 -220 328 C-220.66 328 -221.32 328 -222 328 C-222 326.02 -222 324.04 -222 322 C-222.66 322 -223.32 322 -224 322 C-224 317.38 -224 312.76 -224 308 C-223.34 308 -222.68 308 -222 308 C-222 306.68 -222 305.36 -222 304 C-221.34 304 -220.68 304 -220 304 C-220 303.34 -220 302.68 -220 302 C-219.34 302 -218.68 302 -218 302 C-218 301.34 -218 300.68 -218 300 C-217.34 300 -216.68 300 -216 300 C-216 299.34 -216 298.68 -216 298 C-215.34 298 -214.68 298 -214 298 C-214 297.34 -214 296.68 -214 296 C-213.34 296 -212.68 296 -212 296 C-212 295.34 -212 294.68 -212 294 C-210.68 294 -209.36 294 -208 294 C-208 293.34 -208 292.68 -208 292 C-184.24 292 -160.48 292 -136 292 C-136 291.34 -136 290.68 -136 290 C-134.68 290 -133.36 290 -132 290 C-132 289.34 -132 288.68 -132 288 C-130.68 288 -129.36 288 -128 288 C-128 287.34 -128 286.68 -128 286 C-127.34 286 -126.68 286 -126 286 C-126 285.34 -126 284.68 -126 284 C-125.34 284 -124.68 284 -124 284 C-124 283.34 -124 282.68 -124 282 C-123.34 282 -122.68 282 -122 282 C-122 280.68 -122 279.36 -122 278 C-121.34 278 -120.68 278 -120 278 C-120 276.02 -120 274.04 -120 272 C-119.34 272 -118.68 272 -118 272 C-118 268.7 -118 265.4 -118 262 C-118.66 262 -119.32 262 -120 262 C-120 260.68 -120 259.36 -120 258 C-120.66 258 -121.32 258 -122 258 C-122 256.68 -122 255.36 -122 254 C-122.66 254 -123.32 254 -124 254 C-124 253.34 -124 252.68 -124 252 C-124.66 252 -125.32 252 -126 252 C-126 251.34 -126 250.68 -126 250 C-126.66 250 -127.32 250 -128 250 C-128 249.34 -128 248.68 -128 248 C-128.66 248 -129.32 248 -130 248 C-130 247.34 -130 246.68 -130 246 C-131.32 246 -132.64 246 -134 246 C-134 245.34 -134 244.68 -134 244 C-173.6 244 -213.2 244 -254 244 C-254 243.34 -254 242.68 -254 242 C-255.32 242 -256.64 242 -258 242 C-258 241.34 -258 240.68 -258 240 C-259.32 240 -260.64 240 -262 240 C-262 239.34 -262 238.68 -262 238 C-262.66 238 -263.32 238 -264 238 C-264 237.34 -264 236.68 -264 236 C-264.66 236 -265.32 236 -266 236 C-266 235.34 -266 234.68 -266 234 C-266.66 234 -267.32 234 -268 234 C-268 233.34 -268 232.68 -268 232 C-268.66 232 -269.32 232 -270 232 C-270 230.02 -270 228.04 -270 226 C-270.66 226 -271.32 226 -272 226 C-272 220.72 -272 215.44 -272 210 C-271.34 210 -270.68 210 -270 210 C-270 208.68 -270 207.36 -270 206 C-269.34 206 -268.68 206 -268 206 C-268 205.34 -268 204.68 -268 204 C-267.34 204 -266.68 204 -266 204 C-266 203.34 -266 202.68 -266 202 C-265.34 202 -264.68 202 -264 202 C-264 201.34 -264 200.68 -264 200 C-263.34 200 -262.68 200 -262 200 C-262 199.34 -262 198.68 -262 198 C-260.68 198 -259.36 198 -258 198 C-258 197.34 -258 196.68 -258 196 C-256.68 196 -255.36 196 -254 196 C-254 195.34 -254 194.68 -254 194 C-182.72 194 -111.44 194 -38 194 C-38 193.34 -38 192.68 -38 192 C-36.68 192 -35.36 192 -34 192 C-34 191.34 -34 190.68 -34 190 C-33.34 190 -32.68 190 -32 190 C-32 189.34 -32 188.68 -32 188 C-30.68 188 -29.36 188 -28 188 C-28 186.68 -28 185.36 -28 184 C-27.34 184 -26.68 184 -26 184 C-26 183.34 -26 182.68 -26 182 C-25.34 182 -24.68 182 -24 182 C-24 180.02 -24 178.04 -24 176 C-23.34 176 -22.68 176 -22 176 C-22 172.04 -22 168.08 -22 164 C-22.66 164 -23.32 164 -24 164 C-24 162.68 -24 161.36 -24 160 C-24.66 160 -25.32 160 -26 160 C-26 158.68 -26 157.36 -26 156 C-26.66 156 -27.32 156 -28 156 C-28 155.34 -28 154.68 -28 154 C-28.66 154 -29.32 154 -30 154 C-30 153.34 -30 152.68 -30 152 C-30.66 152 -31.32 152 -32 152 C-32 151.34 -32 150.68 -32 150 C-33.32 150 -34.64 150 -36 150 C-36 149.34 -36 148.68 -36 148 C-37.32 148 -38.64 148 -40 148 C-40 147.34 -40 146.68 -40 146 C-95.44 146 -150.88 146 -208 146 C-208 145.34 -208 144.68 -208 144 C-209.32 144 -210.64 144 -212 144 C-212 143.34 -212 142.68 -212 142 C-212.66 142 -213.32 142 -214 142 C-214 141.34 -214 140.68 -214 140 C-214.66 140 -215.32 140 -216 140 C-216 139.34 -216 138.68 -216 138 C-216.66 138 -217.32 138 -218 138 C-218 137.34 -218 136.68 -218 136 C-218.66 136 -219.32 136 -220 136 C-220 135.34 -220 134.68 -220 134 C-220.66 134 -221.32 134 -222 134 C-222 132.02 -222 130.04 -222 128 C-222.66 128 -223.32 128 -224 128 C-224 123.38 -224 118.76 -224 114 C-223.34 114 -222.68 114 -222 114 C-222 112.68 -222 111.36 -222 110 C-221.34 110 -220.68 110 -220 110 C-220 109.34 -220 108.68 -220 108 C-219.34 108 -218.68 108 -218 108 C-218 106.68 -218 105.36 -218 104 C-217.34 104 -216.68 104 -216 104 C-216 103.34 -216 102.68 -216 102 C-214.68 102 -213.36 102 -212 102 C-212 101.34 -212 100.68 -212 100 C-210.68 100 -209.36 100 -208 100 C-208 99.34 -208 98.68 -208 98 C-123.52 98 -39.04 98 48 98 C48 97.34 48 96.68 48 96 C49.98 96 51.96 96 54 96 C54 95.34 54 94.68 54 94 C55.32 94 56.64 94 58 94 C58 93.34 58 92.68 58 92 C58.66 92 59.32 92 60 92 C60 91.34 60 90.68 60 90 C60.66 90 61.32 90 62 90 C62 89.34 62 88.68 62 88 C62.66 88 63.32 88 64 88 C64 87.34 64 86.68 64 86 C64.66 86 65.32 86 66 86 C66 84.02 66 82.04 66 80 C66.66 80 67.32 80 68 80 C68 74.72 68 69.44 68 64 C67.34 64 66.68 64 66 64 C66 63.34 66 62.68 66 62 C65.34 62 64.68 62 64 62 C64 60.68 64 59.36 64 58 C63.34 58 62.68 58 62 58 C62 57.34 62 56.68 62 56 C61.34 56 60.68 56 60 56 C60 55.34 60 54.68 60 54 C58.68 54 57.36 54 56 54 C56 53.34 56 52.68 56 52 C54.68 52 53.36 52 52 52 C52 51.34 52 50.68 52 50 C36.16 50 20.32 50 4 50 C4 49.34 4 48.68 4 48 C2.02 48 0.04 48 -2 48 C-2 47.34 -2 46.68 -2 46 C-3.32 46 -4.64 46 -6 46 C-6 45.34 -6 44.68 -6 44 C-6.66 44 -7.32 44 -8 44 C-8 43.34 -8 42.68 -8 42 C-8.66 42 -9.32 42 -10 42 C-10 41.34 -10 40.68 -10 40 C-10.66 40 -11.32 40 -12 40 C-12 39.34 -12 38.68 -12 38 C-12.66 38 -13.32 38 -14 38 C-14 36.02 -14 34.04 -14 32 C-14.66 32 -15.32 32 -16 32 C-16 26.72 -16 21.44 -16 16 C-15.34 16 -14.68 16 -14 16 C-14 14.68 -14 13.36 -14 12 C-13.34 12 -12.68 12 -12 12 C-12 11.34 -12 10.68 -12 10 C-11.34 10 -10.68 10 -10 10 C-10 8.68 -10 7.36 -10 6 C-8.68 6 -7.36 6 -6 6 C-6 5.34 -6 4.68 -6 4 C-5.34 4 -4.68 4 -4 4 C-4 3.34 -4 2.68 -4 2 C-2.68 2 -1.36 2 0 2 C0 1.34 0 0.68 0 0 Z " fill="#C5332D" transform="translate(372,22)"/>
<path d="M0 0 C60.06 0 120.12 0 182 0 C182 0.66 182 1.32 182 2 C183.98 2 185.96 2 188 2 C188 2.66 188 3.32 188 4 C188.66 4 189.32 4 190 4 C190 4.66 190 5.32 190 6 C190.66 6 191.32 6 192 6 C192 6.66 192 7.32 192 8 C192.66 8 193.32 8 194 8 C194 9.32 194 10.64 194 12 C194.66 12 195.32 12 196 12 C196 12.66 196 13.32 196 14 C196.66 14 197.32 14 198 14 C198 19.94 198 25.88 198 32 C197.34 32 196.68 32 196 32 C196 33.32 196 34.64 196 36 C195.34 36 194.68 36 194 36 C194 36.66 194 37.32 194 38 C193.34 38 192.68 38 192 38 C192 38.66 192 39.32 192 40 C191.34 40 190.68 40 190 40 C190 40.66 190 41.32 190 42 C189.34 42 188.68 42 188 42 C188 42.66 188 43.32 188 44 C186.68 44 185.36 44 184 44 C184 44.66 184 45.32 184 46 C182.02 46 180.04 46 178 46 C178 46.66 178 47.32 178 48 C120.58 48 63.16 48 4 48 C4 47.34 4 46.68 4 46 C2.02 46 0.04 46 -2 46 C-2 45.34 -2 44.68 -2 44 C-3.32 44 -4.64 44 -6 44 C-6 43.34 -6 42.68 -6 42 C-6.66 42 -7.32 42 -8 42 C-8 41.34 -8 40.68 -8 40 C-8.66 40 -9.32 40 -10 40 C-10 39.34 -10 38.68 -10 38 C-10.66 38 -11.32 38 -12 38 C-12 36.68 -12 35.36 -12 34 C-12.66 34 -13.32 34 -14 34 C-14 32.68 -14 31.36 -14 30 C-14.66 30 -15.32 30 -16 30 C-16 25.38 -16 20.76 -16 16 C-15.34 16 -14.68 16 -14 16 C-14 14.68 -14 13.36 -14 12 C-13.34 12 -12.68 12 -12 12 C-12 10.68 -12 9.36 -12 8 C-11.34 8 -10.68 8 -10 8 C-10 7.34 -10 6.68 -10 6 C-9.34 6 -8.68 6 -8 6 C-8 5.34 -8 4.68 -8 4 C-6.68 4 -5.36 4 -4 4 C-4 3.34 -4 2.68 -4 2 C-2.68 2 -1.36 2 0 2 C0 1.34 0 0.68 0 0 Z " fill="#FEFDFD" transform="translate(298,266)"/>
<path d="M0 0 C27.06 0 54.12 0 82 0 C82 0.66 82 1.32 82 2 C83.32 2 84.64 2 86 2 C86 2.66 86 3.32 86 4 C86.66 4 87.32 4 88 4 C88 4.66 88 5.32 88 6 C89.32 6 90.64 6 92 6 C92 6.66 92 7.32 92 8 C92.66 8 93.32 8 94 8 C94 9.32 94 10.64 94 12 C94.66 12 95.32 12 96 12 C96 13.32 96 14.64 96 16 C96.66 16 97.32 16 98 16 C98 21.94 98 27.88 98 34 C97.34 34 96.68 34 96 34 C96 35.32 96 36.64 96 38 C95.34 38 94.68 38 94 38 C94 38.66 94 39.32 94 40 C93.34 40 92.68 40 92 40 C92 40.66 92 41.32 92 42 C91.34 42 90.68 42 90 42 C90 42.66 90 43.32 90 44 C89.34 44 88.68 44 88 44 C88 44.66 88 45.32 88 46 C86.68 46 85.36 46 84 46 C84 46.66 84 47.32 84 48 C82.02 48 80.04 48 78 48 C78 48.66 78 49.32 78 50 C52.92 50 27.84 50 2 50 C2 49.34 2 48.68 2 48 C0.68 48 -0.64 48 -2 48 C-2 47.34 -2 46.68 -2 46 C-3.32 46 -4.64 46 -6 46 C-6 45.34 -6 44.68 -6 44 C-7.32 44 -8.64 44 -10 44 C-10 43.34 -10 42.68 -10 42 C-10.66 42 -11.32 42 -12 42 C-12 40.68 -12 39.36 -12 38 C-12.66 38 -13.32 38 -14 38 C-14 37.34 -14 36.68 -14 36 C-14.66 36 -15.32 36 -16 36 C-16 34.02 -16 32.04 -16 30 C-16.66 30 -17.32 30 -18 30 C-18 26.04 -18 22.08 -18 18 C-17.34 18 -16.68 18 -16 18 C-16 16.68 -16 15.36 -16 14 C-15.34 14 -14.68 14 -14 14 C-14 12.68 -14 11.36 -14 10 C-13.34 10 -12.68 10 -12 10 C-12 9.34 -12 8.68 -12 8 C-11.34 8 -10.68 8 -10 8 C-10 7.34 -10 6.68 -10 6 C-9.34 6 -8.68 6 -8 6 C-8 5.34 -8 4.68 -8 4 C-6.68 4 -5.36 4 -4 4 C-4 3.34 -4 2.68 -4 2 C-2.68 2 -1.36 2 0 2 C0 1.34 0 0.68 0 0 Z " fill="#C63631" transform="translate(228,22)"/>
<path d="M0 0 C27.72 0 55.44 0 84 0 C84 0.66 84 1.32 84 2 C85.32 2 86.64 2 88 2 C88 2.66 88 3.32 88 4 C88.66 4 89.32 4 90 4 C90 4.66 90 5.32 90 6 C91.32 6 92.64 6 94 6 C94 7.32 94 8.64 94 10 C94.66 10 95.32 10 96 10 C96 10.66 96 11.32 96 12 C96.66 12 97.32 12 98 12 C98 13.32 98 14.64 98 16 C98.66 16 99.32 16 100 16 C100 21.28 100 26.56 100 32 C99.34 32 98.68 32 98 32 C98 33.98 98 35.96 98 38 C97.34 38 96.68 38 96 38 C96 38.66 96 39.32 96 40 C95.34 40 94.68 40 94 40 C94 40.66 94 41.32 94 42 C93.34 42 92.68 42 92 42 C92 42.66 92 43.32 92 44 C91.34 44 90.68 44 90 44 C90 44.66 90 45.32 90 46 C88.68 46 87.36 46 86 46 C86 46.66 86 47.32 86 48 C56.96 48 27.92 48 -2 48 C-2 47.34 -2 46.68 -2 46 C-3.32 46 -4.64 46 -6 46 C-6 45.34 -6 44.68 -6 44 C-6.66 44 -7.32 44 -8 44 C-8 43.34 -8 42.68 -8 42 C-8.66 42 -9.32 42 -10 42 C-10 41.34 -10 40.68 -10 40 C-10.66 40 -11.32 40 -12 40 C-12 39.34 -12 38.68 -12 38 C-12.66 38 -13.32 38 -14 38 C-14 36.68 -14 35.36 -14 34 C-14.66 34 -15.32 34 -16 34 C-16 32.68 -16 31.36 -16 30 C-16.66 30 -17.32 30 -18 30 C-18 26.04 -18 22.08 -18 18 C-17.34 18 -16.68 18 -16 18 C-16 16.68 -16 15.36 -16 14 C-15.34 14 -14.68 14 -14 14 C-14 12.68 -14 11.36 -14 10 C-13.34 10 -12.68 10 -12 10 C-12 9.34 -12 8.68 -12 8 C-11.34 8 -10.68 8 -10 8 C-10 7.34 -10 6.68 -10 6 C-9.34 6 -8.68 6 -8 6 C-8 5.34 -8 4.68 -8 4 C-6.68 4 -5.36 4 -4 4 C-4 3.34 -4 2.68 -4 2 C-2.68 2 -1.36 2 0 2 C0 1.34 0 0.68 0 0 Z " fill="#FEFDFD" transform="translate(396,168)"/>
<path d="M0 0 C3.96 0 7.92 0 12 0 C12 0.66 12 1.32 12 2 C13.32 2 14.64 2 16 2 C16 2.66 16 3.32 16 4 C17.32 4 18.64 4 20 4 C20 4.66 20 5.32 20 6 C21.32 6 22.64 6 24 6 C24 7.32 24 8.64 24 10 C24.66 10 25.32 10 26 10 C26 10.66 26 11.32 26 12 C26.66 12 27.32 12 28 12 C28 13.32 28 14.64 28 16 C28.66 16 29.32 16 30 16 C30 21.94 30 27.88 30 34 C29.34 34 28.68 34 28 34 C28 35.32 28 36.64 28 38 C27.34 38 26.68 38 26 38 C26 39.32 26 40.64 26 42 C25.34 42 24.68 42 24 42 C24 42.66 24 43.32 24 44 C22.68 44 21.36 44 20 44 C20 44.66 20 45.32 20 46 C19.34 46 18.68 46 18 46 C18 46.66 18 47.32 18 48 C16.02 48 14.04 48 12 48 C12 48.66 12 49.32 12 50 C8.04 50 4.08 50 0 50 C0 49.34 0 48.68 0 48 C-1.32 48 -2.64 48 -4 48 C-4 47.34 -4 46.68 -4 46 C-5.32 46 -6.64 46 -8 46 C-8 45.34 -8 44.68 -8 44 C-8.66 44 -9.32 44 -10 44 C-10 43.34 -10 42.68 -10 42 C-10.66 42 -11.32 42 -12 42 C-12 41.34 -12 40.68 -12 40 C-12.66 40 -13.32 40 -14 40 C-14 38.68 -14 37.36 -14 36 C-14.66 36 -15.32 36 -16 36 C-16 34.68 -16 33.36 -16 32 C-16.66 32 -17.32 32 -18 32 C-18 27.38 -18 22.76 -18 18 C-17.34 18 -16.68 18 -16 18 C-16 16.68 -16 15.36 -16 14 C-15.34 14 -14.68 14 -14 14 C-14 12.68 -14 11.36 -14 10 C-13.34 10 -12.68 10 -12 10 C-12 9.34 -12 8.68 -12 8 C-11.34 8 -10.68 8 -10 8 C-10 7.34 -10 6.68 -10 6 C-9.34 6 -8.68 6 -8 6 C-8 5.34 -8 4.68 -8 4 C-6.68 4 -5.36 4 -4 4 C-4 3.34 -4 2.68 -4 2 C-2.68 2 -1.36 2 0 2 C0 1.34 0 0.68 0 0 Z " fill="#C63731" transform="translate(150,410)"/>
<path d="M0 0 C4.62 0 9.24 0 14 0 C14 0.66 14 1.32 14 2 C15.32 2 16.64 2 18 2 C18 2.66 18 3.32 18 4 C19.32 4 20.64 4 22 4 C22 4.66 22 5.32 22 6 C22.66 6 23.32 6 24 6 C24 6.66 24 7.32 24 8 C24.66 8 25.32 8 26 8 C26 8.66 26 9.32 26 10 C26.66 10 27.32 10 28 10 C28 11.32 28 12.64 28 14 C28.66 14 29.32 14 30 14 C30 14.66 30 15.32 30 16 C30.66 16 31.32 16 32 16 C32 20.62 32 25.24 32 30 C31.34 30 30.68 30 30 30 C30 31.98 30 33.96 30 36 C29.34 36 28.68 36 28 36 C28 37.32 28 38.64 28 40 C27.34 40 26.68 40 26 40 C26 40.66 26 41.32 26 42 C25.34 42 24.68 42 24 42 C24 42.66 24 43.32 24 44 C23.34 44 22.68 44 22 44 C22 44.66 22 45.32 22 46 C20.68 46 19.36 46 18 46 C18 46.66 18 47.32 18 48 C16.02 48 14.04 48 12 48 C12 48.66 12 49.32 12 50 C8.7 50 5.4 50 2 50 C2 49.34 2 48.68 2 48 C0.68 48 -0.64 48 -2 48 C-2 47.34 -2 46.68 -2 46 C-3.32 46 -4.64 46 -6 46 C-6 45.34 -6 44.68 -6 44 C-6.66 44 -7.32 44 -8 44 C-8 43.34 -8 42.68 -8 42 C-8.66 42 -9.32 42 -10 42 C-10 41.34 -10 40.68 -10 40 C-10.66 40 -11.32 40 -12 40 C-12 39.34 -12 38.68 -12 38 C-12.66 38 -13.32 38 -14 38 C-14 36.68 -14 35.36 -14 34 C-14.66 34 -15.32 34 -16 34 C-16 28.06 -16 22.12 -16 16 C-15.34 16 -14.68 16 -14 16 C-14 14.68 -14 13.36 -14 12 C-13.34 12 -12.68 12 -12 12 C-12 11.34 -12 10.68 -12 10 C-11.34 10 -10.68 10 -10 10 C-10 8.68 -10 7.36 -10 6 C-8.68 6 -7.36 6 -6 6 C-6 5.34 -6 4.68 -6 4 C-5.34 4 -4.68 4 -4 4 C-4 3.34 -4 2.68 -4 2 C-2.68 2 -1.36 2 0 2 C0 1.34 0 0.68 0 0 Z " fill="#C63731" transform="translate(38,216)"/>
<path d="M0 0 C6.6 0 13.2 0 20 0 C20 0.66 20 1.32 20 2 C21.32 2 22.64 2 24 2 C24 2.66 24 3.32 24 4 C24.66 4 25.32 4 26 4 C26 4.66 26 5.32 26 6 C26.66 6 27.32 6 28 6 C28 6.66 28 7.32 28 8 C28.66 8 29.32 8 30 8 C30 8.66 30 9.32 30 10 C30.66 10 31.32 10 32 10 C32 11.32 32 12.64 32 14 C32.66 14 33.32 14 34 14 C34 19.94 34 25.88 34 32 C33.34 32 32.68 32 32 32 C32 33.32 32 34.64 32 36 C31.34 36 30.68 36 30 36 C30 37.32 30 38.64 30 40 C29.34 40 28.68 40 28 40 C28 40.66 28 41.32 28 42 C26.68 42 25.36 42 24 42 C24 42.66 24 43.32 24 44 C23.34 44 22.68 44 22 44 C22 44.66 22 45.32 22 46 C20.02 46 18.04 46 16 46 C16 46.66 16 47.32 16 48 C11.38 48 6.76 48 2 48 C2 47.34 2 46.68 2 46 C0.68 46 -0.64 46 -2 46 C-2 45.34 -2 44.68 -2 44 C-2.66 44 -3.32 44 -4 44 C-4 43.34 -4 42.68 -4 42 C-4.66 42 -5.32 42 -6 42 C-6 41.34 -6 40.68 -6 40 C-6.66 40 -7.32 40 -8 40 C-8 39.34 -8 38.68 -8 38 C-8.66 38 -9.32 38 -10 38 C-10 37.34 -10 36.68 -10 36 C-10.66 36 -11.32 36 -12 36 C-12 34.02 -12 32.04 -12 30 C-12.66 30 -13.32 30 -14 30 C-14 25.38 -14 20.76 -14 16 C-13.34 16 -12.68 16 -12 16 C-12 14.68 -12 13.36 -12 12 C-11.34 12 -10.68 12 -10 12 C-10 10.68 -10 9.36 -10 8 C-9.34 8 -8.68 8 -8 8 C-8 7.34 -8 6.68 -8 6 C-7.34 6 -6.68 6 -6 6 C-6 5.34 -6 4.68 -6 4 C-4.68 4 -3.36 4 -2 4 C-2 3.34 -2 2.68 -2 2 C-1.34 2 -0.68 2 0 2 C0 1.34 0 0.68 0 0 Z " fill="#C63530" transform="translate(84,120)"/>
<path d="M0 0 C5.28 0 10.56 0 16 0 C16 0.66 16 1.32 16 2 C17.32 2 18.64 2 20 2 C20 2.66 20 3.32 20 4 C21.32 4 22.64 4 24 4 C24 4.66 24 5.32 24 6 C24.66 6 25.32 6 26 6 C26 6.66 26 7.32 26 8 C26.66 8 27.32 8 28 8 C28 9.32 28 10.64 28 12 C28.66 12 29.32 12 30 12 C30 12.66 30 13.32 30 14 C30.66 14 31.32 14 32 14 C32 20.6 32 27.2 32 34 C31.34 34 30.68 34 30 34 C30 35.32 30 36.64 30 38 C29.34 38 28.68 38 28 38 C28 38.66 28 39.32 28 40 C27.34 40 26.68 40 26 40 C26 40.66 26 41.32 26 42 C25.34 42 24.68 42 24 42 C24 42.66 24 43.32 24 44 C23.34 44 22.68 44 22 44 C22 44.66 22 45.32 22 46 C20.68 46 19.36 46 18 46 C18 46.66 18 47.32 18 48 C11.4 48 4.8 48 -2 48 C-2 47.34 -2 46.68 -2 46 C-2.66 46 -3.32 46 -4 46 C-4 45.34 -4 44.68 -4 44 C-5.32 44 -6.64 44 -8 44 C-8 43.34 -8 42.68 -8 42 C-8.66 42 -9.32 42 -10 42 C-10 40.68 -10 39.36 -10 38 C-10.66 38 -11.32 38 -12 38 C-12 37.34 -12 36.68 -12 36 C-12.66 36 -13.32 36 -14 36 C-14 34.02 -14 32.04 -14 30 C-14.66 30 -15.32 30 -16 30 C-16 25.38 -16 20.76 -16 16 C-15.34 16 -14.68 16 -14 16 C-14 15.34 -14 14.68 -14 14 C-13.34 14 -12.68 14 -12 14 C-12 12.68 -12 11.36 -12 10 C-11.34 10 -10.68 10 -10 10 C-10 9.34 -10 8.68 -10 8 C-9.34 8 -8.68 8 -8 8 C-8 7.34 -8 6.68 -8 6 C-7.34 6 -6.68 6 -6 6 C-6 5.34 -6 4.68 -6 4 C-4.68 4 -3.36 4 -2 4 C-2 3.34 -2 2.68 -2 2 C-1.34 2 -0.68 2 0 2 C0 1.34 0 0.68 0 0 Z " fill="#C63631" transform="translate(148,22)"/>
<path d="M0 0 C5.28 0 10.56 0 16 0 C16 0.66 16 1.32 16 2 C17.32 2 18.64 2 20 2 C20 2.66 20 3.32 20 4 C21.32 4 22.64 4 24 4 C24 4.66 24 5.32 24 6 C24.66 6 25.32 6 26 6 C26 6.66 26 7.32 26 8 C26.66 8 27.32 8 28 8 C28 9.32 28 10.64 28 12 C28.66 12 29.32 12 30 12 C30 12.66 30 13.32 30 14 C30.66 14 31.32 14 32 14 C32 19.94 32 25.88 32 32 C31.34 32 30.68 32 30 32 C30 33.32 30 34.64 30 36 C29.34 36 28.68 36 28 36 C28 37.32 28 38.64 28 40 C27.34 40 26.68 40 26 40 C26 40.66 26 41.32 26 42 C25.34 42 24.68 42 24 42 C24 42.66 24 43.32 24 44 C22.68 44 21.36 44 20 44 C20 44.66 20 45.32 20 46 C18.68 46 17.36 46 16 46 C16 46.66 16 47.32 16 48 C10.72 48 5.44 48 0 48 C0 47.34 0 46.68 0 46 C-1.32 46 -2.64 46 -4 46 C-4 45.34 -4 44.68 -4 44 C-4.66 44 -5.32 44 -6 44 C-6 43.34 -6 42.68 -6 42 C-7.32 42 -8.64 42 -10 42 C-10 40.68 -10 39.36 -10 38 C-10.66 38 -11.32 38 -12 38 C-12 37.34 -12 36.68 -12 36 C-12.66 36 -13.32 36 -14 36 C-14 34.02 -14 32.04 -14 30 C-14.66 30 -15.32 30 -16 30 C-16 25.38 -16 20.76 -16 16 C-15.34 16 -14.68 16 -14 16 C-14 14.68 -14 13.36 -14 12 C-13.34 12 -12.68 12 -12 12 C-12 11.34 -12 10.68 -12 10 C-11.34 10 -10.68 10 -10 10 C-10 8.68 -10 7.36 -10 6 C-8.68 6 -7.36 6 -6 6 C-6 5.34 -6 4.68 -6 4 C-5.34 4 -4.68 4 -4 4 C-4 3.34 -4 2.68 -4 2 C-2.68 2 -1.36 2 0 2 C0 1.34 0 0.68 0 0 Z " fill="#C5352F" transform="translate(86,314)"/>
</svg>
