<?xml version="1.0" encoding="UTF-8"?>
<svg version="1.1" xmlns="http://www.w3.org/2000/svg" width="370" height="290">
<path d="M0 0 C122.1 0 244.2 0 370 0 C370 95.7 370 191.4 370 290 C247.9 290 125.8 290 0 290 C0 194.3 0 98.6 0 0 Z " fill="#FEFCFA" transform="translate(0,0)"/>
<path d="M0 0 C19.14 0 38.28 0 58 0 C58 0.66 58 1.32 58 2 C65.26 2 72.52 2 80 2 C80 2.66 80 3.32 80 4 C82.64 4 85.28 4 88 4 C88 4.66 88 5.32 88 6 C91.96 6 95.92 6 100 6 C100 6.66 100 7.32 100 8 C102.64 8 105.28 8 108 8 C108 8.66 108 9.32 108 10 C111.3 10 114.6 10 118 10 C118 10.66 118 11.32 118 12 C119.98 12 121.96 12 124 12 C124 12.66 124 13.32 124 14 C125.98 14 127.96 14 130 14 C130 22.58 130 31.16 130 40 C131.98 40 133.96 40 136 40 C136 31.42 136 22.84 136 14 C138.64 14 141.28 14 144 14 C144 13.34 144 12.68 144 12 C145.32 12 146.64 12 148 12 C148 11.34 148 10.68 148 10 C150.64 10 153.28 10 156 10 C156 9.34 156 8.68 156 8 C158.64 8 161.28 8 164 8 C164 7.34 164 6.68 164 6 C166.64 6 169.28 6 172 6 C172 5.34 172 4.68 172 4 C175.96 4 179.92 4 184 4 C184 3.34 184 2.68 184 2 C191.92 2 199.84 2 208 2 C208 1.34 208 0.68 208 0 C226.48 0 244.96 0 264 0 C264 0.66 264 1.32 264 2 C267.96 2 271.92 2 276 2 C276 2.66 276 3.32 276 4 C283.92 4 291.84 4 300 4 C300 4.66 300 5.32 300 6 C300.66 6 301.32 6 302 6 C302 6.66 302 7.32 302 8 C303.98 8 305.96 8 308 8 C308 8.66 308 9.32 308 10 C303.38 10 298.76 10 294 10 C294 9.34 294 8.68 294 8 C276.18 8 258.36 8 240 8 C240 78.62 240 149.24 240 222 C215.58 222 191.16 222 166 222 C166 212.1 166 202.2 166 192 C165.34 192 164.68 192 164 192 C164 178.14 164 164.28 164 150 C163.34 150 162.68 150 162 150 C162 136.14 162 122.28 162 108 C161.34 108 160.68 108 160 108 C160 101.4 160 94.8 160 88 C159.34 88 158.68 88 158 88 C158 75.46 158 62.92 158 50 C153.38 50 148.76 50 144 50 C144 50.66 144 51.32 144 52 C143.34 52 142.68 52 142 52 C142 52.66 142 53.32 142 54 C141.34 54 140.68 54 140 54 C140 52.02 140 50.04 140 48 C139.34 48 138.68 48 138 48 C138 47.34 138 46.68 138 46 C137.34 46 136.68 46 136 46 C136 45.34 136 44.68 136 44 C134.02 44 132.04 44 130 44 C130 44.66 130 45.32 130 46 C129.34 46 128.68 46 128 46 C128 46.66 128 47.32 128 48 C127.34 48 126.68 48 126 48 C126 48.66 126 49.32 126 50 C125.34 50 124.68 50 124 50 C124 48.68 124 47.36 124 46 C118.72 46 113.44 46 108 46 C108 61.18 108 76.36 108 92 C107.34 92 106.68 92 106 92 C106 101.9 106 111.8 106 122 C105.34 122 104.68 122 104 122 C104 134.54 104 147.08 104 160 C103.34 160 102.68 160 102 160 C102 176.5 102 193 102 210 C101.34 210 100.68 210 100 210 C100 213.96 100 217.92 100 222 C76.24 222 52.48 222 28 222 C28 203.52 28 185.04 28 166 C27.34 166 26.68 166 26 166 C26 113.86 26 61.72 26 8 C8.18 8 -9.64 8 -28 8 C-28 8.66 -28 9.32 -28 10 C-33.28 10 -38.56 10 -44 10 C-44 9.34 -44 8.68 -44 8 C-42.02 8 -40.04 8 -38 8 C-38 7.34 -38 6.68 -38 6 C-34.7 6 -31.4 6 -28 6 C-28 5.34 -28 4.68 -28 4 C-24.04 4 -20.08 4 -16 4 C-16 3.34 -16 2.68 -16 2 C-10.72 2 -5.44 2 0 2 C0 1.34 0 0.68 0 0 Z " fill="#D04639" transform="translate(56,56)"/>
<path d="M0 0 C1.98 0 3.96 0 6 0 C6 0.66 6 1.32 6 2 C6.66 2 7.32 2 8 2 C8 2.66 8 3.32 8 4 C8.66 4 9.32 4 10 4 C10 5.98 10 7.96 10 10 C10.66 10 11.32 10 12 10 C12 9.34 12 8.68 12 8 C12.66 8 13.32 8 14 8 C14 9.32 14 10.64 14 12 C13.34 12 12.68 12 12 12 C12 12.66 12 13.32 12 14 C11.34 14 10.68 14 10 14 C10 14.66 10 15.32 10 16 C8.68 16 7.36 16 6 16 C6 49 6 82 6 116 C7.98 116 9.96 116 12 116 C12 116.66 12 117.32 12 118 C13.32 118 14.64 118 16 118 C16 118.66 16 119.32 16 120 C17.32 120 18.64 120 20 120 C20 120.66 20 121.32 20 122 C20.66 122 21.32 122 22 122 C22 122.66 22 123.32 22 124 C22.66 124 23.32 124 24 124 C24 124.66 24 125.32 24 126 C24.66 126 25.32 126 26 126 C26 127.32 26 128.64 26 130 C26.66 130 27.32 130 28 130 C28 131.32 28 132.64 28 134 C28.66 134 29.32 134 30 134 C30 139.94 30 145.88 30 152 C29.34 152 28.68 152 28 152 C28 153.32 28 154.64 28 156 C27.34 156 26.68 156 26 156 C26 157.32 26 158.64 26 160 C25.34 160 24.68 160 24 160 C24 160.66 24 161.32 24 162 C23.34 162 22.68 162 22 162 C22 162.66 22 163.32 22 164 C21.34 164 20.68 164 20 164 C20 164.66 20 165.32 20 166 C18.68 166 17.36 166 16 166 C16 166.66 16 167.32 16 168 C14.02 168 12.04 168 10 168 C10 168.66 10 169.32 10 170 C4.72 170 -0.56 170 -6 170 C-6 169.34 -6 168.68 -6 168 C-7.32 168 -8.64 168 -10 168 C-10 167.34 -10 166.68 -10 166 C-11.32 166 -12.64 166 -14 166 C-14 165.34 -14 164.68 -14 164 C-14.66 164 -15.32 164 -16 164 C-16 162.68 -16 161.36 -16 160 C-16.66 160 -17.32 160 -18 160 C-18 159.34 -18 158.68 -18 158 C-18.66 158 -19.32 158 -20 158 C-20 157.34 -20 156.68 -20 156 C-20.66 156 -21.32 156 -22 156 C-22 154.02 -22 152.04 -22 150 C-22.66 150 -23.32 150 -24 150 C-24 145.38 -24 140.76 -24 136 C-23.34 136 -22.68 136 -22 136 C-22 134.02 -22 132.04 -22 130 C-21.34 130 -20.68 130 -20 130 C-20 129.34 -20 128.68 -20 128 C-19.34 128 -18.68 128 -18 128 C-18 127.34 -18 126.68 -18 126 C-17.34 126 -16.68 126 -16 126 C-16 125.34 -16 124.68 -16 124 C-15.34 124 -14.68 124 -14 124 C-14 123.34 -14 122.68 -14 122 C-13.34 122 -12.68 122 -12 122 C-12 121.34 -12 120.68 -12 120 C-10.68 120 -9.36 120 -8 120 C-8 119.34 -8 118.68 -8 118 C-6.68 118 -5.36 118 -4 118 C-4 117.34 -4 116.68 -4 116 C-2.68 116 -1.36 116 0 116 C0 83 0 50 0 16 C-1.32 16 -2.64 16 -4 16 C-4 15.34 -4 14.68 -4 14 C-4.66 14 -5.32 14 -6 14 C-6 12.68 -6 11.36 -6 10 C-6.66 10 -7.32 10 -8 10 C-8 8.68 -8 7.36 -8 6 C-12.62 6 -17.24 6 -22 6 C-22 4.68 -22 3.36 -22 2 C-16.72 2 -11.44 2 -6 2 C-6 3.32 -6 4.64 -6 6 C-5.34 6 -4.68 6 -4 6 C-4 5.34 -4 4.68 -4 4 C-3.34 4 -2.68 4 -2 4 C-2 3.34 -2 2.68 -2 2 C-1.34 2 -0.68 2 0 2 C0 1.34 0 0.68 0 0 Z " fill="#C36B65" transform="translate(186,100)"/>
<path d="M0 0 C25.74 0 51.48 0 78 0 C78 0.66 78 1.32 78 2 C83.28 2 88.56 2 94 2 C94 2.66 94 3.32 94 4 C95.98 4 97.96 4 100 4 C100 4.66 100 5.32 100 6 C103.3 6 106.6 6 110 6 C110 6.66 110 7.32 110 8 C111.98 8 113.96 8 116 8 C116 8.66 116 9.32 116 10 C121.94 10 127.88 10 134 10 C134 9.34 134 8.68 134 8 C137.3 8 140.6 8 144 8 C144 7.34 144 6.68 144 6 C147.3 6 150.6 6 154 6 C154 5.34 154 4.68 154 4 C157.96 4 161.92 4 166 4 C166 3.34 166 2.68 166 2 C174.58 2 183.16 2 192 2 C192 1.34 192 0.68 192 0 C212.46 0 232.92 0 254 0 C254 0.66 254 1.32 254 2 C258.62 2 263.24 2 268 2 C268 2.66 268 3.32 268 4 C269.98 4 271.96 4 274 4 C274 4.66 274 5.32 274 6 C277.96 6 281.92 6 286 6 C286 6.66 286 7.32 286 8 C288.64 8 291.28 8 294 8 C294 8.66 294 9.32 294 10 C295.98 10 297.96 10 300 10 C300 10.66 300 11.32 300 12 C301.98 12 303.96 12 306 12 C306 12.66 306 13.32 306 14 C301.38 14 296.76 14 292 14 C292 13.34 292 12.68 292 12 C290.02 12 288.04 12 286 12 C286 11.34 286 10.68 286 10 C279.4 10 272.8 10 266 10 C266 9.34 266 8.68 266 8 C242.24 8 218.48 8 194 8 C194 8.66 194 9.32 194 10 C190.04 10 186.08 10 182 10 C182 10.66 182 11.32 182 12 C178.04 12 174.08 12 170 12 C170 12.66 170 13.32 170 14 C166.04 14 162.08 14 158 14 C158 14.66 158 15.32 158 16 C156.68 16 155.36 16 154 16 C154 16.66 154 17.32 154 18 C151.36 18 148.72 18 146 18 C146 18.66 146 19.32 146 20 C143.36 20 140.72 20 138 20 C138 20.66 138 21.32 138 22 C136.02 22 134.04 22 132 22 C132 22.66 132 23.32 132 24 C128.7 24 125.4 24 122 24 C122 23.34 122 22.68 122 22 C119.36 22 116.72 22 114 22 C114 21.34 114 20.68 114 20 C112.02 20 110.04 20 108 20 C108 19.34 108 18.68 108 18 C105.36 18 102.72 18 100 18 C100 17.34 100 16.68 100 16 C98.02 16 96.04 16 94 16 C94 15.34 94 14.68 94 14 C90.7 14 87.4 14 84 14 C84 13.34 84 12.68 84 12 C79.38 12 74.76 12 70 12 C70 11.34 70 10.68 70 10 C67.36 10 64.72 10 62 10 C62 9.34 62 8.68 62 8 C35.6 8 9.2 8 -18 8 C-18 8.66 -18 9.32 -18 10 C-21.3 10 -24.6 10 -28 10 C-28 10.66 -28 11.32 -28 12 C-33.28 12 -38.56 12 -44 12 C-44 12.66 -44 13.32 -44 14 C-45.98 14 -47.96 14 -50 14 C-50 13.34 -50 12.68 -50 12 C-48.68 12 -47.36 12 -46 12 C-46 11.34 -46 10.68 -46 10 C-43.36 10 -40.72 10 -38 10 C-38 9.34 -38 8.68 -38 8 C-34.7 8 -31.4 8 -28 8 C-28 7.34 -28 6.68 -28 6 C-26.02 6 -24.04 6 -22 6 C-22 5.34 -22 4.68 -22 4 C-16.72 4 -11.44 4 -6 4 C-6 3.34 -6 2.68 -6 2 C-4.02 2 -2.04 2 0 2 C0 1.34 0 0.68 0 0 Z " fill="#C64E42" transform="translate(62,18)"/>
<path d="M0 0 C3.3 0 6.6 0 10 0 C10 0.66 10 1.32 10 2 C11.98 2 13.96 2 16 2 C16 2.66 16 3.32 16 4 C17.32 4 18.64 4 20 4 C20 4.66 20 5.32 20 6 C20.66 6 21.32 6 22 6 C22 6.66 22 7.32 22 8 C22.66 8 23.32 8 24 8 C24 9.32 24 10.64 24 12 C24.66 12 25.32 12 26 12 C26 13.32 26 14.64 26 16 C26.66 16 27.32 16 28 16 C28 20.62 28 25.24 28 30 C27.34 30 26.68 30 26 30 C26 31.32 26 32.64 26 34 C25.34 34 24.68 34 24 34 C24 35.32 24 36.64 24 38 C23.34 38 22.68 38 22 38 C22 38.66 22 39.32 22 40 C20.68 40 19.36 40 18 40 C18 40.66 18 41.32 18 42 C17.34 42 16.68 42 16 42 C16 42.66 16 43.32 16 44 C14.68 44 13.36 44 12 44 C12 44.66 12 45.32 12 46 C8.04 46 4.08 46 0 46 C0 45.34 0 44.68 0 44 C-1.98 44 -3.96 44 -6 44 C-6 43.34 -6 42.68 -6 42 C-6.66 42 -7.32 42 -8 42 C-8 41.34 -8 40.68 -8 40 C-8.66 40 -9.32 40 -10 40 C-10 39.34 -10 38.68 -10 38 C-10.66 38 -11.32 38 -12 38 C-12 37.34 -12 36.68 -12 36 C-12.66 36 -13.32 36 -14 36 C-14 34.68 -14 33.36 -14 32 C-14.66 32 -15.32 32 -16 32 C-16 26.06 -16 20.12 -16 14 C-15.34 14 -14.68 14 -14 14 C-14 12.68 -14 11.36 -14 10 C-13.34 10 -12.68 10 -12 10 C-12 9.34 -12 8.68 -12 8 C-11.34 8 -10.68 8 -10 8 C-10 7.34 -10 6.68 -10 6 C-8.68 6 -7.36 6 -6 6 C-6 5.34 -6 4.68 -6 4 C-5.34 4 -4.68 4 -4 4 C-4 3.34 -4 2.68 -4 2 C-2.68 2 -1.36 2 0 2 C0 1.34 0 0.68 0 0 Z " fill="#FDFAF8" transform="translate(184,220)"/>
<path d="M0 0 C1.32 0 2.64 0 4 0 C4 69.96 4 139.92 4 212 C26.44 212 48.88 212 72 212 C72 194.18 72 176.36 72 158 C72.66 158 73.32 158 74 158 C74 160.64 74 163.28 74 166 C74.66 166 75.32 166 76 166 C76 177.88 76 189.76 76 202 C75.34 202 74.68 202 74 202 C74 205.96 74 209.92 74 214 C50.24 214 26.48 214 2 214 C2 195.52 2 177.04 2 158 C1.34 158 0.68 158 0 158 C0 105.86 0 53.72 0 0 Z " fill="#C46258" transform="translate(82,64)"/>
<path d="M0 0 C20.46 0 40.92 0 62 0 C62 0.66 62 1.32 62 2 C66.62 2 71.24 2 76 2 C76 2.66 76 3.32 76 4 C77.98 4 79.96 4 82 4 C82 4.66 82 5.32 82 6 C85.96 6 89.92 6 94 6 C94 6.66 94 7.32 94 8 C96.64 8 99.28 8 102 8 C102 8.66 102 9.32 102 10 C103.98 10 105.96 10 108 10 C108 10.66 108 11.32 108 12 C109.98 12 111.96 12 114 12 C114 12.66 114 13.32 114 14 C109.38 14 104.76 14 100 14 C100 13.34 100 12.68 100 12 C98.02 12 96.04 12 94 12 C94 11.34 94 10.68 94 10 C87.4 10 80.8 10 74 10 C74 9.34 74 8.68 74 8 C58.16 8 42.32 8 26 8 C26 7.34 26 6.68 26 6 C14.78 6 3.56 6 -8 6 C-8 5.67 -8 5.34 -8 5 C-14.93 4.505 -14.93 4.505 -22 4 C-22 3.34 -22 2.68 -22 2 C-14.74 2 -7.48 2 0 2 C0 1.34 0 0.68 0 0 Z " fill="#C35B51" transform="translate(254,18)"/>
<path d="M0 0 C1.98 0 3.96 0 6 0 C6 0.66 6 1.32 6 2 C6.66 2 7.32 2 8 2 C8 2.66 8 3.32 8 4 C8.66 4 9.32 4 10 4 C10 5.98 10 7.96 10 10 C10.66 10 11.32 10 12 10 C12 9.34 12 8.68 12 8 C12.66 8 13.32 8 14 8 C14 9.32 14 10.64 14 12 C13.34 12 12.68 12 12 12 C12 12.66 12 13.32 12 14 C11.34 14 10.68 14 10 14 C10 14.66 10 15.32 10 16 C7.36 16 4.72 16 2 16 C2 49 2 82 2 116 C1.34 116 0.68 116 0 116 C0 83 0 50 0 16 C-1.32 16 -2.64 16 -4 16 C-4 15.34 -4 14.68 -4 14 C-4.66 14 -5.32 14 -6 14 C-6 12.68 -6 11.36 -6 10 C-6.66 10 -7.32 10 -8 10 C-8 8.68 -8 7.36 -8 6 C-12.62 6 -17.24 6 -22 6 C-22 4.68 -22 3.36 -22 2 C-16.72 2 -11.44 2 -6 2 C-6 3.32 -6 4.64 -6 6 C-5.34 6 -4.68 6 -4 6 C-4 5.34 -4 4.68 -4 4 C-3.34 4 -2.68 4 -2 4 C-2 3.34 -2 2.68 -2 2 C-1.34 2 -0.68 2 0 2 C0 1.34 0 0.68 0 0 Z " fill="#DB948B" transform="translate(186,100)"/>
<path d="M0 0 C19.14 0 38.28 0 58 0 C58 0.66 58 1.32 58 2 C47.44 2 36.88 2 26 2 C26 2.66 26 3.32 26 4 C25.34 4 24.68 4 24 4 C24 5.32 24 6.64 24 8 C6.84 8 -10.32 8 -28 8 C-28 8.66 -28 9.32 -28 10 C-33.28 10 -38.56 10 -44 10 C-44 9.34 -44 8.68 -44 8 C-42.02 8 -40.04 8 -38 8 C-38 7.34 -38 6.68 -38 6 C-34.7 6 -31.4 6 -28 6 C-28 5.34 -28 4.68 -28 4 C-24.04 4 -20.08 4 -16 4 C-16 3.34 -16 2.68 -16 2 C-10.72 2 -5.44 2 0 2 C0 1.34 0 0.68 0 0 Z " fill="#BD4F43" transform="translate(56,56)"/>
<path d="M0 0 C1.32 0 2.64 0 4 0 C4 33 4 66 4 100 C5.32 100 6.64 100 8 100 C8 101.32 8 102.64 8 104 C4.04 104 0.08 104 -4 104 C-4 102.68 -4 101.36 -4 100 C-2.68 100 -1.36 100 0 100 C0 67 0 34 0 0 Z " fill="#BB4F43" transform="translate(188,116)"/>
<path d="M0 0 C0.66 0 1.32 0 2 0 C2 0.66 2 1.32 2 2 C3.32 2 4.64 2 6 2 C6 2.66 6 3.32 6 4 C7.32 4 8.64 4 10 4 C10 4.66 10 5.32 10 6 C10.66 6 11.32 6 12 6 C12 6.66 12 7.32 12 8 C12.66 8 13.32 8 14 8 C14 8.66 14 9.32 14 10 C14.66 10 15.32 10 16 10 C16 11.32 16 12.64 16 14 C16.66 14 17.32 14 18 14 C18 15.32 18 16.64 18 18 C18.66 18 19.32 18 20 18 C20 23.94 20 29.88 20 36 C19.34 36 18.68 36 18 36 C18 37.32 18 38.64 18 40 C17.34 40 16.68 40 16 40 C16 41.32 16 42.64 16 44 C15.34 44 14.68 44 14 44 C14 44.66 14 45.32 14 46 C13.34 46 12.68 46 12 46 C12 46.66 12 47.32 12 48 C11.34 48 10.68 48 10 48 C10 48.66 10 49.32 10 50 C8.68 50 7.36 50 6 50 C6 50.66 6 51.32 6 52 C4.02 52 2.04 52 0 52 C0 52.66 0 53.32 0 54 C-2.64 54 -5.28 54 -8 54 C-8 53.34 -8 52.68 -8 52 C-9.32 52 -10.64 52 -12 52 C-12 51.34 -12 50.68 -12 50 C-8.04 50 -4.08 50 0 50 C0 49.34 0 48.68 0 48 C1.32 48 2.64 48 4 48 C4 47.34 4 46.68 4 46 C4.66 46 5.32 46 6 46 C6 45.34 6 44.68 6 44 C7.32 44 8.64 44 10 44 C10 43.34 10 42.68 10 42 C10.66 42 11.32 42 12 42 C12 40.68 12 39.36 12 38 C12.66 38 13.32 38 14 38 C14 36.68 14 35.36 14 34 C14.66 34 15.32 34 16 34 C16 29.38 16 24.76 16 20 C15.34 20 14.68 20 14 20 C14 18.68 14 17.36 14 16 C13.34 16 12.68 16 12 16 C12 14.68 12 13.36 12 12 C11.34 12 10.68 12 10 12 C10 11.34 10 10.68 10 10 C9.34 10 8.68 10 8 10 C8 9.34 8 8.68 8 8 C6.68 8 5.36 8 4 8 C4 7.34 4 6.68 4 6 C2.02 6 0.04 6 -2 6 C-2 5.34 -2 4.68 -2 4 C-1.34 4 -0.68 4 0 4 C0 2.68 0 1.36 0 0 Z " fill="#BF6458" transform="translate(196,216)"/>
<path d="M0 0 C0.66 0 1.32 0 2 0 C2 2.64 2 5.28 2 8 C2.66 8 3.32 8 4 8 C4 19.88 4 31.76 4 44 C3.34 44 2.68 44 2 44 C2 47.96 2 51.92 2 56 C-21.76 56 -45.52 56 -70 56 C-70 55.34 -70 54.68 -70 54 C-46.9 54 -23.8 54 0 54 C0 36.18 0 18.36 0 0 Z " fill="#B44B43" transform="translate(154,222)"/>
<path d="M0 0 C3.1875 -0.25 3.1875 -0.25 6 0 C6 0.66 6 1.32 6 2 C9.96 2 13.92 2 18 2 C18 2.66 18 3.32 18 4 C25.92 4 33.84 4 42 4 C42 4.66 42 5.32 42 6 C42.66 6 43.32 6 44 6 C44 6.66 44 7.32 44 8 C45.98 8 47.96 8 50 8 C50 8.66 50 9.32 50 10 C45.38 10 40.76 10 36 10 C36 9.34 36 8.68 36 8 C20.82 8 5.64 8 -10 8 C-10 7.34 -10 6.68 -10 6 C-8.3603125 5.62875 -8.3603125 5.62875 -6.6875 5.25 C-2.96808928 4.38168455 -2.96808928 4.38168455 -1.4375 1.875 C-0.963125 1.25625 -0.48875 0.6375 0 0 Z " fill="#C25F54" transform="translate(314,56)"/>
<path d="M0 0 C3.96 0 7.92 0 12 0 C12 0.66 12 1.32 12 2 C29.16 2 46.32 2 64 2 C64 2.66 64 3.32 64 4 C44.2 4 24.4 4 4 4 C4 4.66 4 5.32 4 6 C0.7 6 -2.6 6 -6 6 C-6 6.66 -6 7.32 -6 8 C-11.28 8 -16.56 8 -22 8 C-22 8.66 -22 9.32 -22 10 C-23.98 10 -25.96 10 -28 10 C-28 9.34 -28 8.68 -28 8 C-26.68 8 -25.36 8 -24 8 C-24 7.34 -24 6.68 -24 6 C-21.36 6 -18.72 6 -16 6 C-16 5.34 -16 4.68 -16 4 C-12.7 4 -9.4 4 -6 4 C-6 3.34 -6 2.68 -6 2 C-4.02 2 -2.04 2 0 2 C0 1.34 0 0.68 0 0 Z " fill="#C5786D" transform="translate(40,22)"/>
<path d="M0 0 C0.66 0 1.32 0 2 0 C2 3.3 2 6.6 2 10 C2.66 10 3.32 10 4 10 C4 19.9 4 29.8 4 40 C25.12 40 46.24 40 68 40 C68 40.66 68 41.32 68 42 C46.88 42 25.76 42 4 42 C4 42.66 4 43.32 4 44 C3.34 44 2.68 44 2 44 C2 34.1 2 24.2 2 14 C1.34 14 0.68 14 0 14 C0 9.38 0 4.76 0 0 Z " fill="#C6463B" transform="translate(220,234)"/>
<path d="M0 0 C0.66 0 1.32 0 2 0 C2 0.66 2 1.32 2 2 C7.28 2 12.56 2 18 2 C18 1.34 18 0.68 18 0 C35.82 0 53.64 0 72 0 C72 6.6 72 13.2 72 20 C71.34 20.33 70.68 20.66 70 21 C70 14.73 70 8.46 70 2 C56.8 2 43.6 2 30 2 C30 2.66 30 3.32 30 4 C19.44 4 8.88 4 -2 4 C-2 3.34 -2 2.68 -2 2 C-1.34 2 -0.68 2 0 2 C0 1.34 0 0.68 0 0 Z " fill="#FEE1DA" transform="translate(10,64)"/>
<path d="M0 0 C0.66 0 1.32 0 2 0 C2 11.22 2 22.44 2 34 C-21.1 34 -44.2 34 -68 34 C-68 33.34 -68 32.68 -68 32 C-46.88 32 -25.76 32 -4 32 C-4 31.34 -4 30.68 -4 30 C-2.68 30 -1.36 30 0 30 C0 20.1 0 10.2 0 0 Z " fill="#B54B41" transform="translate(292,244)"/>
<path d="M0 0 C1.32 0 2.64 0 4 0 C4 0.66 4 1.32 4 2 C3.34 2 2.68 2 2 2 C2 33.68 2 65.36 2 98 C2.66 98 3.32 98 4 98 C4 98.66 4 99.32 4 100 C2.68 100 1.36 100 0 100 C0 67 0 34 0 0 Z " fill="#FFEAE5" transform="translate(192,116)"/>
<path d="M0 0 C3.3 0 6.6 0 10 0 C10 0.66 10 1.32 10 2 C12.64 2 15.28 2 18 2 C18 2.66 18 3.32 18 4 C21.3 4 24.6 4 28 4 C28 4.66 28 5.32 28 6 C29.98 6 31.96 6 34 6 C34 6.66 34 7.32 34 8 C35.98 8 37.96 8 40 8 C40 16.58 40 25.16 40 34 C41.98 34 43.96 34 46 34 C46 34.66 46 35.32 46 36 C44.68 36 43.36 36 42 36 C42 36.66 42 37.32 42 38 C41.34 38 40.68 38 40 38 C40 38.66 40 39.32 40 40 C39.34 40 38.68 40 38 40 C38 30.1 38 20.2 38 10 C35.36 10 32.72 10 30 10 C30 9.34 30 8.68 30 8 C28.68 8 27.36 8 26 8 C26 7.34 26 6.68 26 6 C22.7 6 19.4 6 16 6 C16 5.34 16 4.68 16 4 C12.7 4 9.4 4 6 4 C6 3.34 6 2.68 6 2 C4.02 2 2.04 2 0 2 C0 1.34 0 0.68 0 0 Z " fill="#BF5143" transform="translate(146,62)"/>
<path d="M0 0 C2.97 0 5.94 0 9 0 C9 0.33 9 0.66 9 1 C28.305 1.495 28.305 1.495 48 2 C48 2.66 48 3.32 48 4 C32.16 4 16.32 4 0 4 C0 4.66 0 5.32 0 6 C-5.28 6 -10.56 6 -16 6 C-16 5.34 -16 4.68 -16 4 C-14.02 4 -12.04 4 -10 4 C-10 3.34 -10 2.68 -10 2 C-6.7 2 -3.4 2 0 2 C0 1.34 0 0.68 0 0 Z " fill="#CB6F66" transform="translate(28,60)"/>
<path d="M0 0 C2.64 0 5.28 0 8 0 C8 1.98 8 3.96 8 6 C8.66 6 9.32 6 10 6 C10 4.68 10 3.36 10 2 C10.66 2 11.32 2 12 2 C12 10.58 12 19.16 12 28 C10.02 28 8.04 28 6 28 C6 19.42 6 10.84 6 2 C4.02 2 2.04 2 0 2 C0 1.34 0 0.68 0 0 Z " fill="#FFECEA" transform="translate(180,68)"/>
<path d="M0 0 C0.66 0 1.32 0 2 0 C2 4.62 2 9.24 2 14 C2.66 14 3.32 14 4 14 C4 15.32 4 16.64 4 18 C4.66 18 5.32 18 6 18 C6 18.66 6 19.32 6 20 C6.66 20 7.32 20 8 20 C8 20.66 8 21.32 8 22 C8.66 22 9.32 22 10 22 C10 22.66 10 23.32 10 24 C10.66 24 11.32 24 12 24 C12 24.66 12 25.32 12 26 C13.98 26 15.96 26 18 26 C18 27.32 18 28.64 18 30 C19.32 30 20.64 30 22 30 C22 30.66 22 31.32 22 32 C19.36 32 16.72 32 14 32 C14 31.34 14 30.68 14 30 C12.68 30 11.36 30 10 30 C10 29.34 10 28.68 10 28 C8.68 28 7.36 28 6 28 C6 27.34 6 26.68 6 26 C5.34 26 4.68 26 4 26 C4 24.68 4 23.36 4 22 C3.34 22 2.68 22 2 22 C2 21.34 2 20.68 2 20 C1.34 20 0.68 20 0 20 C0 19.34 0 18.68 0 18 C-0.66 18 -1.32 18 -2 18 C-2 16.68 -2 15.36 -2 14 C-1.34 14 -0.68 14 0 14 C0 9.38 0 4.76 0 0 Z " fill="#BC645B" transform="translate(166,238)"/>
<path d="M0 0 C0.66 0 1.32 0 2 0 C2 2.64 2 5.28 2 8 C2.66 8 3.32 8 4 8 C4 19.88 4 31.76 4 44 C3.34 44 2.68 44 2 44 C2 43.34 2 42.68 2 42 C1.34 42 0.68 42 0 42 C0 28.14 0 14.28 0 0 Z " fill="#C65D53" transform="translate(154,222)"/>
<path d="M0 0 C18.15 0 36.3 0 55 0 C55 0.33 55 0.66 55 1 C57.97 1.33 60.94 1.66 64 2 C64 2.66 64 3.32 64 4 C58.72 4 53.44 4 48 4 C48 3.34 48 2.68 48 2 C32.16 2 16.32 2 0 2 C0 1.34 0 0.68 0 0 Z " fill="#F9CEC7" transform="translate(66,54)"/>
<path d="M0 0 C0.66 0 1.32 0 2 0 C2 7.26 2 14.52 2 22 C2.66 22 3.32 22 4 22 C4 25.96 4 29.92 4 34 C4.66 34 5.32 34 6 34 C6 35.98 6 37.96 6 40 C6.66 40 7.32 40 8 40 C8 40.66 8 41.32 8 42 C4.04 41.505 4.04 41.505 0 41 C0 27.47 0 13.94 0 0 Z " fill="#FFF7EB" transform="translate(158,216)"/>
<path d="M0 0 C15.18 0 30.36 0 46 0 C46 0.66 46 1.32 46 2 C32.14 2 18.28 2 4 2 C4 2.66 4 3.32 4 4 C-1.28 4 -6.56 4 -12 4 C-12 3.34 -12 2.68 -12 2 C-8.04 2 -4.08 2 0 2 C0 1.34 0 0.68 0 0 Z " fill="#F3B4AE" transform="translate(250,16)"/>
<path d="M0 0 C0.66 0 1.32 0 2 0 C2.02465392 4.53897705 2.04283789 9.07791543 2.05493164 13.61694336 C2.0599714 15.16219766 2.0668032 16.70744716 2.07543945 18.25268555 C2.08752076 20.46925029 2.09323173 22.68575218 2.09765625 24.90234375 C2.10281754 25.5971434 2.10797882 26.29194305 2.11329651 27.00779724 C2.11349277 28.6722933 2.06189129 30.33665499 2 32 C1.505 32.495 1.505 32.495 1 33 C0.63239269 35.32817964 0.29758419 37.6618385 0 40 C-0.66 40 -1.32 40 -2 40 C-2 36.04 -2 32.08 -2 28 C-2.66 28 -3.32 28 -4 28 C-4 26.68 -4 25.36 -4 24 C-4.66 24 -5.32 24 -6 24 C-6 23.34 -6 22.68 -6 22 C-4.02 22 -2.04 22 0 22 C0 14.74 0 7.48 0 0 Z " fill="#F6D5CE" transform="translate(218,206)"/>
<path d="M0 0 C0.66 0 1.32 0 2 0 C2 0.66 2 1.32 2 2 C3.32 2 4.64 2 6 2 C6 2.66 6 3.32 6 4 C7.32 4 8.64 4 10 4 C10 4.66 10 5.32 10 6 C10.66 6 11.32 6 12 6 C12 6.66 12 7.32 12 8 C12.66 8 13.32 8 14 8 C14 8.66 14 9.32 14 10 C14.66 10 15.32 10 16 10 C16 11.32 16 12.64 16 14 C16.66 14 17.32 14 18 14 C18 14.66 18 15.32 18 16 C17.34 16 16.68 16 16 16 C16 17.32 16 18.64 16 20 C15.34 20 14.68 20 14 20 C14 18.68 14 17.36 14 16 C13.34 16 12.68 16 12 16 C12 14.68 12 13.36 12 12 C11.34 12 10.68 12 10 12 C10 11.34 10 10.68 10 10 C9.34 10 8.68 10 8 10 C8 9.34 8 8.68 8 8 C6.68 8 5.36 8 4 8 C4 7.34 4 6.68 4 6 C2.02 6 0.04 6 -2 6 C-2 5.34 -2 4.68 -2 4 C-1.34 4 -0.68 4 0 4 C0 2.68 0 1.36 0 0 Z " fill="#C15B56" transform="translate(196,216)"/>
<path d="M0 0 C1.98 0 3.96 0 6 0 C6 0.66 6 1.32 6 2 C6.66 2 7.32 2 8 2 C8 4.64 8 7.28 8 10 C7.34 10 6.68 10 6 10 C6 10.66 6 11.32 6 12 C3.36 12 0.72 12 -2 12 C-2 8.7 -2 5.4 -2 2 C-1.34 2 -0.68 2 0 2 C0 1.34 0 0.68 0 0 Z " fill="#FEECE6" transform="translate(186,100)"/>
<path d="M0 0 C0.66 0 1.32 0 2 0 C2.02465392 4.53897705 2.04283789 9.07791543 2.05493164 13.61694336 C2.0599714 15.16219766 2.0668032 16.70744716 2.07543945 18.25268555 C2.08752076 20.46925029 2.09323173 22.68575218 2.09765625 24.90234375 C2.10281754 25.5971434 2.10797882 26.29194305 2.11329651 27.00779724 C2.11349277 28.6722933 2.06189129 30.33665499 2 32 C1.505 32.495 1.505 32.495 1 33 C0.76346477 35.52596259 0.57826308 38.03107207 0.4375 40.5625 C0.39431641 41.27341797 0.35113281 41.98433594 0.30664062 42.71679688 C0.20028223 44.47761912 0.09961154 46.2387832 0 48 C-0.66 48 -1.32 48 -2 48 C-2 42.06 -2 36.12 -2 30 C-1.34 30 -0.68 30 0 30 C0 20.1 0 10.2 0 0 Z " fill="#F2BAB5" transform="translate(162,148)"/>
<path d="M0 0 C0.66 0 1.32 0 2 0 C2 3.3 2 6.6 2 10 C2.66 10 3.32 10 4 10 C4 21.22 4 32.44 4 44 C3.34 44 2.68 44 2 44 C2 34.1 2 24.2 2 14 C1.34 14 0.68 14 0 14 C0 9.38 0 4.76 0 0 Z " fill="#CA6C62" transform="translate(220,234)"/>
<path d="M0 0 C0.66 0 1.32 0 2 0 C2 11.22 2 22.44 2 34 C2.66 34 3.32 34 4 34 C4 35.98 4 37.96 4 40 C3.34 40 2.68 40 2 40 C2 40.66 2 41.32 2 42 C1.34 42 0.68 42 0 42 C0 28.14 0 14.28 0 0 Z " fill="#FFEDE8" transform="translate(160,196)"/>
<path d="M0 0 C3.3 0 6.6 0 10 0 C10 0.66 10 1.32 10 2 C11.98 2 13.96 2 16 2 C16 2.66 16 3.32 16 4 C17.32 4 18.64 4 20 4 C20 4.66 20 5.32 20 6 C18.02 6 16.04 6 14 6 C14 5.34 14 4.68 14 4 C10.04 4 6.08 4 2 4 C2 4.66 2 5.32 2 6 C-0.64 6 -3.28 6 -6 6 C-6 5.34 -6 4.68 -6 4 C-5.34 4 -4.68 4 -4 4 C-4 3.34 -4 2.68 -4 2 C-2.68 2 -1.36 2 0 2 C0 1.34 0 0.68 0 0 Z " fill="#F9D6CF" transform="translate(184,220)"/>
<path d="M0 0 C3.3 0 6.6 0 10 0 C10 0.66 10 1.32 10 2 C12.64 2 15.28 2 18 2 C18 2.66 18 3.32 18 4 C21.3 4 24.6 4 28 4 C28 4.66 28 5.32 28 6 C29.98 6 31.96 6 34 6 C34 6.66 34 7.32 34 8 C31.36 8 28.72 8 26 8 C26 7.34 26 6.68 26 6 C22.7 6 19.4 6 16 6 C16 5.34 16 4.68 16 4 C12.7 4 9.4 4 6 4 C6 3.34 6 2.68 6 2 C4.02 2 2.04 2 0 2 C0 1.34 0 0.68 0 0 Z " fill="#BF5347" transform="translate(146,62)"/>
<path d="M0 0 C1.32 0 2.64 0 4 0 C4 6.6 4 13.2 4 20 C2.68 20.33 1.36 20.66 0 21 C0 14.07 0 7.14 0 0 Z " fill="#BF5248" transform="translate(82,64)"/>
<path d="M0 0 C0.66 0 1.32 0 2 0 C2 0.66 2 1.32 2 2 C2.66 2 3.32 2 4 2 C4 7.94 4 13.88 4 20 C3.34 20 2.68 20 2 20 C2 20.66 2 21.32 2 22 C1.34 22 0.68 22 0 22 C0 14.74 0 7.48 0 0 Z " fill="#B85145" transform="translate(212,232)"/>
<path d="M0 0 C4.62 0 9.24 0 14 0 C14 1.32 14 2.64 14 4 C14.66 4 15.32 4 16 4 C16 5.32 16 6.64 16 8 C16.66 8 17.32 8 18 8 C18 8.66 18 9.32 18 10 C16.68 10 15.36 10 14 10 C14 8.68 14 7.36 14 6 C13.34 6 12.68 6 12 6 C12 4.68 12 3.36 12 2 C8.7 2 5.4 2 2 2 C2 6.62 2 11.24 2 16 C1.34 16 0.68 16 0 16 C0 10.72 0 5.44 0 0 Z " fill="#F6C9BD" transform="translate(164,106)"/>
<path d="M0 0 C5.28 0 10.56 0 16 0 C16 0.66 16 1.32 16 2 C18.64 2 21.28 2 24 2 C24 2.66 24 3.32 24 4 C16.08 4 8.16 4 0 4 C0 2.68 0 1.36 0 0 Z " fill="#BE574D" transform="translate(120,58)"/>
<path d="M0 0 C2.64 0 5.28 0 8 0 C8 0.66 8 1.32 8 2 C11.96 2 15.92 2 20 2 C20 1.34 20 0.68 20 0 C24.62 0 29.24 0 34 0 C34 0.66 34 1.32 34 2 C30.7 2 27.4 2 24 2 C24 2.66 24 3.32 24 4 C18.06 4 12.12 4 6 4 C6 3.34 6 2.68 6 2 C4.02 2 2.04 2 0 2 C0 1.34 0 0.68 0 0 Z " fill="#FDDDDA" transform="translate(172,24)"/>
<path d="M0 0 C0.66 0 1.32 0 2 0 C2 1.98 2 3.96 2 6 C1.34 6 0.68 6 0 6 C0 10.62 0 15.24 0 20 C-0.66 20 -1.32 20 -2 20 C-2 19.34 -2 18.68 -2 18 C-2.66 18 -3.32 18 -4 18 C-4 13.38 -4 8.76 -4 4 C-3.34 4 -2.68 4 -2 4 C-2 3.34 -2 2.68 -2 2 C-1.34 2 -0.68 2 0 2 C0 1.34 0 0.68 0 0 Z " fill="#B65F55" transform="translate(166,232)"/>
<path d="M0 0 C0.66 0 1.32 0 2 0 C2 11.22 2 22.44 2 34 C2.66 34 3.32 34 4 34 C4 34.66 4 35.32 4 36 C2.68 36 1.36 36 0 36 C0 24.12 0 12.24 0 0 Z " fill="#FFDBD7" transform="translate(192,180)"/>
<path d="M0 0 C1.32 0 2.64 0 4 0 C4 0.66 4 1.32 4 2 C3.34 2 2.68 2 2 2 C2 3.32 2 4.64 2 6 C0.68 6 -0.64 6 -2 6 C-2 6.66 -2 7.32 -2 8 C-3.32 8 -4.64 8 -6 8 C-6 7.34 -6 6.68 -6 6 C-9.96 6 -13.92 6 -18 6 C-18 5.34 -18 4.68 -18 4 C-14.04 4 -10.08 4 -6 4 C-6 3.34 -6 2.68 -6 2 C-4.02 2 -2.04 2 0 2 C0 1.34 0 0.68 0 0 Z " fill="#FEE6DC" transform="translate(202,266)"/>
<path d="M0 0 C2.64 0 5.28 0 8 0 C8 0.66 8 1.32 8 2 C9.98 2 11.96 2 14 2 C14 2.66 14 3.32 14 4 C17.3 4 20.6 4 24 4 C24 4.66 24 5.32 24 6 C18.06 6 12.12 6 6 6 C6 5.34 6 4.68 6 4 C5.34 4 4.68 4 4 4 C4 3.34 4 2.68 4 2 C2.68 2 1.36 2 0 2 C0 1.34 0 0.68 0 0 Z " fill="#CD675E" transform="translate(148,20)"/>
<path d="M0 0 C2.64 0 5.28 0 8 0 C8 0.66 8 1.32 8 2 C7.34 2 6.68 2 6 2 C6 2.66 6 3.32 6 4 C4.02 4 2.04 4 0 4 C0 4.66 0 5.32 0 6 C-2.64 6 -5.28 6 -8 6 C-8 5.34 -8 4.68 -8 4 C-9.32 4 -10.64 4 -12 4 C-12 3.34 -12 2.68 -12 2 C-8.04 2 -4.08 2 0 2 C0 1.34 0 0.68 0 0 Z " fill="#B35B51" transform="translate(196,264)"/>
<path d="M0 0 C0.66 0 1.32 0 2 0 C2 7.26 2 14.52 2 22 C2.66 22 3.32 22 4 22 C4 23.98 4 25.96 4 28 C2.68 28 1.36 28 0 28 C0 18.76 0 9.52 0 0 Z " fill="#F5B4AB" transform="translate(158,216)"/>
<path d="M0 0 C2.64 0 5.28 0 8 0 C8 9.24 8 18.48 8 28 C7.34 28 6.68 28 6 28 C6 19.42 6 10.84 6 2 C4.02 2 2.04 2 0 2 C0 1.34 0 0.68 0 0 Z " fill="#F1B0A4" transform="translate(180,68)"/>
<path d="M0 0 C0.66 0 1.32 0 2 0 C2 0.66 2 1.32 2 2 C11.24 2 20.48 2 30 2 C30 2.66 30 3.32 30 4 C19.44 4 8.88 4 -2 4 C-2 3.34 -2 2.68 -2 2 C-1.34 2 -0.68 2 0 2 C0 1.34 0 0.68 0 0 Z " fill="#FEF3EC" transform="translate(10,64)"/>
<path d="M0 0 C1.98 0 3.96 0 6 0 C6 0.66 6 1.32 6 2 C7.98 2 9.96 2 12 2 C12 2.66 12 3.32 12 4 C13.98 4 15.96 4 18 4 C18 4.66 18 5.32 18 6 C13.38 6 8.76 6 4 6 C4 5.34 4 4.68 4 4 C2.02 4 0.04 4 -2 4 C-2 3.34 -2 2.68 -2 2 C-1.34 2 -0.68 2 0 2 C0 1.34 0 0.68 0 0 Z " fill="#BA887B" transform="translate(350,26)"/>
<path d="M0 0 C0.66 0 1.32 0 2 0 C2 1.32 2 2.64 2 4 C2.66 4 3.32 4 4 4 C4 4.66 4 5.32 4 6 C4.66 6 5.32 6 6 6 C6 7.32 6 8.64 6 10 C6.66 10 7.32 10 8 10 C8 10.66 8 11.32 8 12 C8.66 12 9.32 12 10 12 C10 12.66 10 13.32 10 14 C10.66 14 11.32 14 12 14 C12 14.66 12 15.32 12 16 C12.66 16 13.32 16 14 16 C14 16.66 14 17.32 14 18 C12.68 18 11.36 18 10 18 C10 17.34 10 16.68 10 16 C9.34 16 8.68 16 8 16 C8 15.34 8 14.68 8 14 C7.34 14 6.68 14 6 14 C6 13.34 6 12.68 6 12 C5.34 12 4.68 12 4 12 C4 11.34 4 10.68 4 10 C3.34 10 2.68 10 2 10 C2 8.68 2 7.36 2 6 C1.34 6 0.68 6 0 6 C0 4.02 0 2.04 0 0 Z " fill="#FCE5DC" transform="translate(168,246)"/>
<path d="M0 0 C5.28 0 10.56 0 16 0 C16 1.32 16 2.64 16 4 C10.72 4 5.44 4 0 4 C0 2.68 0 1.36 0 0 Z " fill="#C35348" transform="translate(164,102)"/>
<path d="M0 0 C2.64 0 5.28 0 8 0 C8 0.66 8 1.32 8 2 C8.66 2 9.32 2 10 2 C10 2.66 10 3.32 10 4 C2.74 4 -4.52 4 -12 4 C-12 3.34 -12 2.68 -12 2 C-8.04 2 -4.08 2 0 2 C0 1.34 0 0.68 0 0 Z " fill="#C77566" transform="translate(340,24)"/>
<path d="M0 0 C1.32 0 2.64 0 4 0 C4 0.66 4 1.32 4 2 C3.34 2 2.68 2 2 2 C2 9.92 2 17.84 2 26 C1.34 26 0.68 26 0 26 C0 17.42 0 8.84 0 0 Z " fill="#C35F5A" transform="translate(192,70)"/>
<path d="M0 0 C5.94 0 11.88 0 18 0 C18 0.66 18 1.32 18 2 C16.02 2 14.04 2 12 2 C12 2.66 12 3.32 12 4 C8.7 4 5.4 4 2 4 C2 3.34 2 2.68 2 2 C1.34 2 0.68 2 0 2 C0 1.34 0 0.68 0 0 Z " fill="#BB5246" transform="translate(182,38)"/>
<path d="M0 0 C1.32 0 2.64 0 4 0 C4 0.66 4 1.32 4 2 C5.98 2 7.96 2 10 2 C10 2.66 10 3.32 10 4 C4.72 4 -0.56 4 -6 4 C-6 4.66 -6 5.32 -6 6 C-7.98 6 -9.96 6 -12 6 C-12 5.34 -12 4.68 -12 4 C-10.68 4 -9.36 4 -8 4 C-8 3.34 -8 2.68 -8 2 C-5.36 2 -2.72 2 0 2 C0 1.34 0 0.68 0 0 Z " fill="#C28E88" transform="translate(24,26)"/>
<path d="M0 0 C5.61 0 11.22 0 17 0 C17 0.33 17 0.66 17 1 C19.475 1.495 19.475 1.495 22 2 C22 2.66 22 3.32 22 4 C18.7 4 15.4 4 12 4 C12 3.34 12 2.68 12 2 C8.04 2 4.08 2 0 2 C0 1.34 0 0.68 0 0 Z " fill="#EAB2AC" transform="translate(320,56)"/>
<path d="M0 0 C1.32 0 2.64 0 4 0 C4 1.32 4 2.64 4 4 C3.34 4 2.68 4 2 4 C2 5.32 2 6.64 2 8 C1.34 8 0.68 8 0 8 C0 8.66 0 9.32 0 10 C-1.32 10 -2.64 10 -4 10 C-4 10.66 -4 11.32 -4 12 C-4.66 12 -5.32 12 -6 12 C-6 10.68 -6 9.36 -6 8 C-5.34 8 -4.68 8 -4 8 C-4 6.68 -4 5.36 -4 4 C-3.34 4 -2.68 4 -2 4 C-2 4.66 -2 5.32 -2 6 C-1.34 6 -0.68 6 0 6 C0 4.02 0 2.04 0 0 Z " fill="#FDE6DE" transform="translate(206,250)"/>
<path d="M0 0 C1.98 0 3.96 0 6 0 C6 0.66 6 1.32 6 2 C6.66 2 7.32 2 8 2 C8 3.32 8 4.64 8 6 C8.66 6 9.32 6 10 6 C10 6.66 10 7.32 10 8 C9.34 8 8.68 8 8 8 C8 9.32 8 10.64 8 12 C7.34 12 6.68 12 6 12 C6 10.68 6 9.36 6 8 C5.34 8 4.68 8 4 8 C4 6.68 4 5.36 4 4 C3.34 4 2.68 4 2 4 C2 3.34 2 2.68 2 2 C1.34 2 0.68 2 0 2 C0 1.34 0 0.68 0 0 Z " fill="#B2584A" transform="translate(204,224)"/>
<path d="M0 0 C2.64 0 5.28 0 8 0 C8 0.66 8 1.32 8 2 C8.66 2 9.32 2 10 2 C10 2.66 10 3.32 10 4 C11.98 4 13.96 4 16 4 C16 4.66 16 5.32 16 6 C11.38 6 6.76 6 2 6 C2 5.34 2 4.68 2 4 C3.32 4 4.64 4 6 4 C6 3.34 6 2.68 6 2 C4.02 2 2.04 2 0 2 C0 1.34 0 0.68 0 0 Z " fill="#D09C93" transform="translate(348,60)"/>
<path d="M0 0 C5.94 0 11.88 0 18 0 C18 0.66 18 1.32 18 2 C14.04 2 10.08 2 6 2 C6 2.66 6 3.32 6 4 C3.36 4 0.72 4 -2 4 C-2 3.34 -2 2.68 -2 2 C-1.34 2 -0.68 2 0 2 C0 1.34 0 0.68 0 0 Z " fill="#FBE0DA" transform="translate(22,58)"/>
<path d="M0 0 C3.96 0 7.92 0 12 0 C12 0.66 12 1.32 12 2 C11.34 2 10.68 2 10 2 C10 2.66 10 3.32 10 4 C5.38 4 0.76 4 -4 4 C-4 3.34 -4 2.68 -4 2 C-2.68 2 -1.36 2 0 2 C0 1.34 0 0.68 0 0 Z " fill="#BF594D" transform="translate(196,26)"/>
<path d="M0 0 C2.64 0 5.28 0 8 0 C8 0.66 8 1.32 8 2 C8.66 2 9.32 2 10 2 C10 3.32 10 4.64 10 6 C6.04 6 2.08 6 -2 6 C-2 5.34 -2 4.68 -2 4 C0.64 4 3.28 4 6 4 C6 3.34 6 2.68 6 2 C4.02 2 2.04 2 0 2 C0 1.34 0 0.68 0 0 Z " fill="#F1D6CD" transform="translate(358,62)"/>
<path d="M0 0 C5.28 0 10.56 0 16 0 C16 0.66 16 1.32 16 2 C17.32 2 18.64 2 20 2 C20 2.66 20 3.32 20 4 C17.36 4 14.72 4 12 4 C12 3.34 12 2.68 12 2 C8.04 2 4.08 2 0 2 C0 1.34 0 0.68 0 0 Z " fill="#F7C7C4" transform="translate(144,60)"/>
<path d="M0 0 C6.6 0 13.2 0 20 0 C20 0.66 20 1.32 20 2 C19.34 2 18.68 2 18 2 C18 2.66 18 3.32 18 4 C16.68 4 15.36 4 14 4 C14 3.34 14 2.68 14 2 C9.38 2 4.76 2 0 2 C0 1.34 0 0.68 0 0 Z " fill="#CB6E5E" transform="translate(132,28)"/>
<path d="M0 0 C4.62 0 9.24 0 14 0 C14 3.3 14 6.6 14 10 C13.01 10.495 13.01 10.495 12 11 C12 8.03 12 5.06 12 2 C8.04 2 4.08 2 0 2 C0 1.34 0 0.68 0 0 Z " fill="#FFCFC4" transform="translate(200,106)"/>
<path d="M0 0 C0.66 0 1.32 0 2 0 C2 4.62 2 9.24 2 14 C2.66 14 3.32 14 4 14 C4 14.66 4 15.32 4 16 C2.68 16 1.36 16 0 16 C0 16.66 0 17.32 0 18 C-0.66 18 -1.32 18 -2 18 C-2 16.68 -2 15.36 -2 14 C-1.34 14 -0.68 14 0 14 C0 9.38 0 4.76 0 0 Z " fill="#DC7E77" transform="translate(166,238)"/>
<path d="M0 0 C1.98 0 3.96 0 6 0 C6 0.66 6 1.32 6 2 C4.68 2 3.36 2 2 2 C2 3.32 2 4.64 2 6 C1.34 6 0.68 6 0 6 C0 7.32 0 8.64 0 10 C0.66 10 1.32 10 2 10 C2 10.66 2 11.32 2 12 C0.68 12 -0.64 12 -2 12 C-2 8.7 -2 5.4 -2 2 C-1.34 2 -0.68 2 0 2 C0 1.34 0 0.68 0 0 Z " fill="#F2C4BE" transform="translate(186,100)"/>
<path d="M0 0 C1.98 0 3.96 0 6 0 C6 0.66 6 1.32 6 2 C7.32 2 8.64 2 10 2 C10 2.66 10 3.32 10 4 C4.72 4 -0.56 4 -6 4 C-6 3.34 -6 2.68 -6 2 C-4.02 2 -2.04 2 0 2 C0 1.34 0 0.68 0 0 Z " fill="#C2938F" transform="translate(18,62)"/>
<path d="M0 0 C2.64 0 5.28 0 8 0 C8 1.32 8 2.64 8 4 C4.04 4 0.08 4 -4 4 C-4 3.34 -4 2.68 -4 2 C-2.68 2 -1.36 2 0 2 C0 1.34 0 0.68 0 0 Z " fill="#C26057" transform="translate(204,66)"/>
<path d="M0 0 C5.28 0 10.56 0 16 0 C16 0.66 16 1.32 16 2 C13.36 2 10.72 2 8 2 C8 2.66 8 3.32 8 4 C6.68 4 5.36 4 4 4 C4 3.34 4 2.68 4 2 C2.68 2 1.36 2 0 2 C0 1.34 0 0.68 0 0 Z " fill="#FEE9E1" transform="translate(204,62)"/>
<path d="M0 0 C5.28 0 10.56 0 16 0 C16 0.66 16 1.32 16 2 C12.04 2 8.08 2 4 2 C4 2.66 4 3.32 4 4 C2.68 4 1.36 4 0 4 C0 2.68 0 1.36 0 0 Z " fill="#BD554B" transform="translate(216,30)"/>
<path d="M0 0 C0.66 0 1.32 0 2 0 C2 1.98 2 3.96 2 6 C2.66 6 3.32 6 4 6 C4 5.34 4 4.68 4 4 C4.66 4 5.32 4 6 4 C6 5.32 6 6.64 6 8 C5.34 8 4.68 8 4 8 C4 8.66 4 9.32 4 10 C3.34 10 2.68 10 2 10 C2 9.34 2 8.68 2 8 C0.68 8 -0.64 8 -2 8 C-2 7.34 -2 6.68 -2 6 C-1.34 6 -0.68 6 0 6 C0 4.02 0 2.04 0 0 Z " fill="#D38378" transform="translate(194,104)"/>
<path d="M0 0 C2.64 0 5.28 0 8 0 C8 0.66 8 1.32 8 2 C7.34 2 6.68 2 6 2 C6 2.66 6 3.32 6 4 C2.7 4 -0.6 4 -4 4 C-4 3.34 -4 2.68 -4 2 C-2.68 2 -1.36 2 0 2 C0 1.34 0 0.68 0 0 Z " fill="#F5C9C0" transform="translate(220,32)"/>
<path d="M0 0 C4.62 0 9.24 0 14 0 C14 0.66 14 1.32 14 2 C10.04 2 6.08 2 2 2 C2 2.66 2 3.32 2 4 C0.68 4 -0.64 4 -2 4 C-2 3.34 -2 2.68 -2 2 C-1.34 2 -0.68 2 0 2 C0 1.34 0 0.68 0 0 Z " fill="#FACDC6" transform="translate(214,20)"/>
<path d="M0 0 C2.64 0 5.28 0 8 0 C8 0.66 8 1.32 8 2 C3.07262981 3.97094808 -0.78020872 4.1799928 -6 4 C-6 3.34 -6 2.68 -6 2 C-4.02 2 -2.04 2 0 2 C0 1.34 0 0.68 0 0 Z " fill="#F5CBC3" transform="translate(200,38)"/>
<path d="M0 0 C0.66 0 1.32 0 2 0 C2 0.66 2 1.32 2 2 C2.66 2 3.32 2 4 2 C4 3.32 4 4.64 4 6 C4.66 6 5.32 6 6 6 C6 7.32 6 8.64 6 10 C4.68 10 3.36 10 2 10 C2 8.02 2 6.04 2 4 C1.34 4 0.68 4 0 4 C0 2.68 0 1.36 0 0 Z " fill="#F9D8D1" transform="translate(204,226)"/>
<path d="M0 0 C2.64 0 5.28 0 8 0 C8 0.66 8 1.32 8 2 C7.34 2 6.68 2 6 2 C6 2.66 6 3.32 6 4 C3.36 4 0.72 4 -2 4 C-2 3.34 -2 2.68 -2 2 C-1.34 2 -0.68 2 0 2 C0 1.34 0 0.68 0 0 Z " fill="#FEE9DE" transform="translate(180,222)"/>
<path d="M0 0 C0.66 0 1.32 0 2 0 C2 1.98 2 3.96 2 6 C-0.64 6 -3.28 6 -6 6 C-6 5.34 -6 4.68 -6 4 C-5.34 4 -4.68 4 -4 4 C-4 3.34 -4 2.68 -4 2 C-2.68 2 -1.36 2 0 2 C0 1.34 0 0.68 0 0 Z " fill="#B96155" transform="translate(182,216)"/>
<path d="M0 0 C1.32 0 2.64 0 4 0 C4 0.66 4 1.32 4 2 C6.64 2 9.28 2 12 2 C12 2.66 12 3.32 12 4 C8.04 4 4.08 4 0 4 C0 2.68 0 1.36 0 0 Z " fill="#FCE1D8" transform="translate(172,38)"/>
<path d="M0 0 C0.66 0 1.32 0 2 0 C2 0.66 2 1.32 2 2 C3.98 2 5.96 2 8 2 C8 2.66 8 3.32 8 4 C3.38 4 -1.24 4 -6 4 C-6 3.34 -6 2.68 -6 2 C-4.02 2 -2.04 2 0 2 C0 1.34 0 0.68 0 0 Z " fill="#DEB3AB" transform="translate(360,28)"/>
<path d="M0 0 C3.96 0 7.92 0 12 0 C12 0.66 12 1.32 12 2 C8.7 2 5.4 2 2 2 C2 2.66 2 3.32 2 4 C0.68 4 -0.64 4 -2 4 C-2 3.34 -2 2.68 -2 2 C-1.34 2 -0.68 2 0 2 C0 1.34 0 0.68 0 0 Z " fill="#F8D3CA" transform="translate(22,24)"/>
<path d="M0 0 C3.3 0 6.6 0 10 0 C10 1.32 10 2.64 10 4 C9.34 4 8.68 4 8 4 C8 3.34 8 2.68 8 2 C6.02 2 4.04 2 2 2 C1.67 2.99 1.34 3.98 1 5 C0.67 5 0.34 5 0 5 C0 3.35 0 1.7 0 0 Z " fill="#FEF6EA" transform="translate(166,108)"/>
<path d="M0 0 C1.32 0 2.64 0 4 0 C4 1.32 4 2.64 4 4 C3.34 4 2.68 4 2 4 C2 5.98 2 7.96 2 10 C1.34 10 0.68 10 0 10 C0 6.7 0 3.4 0 0 Z " fill="#FFDBD3" transform="translate(158,244)"/>
<path d="M0 0 C0.66 0 1.32 0 2 0 C2 1.32 2 2.64 2 4 C1.34 4 0.68 4 0 4 C0 5.32 0 6.64 0 8 C-1.32 8 -2.64 8 -4 8 C-4 6.68 -4 5.36 -4 4 C-3.34 4 -2.68 4 -2 4 C-2 3.34 -2 2.68 -2 2 C-1.34 2 -0.68 2 0 2 C0 1.34 0 0.68 0 0 Z " fill="#F9D3C3" transform="translate(174,226)"/>
<path d="M0 0 C1.32 0 2.64 0 4 0 C4 1.98 4 3.96 4 6 C3.34 6 2.68 6 2 6 C2 5.34 2 4.68 2 4 C1.34 4 0.68 4 0 4 C0 4.66 0 5.32 0 6 C-0.66 6 -1.32 6 -2 6 C-2 4.68 -2 3.36 -2 2 C-1.34 2 -0.68 2 0 2 C0 1.34 0 0.68 0 0 Z " fill="#C67065" transform="translate(166,228)"/>
<path d="M0 0 C0.66 0 1.32 0 2 0 C2 0.66 2 1.32 2 2 C3.32 2 4.64 2 6 2 C6 2.66 6 3.32 6 4 C5.34 4 4.68 4 4 4 C4 4.66 4 5.32 4 6 C2.02 6 0.04 6 -2 6 C-2 5.34 -2 4.68 -2 4 C-1.34 4 -0.68 4 0 4 C0 2.68 0 1.36 0 0 Z " fill="#C16E64" transform="translate(196,216)"/>
<path d="M0 0 C3.96 0 7.92 0 12 0 C12 0.66 12 1.32 12 2 C8.7 2 5.4 2 2 2 C2 2.66 2 3.32 2 4 C1.34 4 0.68 4 0 4 C0 2.68 0 1.36 0 0 Z " fill="#FFF8EB" transform="translate(200,108)"/>
<path d="M0 0 C1.98 0 3.96 0 6 0 C6 0.66 6 1.32 6 2 C7.32 2 8.64 2 10 2 C10 2.66 10 3.32 10 4 C7.36 4 4.72 4 2 4 C2 3.34 2 2.68 2 2 C1.34 2 0.68 2 0 2 C0 1.34 0 0.68 0 0 Z " fill="#B15B4E" transform="translate(330,22)"/>
<path d="M0 0 C2.64 0 5.28 0 8 0 C8 0.66 8 1.32 8 2 C9.32 2 10.64 2 12 2 C12 2.66 12 3.32 12 4 C10.02 4 8.04 4 6 4 C6 3.34 6 2.68 6 2 C4.02 2 2.04 2 0 2 C0 1.34 0 0.68 0 0 Z " fill="#E8ACA5" transform="translate(172,24)"/>
<path d="M0 0 C2.97 0 5.94 0 9 0 C7.75 2 7.75 2 6 4 C4.68 4 3.36 4 2 4 C2 3.34 2 2.68 2 2 C1.34 2 0.68 2 0 2 C0 1.34 0 0.68 0 0 Z " fill="#CC4439" transform="translate(304,58)"/>
<path d="M0 0 C1.32 0 2.64 0 4 0 C4 0.66 4 1.32 4 2 C3.34 2 2.68 2 2 2 C2 2.66 2 3.32 2 4 C-0.64 4 -3.28 4 -6 4 C-6 3.34 -6 2.68 -6 2 C-4.02 2 -2.04 2 0 2 C0 1.34 0 0.68 0 0 Z " fill="#F2CBC0" transform="translate(202,266)"/>
<path d="M0 0 C0.66 0 1.32 0 2 0 C2 0.66 2 1.32 2 2 C2.66 2 3.32 2 4 2 C4 3.32 4 4.64 4 6 C4.66 6 5.32 6 6 6 C6 6.66 6 7.32 6 8 C4.68 8 3.36 8 2 8 C2 6.68 2 5.36 2 4 C1.34 4 0.68 4 0 4 C0 2.68 0 1.36 0 0 Z " fill="#F4D5C8" transform="translate(166,258)"/>
<path d="M0 0 C1.32 0 2.64 0 4 0 C4 1.32 4 2.64 4 4 C3.34 4 2.68 4 2 4 C2 5.32 2 6.64 2 8 C1.34 8 0.68 8 0 8 C0 5.36 0 2.72 0 0 Z " fill="#FBDECE" transform="translate(206,250)"/>
<path d="M0 0 C1.32 0 2.64 0 4 0 C4 1.32 4 2.64 4 4 C3.34 4 2.68 4 2 4 C2 4.66 2 5.32 2 6 C1.34 6 0.68 6 0 6 C0 5.34 0 4.68 0 4 C-0.66 4 -1.32 4 -2 4 C-2 3.34 -2 2.68 -2 2 C-1.34 2 -0.68 2 0 2 C0 1.34 0 0.68 0 0 Z " fill="#B95A4F" transform="translate(170,224)"/>
<path d="M0 0 C2.64 0 5.28 0 8 0 C8 1.32 8 2.64 8 4 C6.68 4 5.36 4 4 4 C4 3.34 4 2.68 4 2 C2.68 2 1.36 2 0 2 C0 1.34 0 0.68 0 0 Z " fill="#FBDCD3" transform="translate(198,216)"/>
<path d="M0 0 C1.32 0 2.64 0 4 0 C4 0.66 4 1.32 4 2 C5.98 2 7.96 2 10 2 C10 2.66 10 3.32 10 4 C7.36 4 4.72 4 2 4 C2 3.34 2 2.68 2 2 C1.34 2 0.68 2 0 2 C0 1.34 0 0.68 0 0 Z " fill="#C56860" transform="translate(170,66)"/>
<path d="M0 0 C2.64 0 5.28 0 8 0 C8 0.66 8 1.32 8 2 C8.66 2 9.32 2 10 2 C10 2.66 10 3.32 10 4 C8.68 4 7.36 4 6 4 C6 3.34 6 2.68 6 2 C4.02 2 2.04 2 0 2 C0 1.34 0 0.68 0 0 Z " fill="#FBDED5" transform="translate(130,56)"/>
<path d="M0 0 C2.64 0 5.28 0 8 0 C8 0.66 8 1.32 8 2 C8.66 2 9.32 2 10 2 C10 2.66 10 3.32 10 4 C8.68 4 7.36 4 6 4 C6 3.34 6 2.68 6 2 C4.02 2 2.04 2 0 2 C0 1.34 0 0.68 0 0 Z " fill="#D47771" transform="translate(170,36)"/>
<path d="M0 0 C1.32 0 2.64 0 4 0 C4 0.66 4 1.32 4 2 C5.98 2 7.96 2 10 2 C10 2.66 10 3.32 10 4 C7.36 4 4.72 4 2 4 C2 3.34 2 2.68 2 2 C1.34 2 0.68 2 0 2 C0 1.34 0 0.68 0 0 Z " fill="#FCD4D2" transform="translate(152,32)"/>
<path d="M0 0 C2.64 0 5.28 0 8 0 C8 0.66 8 1.32 8 2 C8.66 2 9.32 2 10 2 C10 2.66 10 3.32 10 4 C8.68 4 7.36 4 6 4 C6 3.34 6 2.68 6 2 C4.02 2 2.04 2 0 2 C0 1.34 0 0.68 0 0 Z " fill="#CA766E" transform="translate(156,32)"/>
<path d="M0 0 C1.32 0 2.64 0 4 0 C4 0.66 4 1.32 4 2 C5.98 2 7.96 2 10 2 C10 2.66 10 3.32 10 4 C7.36 4 4.72 4 2 4 C2 3.34 2 2.68 2 2 C1.34 2 0.68 2 0 2 C0 1.34 0 0.68 0 0 Z " fill="#F8E1D5" transform="translate(344,28)"/>
<path d="M0 0 C3.3 0 6.6 0 10 0 C10 0.66 10 1.32 10 2 C6.33694766 2.74926071 3.57644848 3.2380014 0 2 C0 1.34 0 0.68 0 0 Z " fill="#FEE9DF" transform="translate(298,64)"/>
<path d="M0 0 C1.65 0 3.3 0 5 0 C4.67 0.66 4.34 1.32 4 2 C3.34 2 2.68 2 2 2 C2 2.66 2 3.32 2 4 C0.02 4 -1.96 4 -4 4 C-4 3.34 -4 2.68 -4 2 C-2.68 2 -1.36 2 0 2 C0 1.34 0 0.68 0 0 Z " fill="#BC4F44" transform="translate(56,20)"/>
<path d="M0 0 C1.98 0 3.96 0 6 0 C6 0.66 6 1.32 6 2 C5.34 2 4.68 2 4 2 C4 2.66 4 3.32 4 4 C2.68 4 1.36 4 0 4 C0 2.68 0 1.36 0 0 Z " fill="#B35146" transform="translate(198,264)"/>
<path d="M0 0 C0.66 0 1.32 0 2 0 C2 1.32 2 2.64 2 4 C1.34 4 0.68 4 0 4 C0 4.66 0 5.32 0 6 C-1.32 6 -2.64 6 -4 6 C-4 5.34 -4 4.68 -4 4 C-3.34 4 -2.68 4 -2 4 C-2 3.34 -2 2.68 -2 2 C-1.34 2 -0.68 2 0 2 C0 1.34 0 0.68 0 0 Z " fill="#FEDFDA" transform="translate(210,260)"/>
<path d="M0 0 C0.66 0 1.32 0 2 0 C2 1.98 2 3.96 2 6 C2.66 6 3.32 6 4 6 C4 6.66 4 7.32 4 8 C2.68 8 1.36 8 0 8 C0 5.36 0 2.72 0 0 Z " fill="#FADDD2" transform="translate(162,250)"/>
<path d="M0 0 C1.98 0 3.96 0 6 0 C6 0.66 6 1.32 6 2 C5.34 2 4.68 2 4 2 C4 3.32 4 4.64 4 6 C3.34 6 2.68 6 2 6 C2 4.68 2 3.36 2 2 C1.34 2 0.68 2 0 2 C0 1.34 0 0.68 0 0 Z " fill="#C06E60" transform="translate(208,230)"/>
<path d="M0 0 C0.66 0 1.32 0 2 0 C2 0.66 2 1.32 2 2 C3.32 2 4.64 2 6 2 C6 2.66 6 3.32 6 4 C3.36 4 0.72 4 -2 4 C-2 3.34 -2 2.68 -2 2 C-1.34 2 -0.68 2 0 2 C0 1.34 0 0.68 0 0 Z " fill="#EED4D4" transform="translate(10,64)"/>
<path d="M0 0 C1.32 0 2.64 0 4 0 C4 0.66 4 1.32 4 2 C3.34 2 2.68 2 2 2 C2 2.66 2 3.32 2 4 C0.02 4 -1.96 4 -4 4 C-4 3.34 -4 2.68 -4 2 C-2.68 2 -1.36 2 0 2 C0 1.34 0 0.68 0 0 Z " fill="#CCA0A1" transform="translate(16,28)"/>
<path d="M0 0 C2 0.66666667 4 1.33333333 6 2 C6 2.66 6 3.32 6 4 C4.02 4 2.04 4 0 4 C0 2.68 0 1.36 0 0 Z " fill="#F4CAC0" transform="translate(194,66)"/>
</svg>
