<?xml version="1.0" encoding="UTF-8"?>
<svg version="1.1" xmlns="http://www.w3.org/2000/svg" width="960" height="960">
<path d="M0 0 C316.8 0 633.6 0 960 0 C960 316.8 960 633.6 960 960 C643.2 960 326.4 960 0 960 C0 643.2 0 326.4 0 0 Z " fill="#C0CDE7" transform="translate(0,0)"/>
<path d="M0 0 C0 154.77 0 309.54 0 469 C-154.77 469 -309.54 469 -469 469 C-468.01 461.08 -468.01 461.08 -467 453 C-466.59909351 448.17953263 -466.59909351 448.17953263 -466.24609375 443.35546875 C-466 441 -466 441 -465 438 C-455.76 437.67 -446.52 437.34 -437 437 C-433.62112033 444.88405257 -433.62112033 444.88405257 -432.61328125 448.734375 C-432.39736328 449.55550781 -432.18144531 450.37664062 -431.95898438 451.22265625 C-431.74564453 452.05667969 -431.53230469 452.89070313 -431.3125 453.75 C-431.08755859 454.59949219 -430.86261719 455.44898438 -430.63085938 456.32421875 C-429 462.59980528 -429 462.59980528 -429 466 C-421.74 465.01 -414.48 464.02 -407 463 C-406.67 453.1 -406.34 443.2 -406 433 C-394.65497076 429.59649123 -394.65497076 429.59649123 -389.75 428.8125 C-388.31914063 428.57466797 -388.31914063 428.57466797 -386.859375 428.33203125 C-383.88075578 427.98615333 -380.99590547 427.94238643 -378 428 C-376.72376007 430.81015301 -375.45394354 433.62293459 -374.1875 436.4375 C-373.83107422 437.22060547 -373.47464844 438.00371094 -373.10742188 438.81054688 C-370.72810432 444.11489702 -368.73042987 449.45017529 -367 455 C-366.43490723 454.84853516 -365.86981445 454.69707031 -365.28759766 454.54101562 C-362.73407552 453.85811524 -360.17955836 453.17901336 -357.625 452.5 C-356.73554687 452.26152344 -355.84609375 452.02304687 -354.9296875 451.77734375 C-354.07890625 451.55175781 -353.228125 451.32617188 -352.3515625 451.09375 C-351.56604004 450.88427734 -350.78051758 450.67480469 -349.97119141 450.45898438 C-348 450 -348 450 -346 450 C-346.06058594 449.34515625 -346.12117187 448.6903125 -346.18359375 448.015625 C-346.45946538 445.01074635 -346.72977043 442.00539108 -347 439 C-347.09539062 437.97003906 -347.19078125 436.94007813 -347.2890625 435.87890625 C-347.79321351 430.22521274 -348.109151 424.67585202 -348 419 C-344.44506689 417.62535429 -340.88006784 416.27897717 -337.3125 414.9375 C-335.80139648 414.35258789 -335.80139648 414.35258789 -334.25976562 413.75585938 C-333.28330078 413.39169922 -332.30683594 413.02753906 -331.30078125 412.65234375 C-330.40528564 412.31195068 -329.50979004 411.97155762 -328.5871582 411.62084961 C-325.64374276 410.91450768 -323.87022683 411.08830636 -321 412 C-319.4453125 413.86328125 -319.4453125 413.86328125 -318.125 416.3125 C-317.3825 417.65248047 -317.3825 417.65248047 -316.625 419.01953125 C-316.08875 420.00308594 -315.5525 420.98664063 -315 422 C-313.71176205 424.16870703 -312.42011042 426.33539005 -311.125 428.5 C-308 433.74891775 -308 433.74891775 -308 436 C-306.81921875 435.57847656 -305.6384375 435.15695312 -304.421875 434.72265625 C-302.86461798 434.16917333 -301.3073244 433.6157933 -299.75 433.0625 C-298.97269531 432.78470703 -298.19539062 432.50691406 -297.39453125 432.22070312 C-296.64042969 431.95322266 -295.88632812 431.68574219 -295.109375 431.41015625 C-294.41811523 431.16402588 -293.72685547 430.91789551 -293.01464844 430.66430664 C-291.02604347 430.00858753 -289.03714797 429.48132614 -287 429 C-288.63671306 421.15306361 -290.356106 413.36024398 -292.44921875 405.62109375 C-293.00827177 402.96063574 -293.25252256 400.70760304 -293 398 C-289.97019212 395.61287864 -286.51814269 394.34306668 -282.9609375 392.8984375 C-279.89361309 391.49308966 -277.06539177 389.68367569 -274.2109375 387.890625 C-272 387 -272 387 -269.63671875 386.875 C-265.39677154 388.68404415 -263.19017611 392.15156495 -260.4375 395.75 C-259.87353516 396.46671875 -259.30957031 397.1834375 -258.72851562 397.921875 C-257.6364252 399.31157603 -256.54944574 400.70531265 -255.46826172 402.10351562 C-253.67194731 404.42373017 -251.84013785 406.7144498 -250 409 C-246.14308372 407.14945936 -242.45576705 405.00656926 -238.75 402.875 C-238.1003125 402.50246094 -237.450625 402.12992188 -236.78125 401.74609375 C-235.18693776 400.83170879 -233.5933921 399.91598744 -232 399 C-232.72845406 394.40444414 -234.28478565 390.26150805 -235.9375 385.9375 C-236.20240234 385.23044922 -236.46730469 384.52339844 -236.74023438 383.79492188 C-238.28373629 379.707699 -238.28373629 379.707699 -240.25390625 375.81640625 C-241.32956725 373.19765042 -240.8205938 371.67859465 -240 369 C-238.29760742 367.34667969 -238.29760742 367.34667969 -236.10546875 365.921875 C-235.31462891 365.40109375 -234.52378906 364.8803125 -233.70898438 364.34375 C-232.46084961 363.55484375 -232.46084961 363.55484375 -231.1875 362.75 C-230.36701172 362.20859375 -229.54652344 361.6671875 -228.70117188 361.109375 C-221.51416439 356.44627201 -221.51416439 356.44627201 -218 356 C-213.23245994 359.17836004 -209.36414148 363.54127244 -205.46484375 367.7109375 C-204.63082031 368.59007812 -203.79679687 369.46921875 -202.9375 370.375 C-202.10089844 371.26960938 -201.26429688 372.16421875 -200.40234375 373.0859375 C-199.60957031 373.71757813 -198.81679688 374.34921875 -198 375 C-193.58954417 374.4621665 -190.61286877 371.62409956 -187.25 368.9375 C-186.64800781 368.46505859 -186.04601562 367.99261719 -185.42578125 367.50585938 C-183.94590057 366.34309599 -182.47231904 365.1723234 -181 364 C-181.5828164 358.92547788 -183.95843868 354.9635476 -186.375 350.5625 C-187.1750684 349.08495433 -187.97455843 347.60709531 -188.7734375 346.12890625 C-189.15338867 345.42910645 -189.53333984 344.72930664 -189.92480469 344.00830078 C-191.33927521 341.36628568 -192.67864563 338.68959552 -194 336 C-180.3667426 323.33029613 -180.3667426 323.33029613 -174 318 C-170.37069234 319.62454724 -167.40643788 321.84587374 -164.25 324.25 C-163.18750808 325.05600024 -162.12500805 325.86198978 -161.0625 326.66796875 C-160.051875 327.43753906 -159.04125 328.20710938 -158 329 C-156.41782511 330.18904302 -154.8346906 331.37681185 -153.25 332.5625 C-152.16666667 333.375 -151.08333333 334.1875 -150 335 C-146.02685079 333.37849996 -143.20699562 330.64417127 -140.1875 327.6875 C-139.67251953 327.21376953 -139.15753906 326.74003906 -138.62695312 326.25195312 C-135.70249844 323.39081402 -135.70249844 323.39081402 -134.91015625 319.51171875 C-136.29628387 316.31716657 -138.10034864 313.86544958 -140.25 311.125 C-141.06520037 310.06387598 -141.88030506 309.00267845 -142.6953125 307.94140625 C-144.03404356 306.23282238 -145.37953477 304.52941092 -146.7421875 302.83984375 C-150.03197121 298.61144943 -150.03197121 298.61144943 -149.875 295.609375 C-148.78654855 292.36345728 -147.23273125 290.66111974 -144.875 288.1875 C-144.06933594 287.32769531 -143.26367188 286.46789062 -142.43359375 285.58203125 C-141.63050781 284.72996094 -140.82742188 283.87789062 -140 283 C-138.63813911 281.46512593 -137.28306082 279.92418352 -135.9375 278.375 C-135.36902344 277.72273438 -134.80054688 277.07046875 -134.21484375 276.3984375 C-133.81394531 275.93695312 -133.41304687 275.47546875 -133 275 C-130.06415789 276.43692044 -127.21567129 277.9851789 -124.375 279.6015625 C-123.50359375 280.09140625 -122.6321875 280.58125 -121.734375 281.0859375 C-119.90810932 282.11386418 -118.08518581 283.14775096 -116.265625 284.1875 C-115.39421875 284.67476562 -114.5228125 285.16203125 -113.625 285.6640625 C-112.83351563 286.11217285 -112.04203125 286.5602832 -111.2265625 287.02197266 C-108.79493833 288.26811107 -108.79493833 288.26811107 -105 288 C-102.84983168 285.6706933 -102.84983168 285.6706933 -100.9375 282.6875 C-97.16197595 277.14378427 -97.16197595 277.14378427 -95.19140625 275.39453125 C-94.79824219 274.93433594 -94.40507813 274.47414063 -94 274 C-94.36266156 270.12712628 -96.30105925 268.4192745 -99.0703125 265.84765625 C-99.88371094 265.07099609 -100.69710938 264.29433594 -101.53515625 263.49414062 C-103.26393196 261.87096886 -104.99834198 260.25377749 -106.73828125 258.64257812 C-107.54910156 257.86462891 -108.35992188 257.08667969 -109.1953125 256.28515625 C-109.94828613 255.58269775 -110.70125977 254.88023926 -111.47705078 254.15649414 C-113 252 -113 252 -112.87402344 249.45898438 C-112.05354649 247.15064811 -111.19839375 245.38532072 -109.8203125 243.37109375 C-109.38589844 242.72849609 -108.95148438 242.08589844 -108.50390625 241.42382812 C-108.04886719 240.76833984 -107.59382813 240.11285156 -107.125 239.4375 C-106.67769531 238.77814453 -106.23039062 238.11878906 -105.76953125 237.43945312 C-103.58626277 234.23539392 -101.36309189 231.07514937 -99 228 C-93.19109647 228.61348156 -88.21491898 230.77697696 -82.875 233 C-81.10252302 233.73149843 -79.32911784 234.46075275 -77.5546875 235.1875 C-76.38655518 235.67283203 -76.38655518 235.67283203 -75.19482422 236.16796875 C-73.14341885 236.94563165 -71.13795739 237.51800107 -69 238 C-68.74476563 237.14148438 -68.48953125 236.28296875 -68.2265625 235.3984375 C-66.94321828 231.84267486 -65.31784652 228.86307753 -63.375 225.625 C-62.74335937 224.56539062 -62.11171875 223.50578125 -61.4609375 222.4140625 C-60.97882813 221.61742187 -60.49671875 220.82078125 -60 220 C-66.97565174 212.84806825 -74.78001327 206.66265752 -83 201 C-81.48611133 195.97735894 -79.36904087 191.46903867 -77 186.8125 C-76.46632813 185.74612305 -76.46632813 185.74612305 -75.921875 184.65820312 C-74.39793609 181.63591383 -72.88290631 178.82435946 -71 176 C-51 178 -51 178 -48 181 C-45.66702567 181.04092937 -43.33294775 181.04241723 -41 181 C-39.79525057 178.61153168 -38.61135042 176.21609848 -37.4375 173.8125 C-37.09525391 173.13896484 -36.75300781 172.46542969 -36.40039062 171.77148438 C-35.92182617 170.78051758 -35.92182617 170.78051758 -35.43359375 169.76953125 C-35.13509521 169.16729736 -34.83659668 168.56506348 -34.52905273 167.94458008 C-33.78496273 165.20961151 -34.02075121 163.66036259 -35 161 C-37.24040255 159.1225036 -37.24040255 159.1225036 -40.12890625 157.66796875 C-41.68061523 156.81235352 -41.68061523 156.81235352 -43.26367188 155.93945312 C-44.35228516 155.36130859 -45.44089844 154.78316406 -46.5625 154.1875 C-47.65498047 153.59001953 -48.74746094 152.99253906 -49.87304688 152.37695312 C-52.57414367 150.90255531 -55.28284551 149.44452708 -58 148 C-58.10139002 144.40129184 -58.07950333 141.45207886 -56.7578125 138.08984375 C-56.49613281 137.40986328 -56.23445313 136.72988281 -55.96484375 136.02929688 C-55.54912109 134.99385742 -55.54912109 134.99385742 -55.125 133.9375 C-54.72087891 132.89625977 -54.72087891 132.89625977 -54.30859375 131.83398438 C-53.54969137 129.88490094 -52.77788252 127.94157389 -52 126 C-51.60554688 125.01128906 -51.21109375 124.02257812 -50.8046875 123.00390625 C-50.53914063 122.34261719 -50.27359375 121.68132812 -50 121 C-49.1028125 121.06058594 -48.205625 121.12117187 -47.28125 121.18359375 C-37.85580072 121.81650098 -28.42870309 122.41767537 -19 123 C-18.83564453 121.98292969 -18.83564453 121.98292969 -18.66796875 120.9453125 C-17.56212481 114.4540985 -16.03701908 108.26043863 -14 102 C-14.81210937 101.7421875 -15.62421875 101.484375 -16.4609375 101.21875 C-20.58595486 99.79821422 -24.59665708 98.17148257 -28.625 96.5 C-29.37523437 96.19191406 -30.12546875 95.88382813 -30.8984375 95.56640625 C-34.33073196 94.14845482 -37.69055811 92.68922305 -41 91 C-41.14107545 87.47311363 -41.19587868 84.5795083 -40.05859375 81.21484375 C-38.8990176 77.6933265 -38.39934498 74.36285461 -37.9375 70.6875 C-37.10526316 64.10526316 -37.10526316 64.10526316 -36 63 C-33.78312006 62.84126045 -31.56144702 62.74866163 -29.33984375 62.68359375 C-28.67537735 62.66281265 -28.01091095 62.64203156 -27.3263092 62.62062073 C-25.19681457 62.55506342 -23.06719332 62.49621215 -20.9375 62.4375 C-19.49673153 62.39432061 -18.05597601 62.35070651 -16.61523438 62.30664062 C-13.07695097 62.19855473 -9.53857603 62.09952907 -6 62 C-4.515 51.11 -4.515 51.11 -3 40 C-5.2584375 39.62875 -5.2584375 39.62875 -7.5625 39.25 C-15.8213908 37.75717058 -24.03794314 35.65401895 -32 33 C-32.34057669 23.18003888 -31.28846906 13.70953473 -30 4 C-29.03320312 3.87882812 -28.06640625 3.75765625 -27.0703125 3.6328125 C-20.36491314 2.7697413 -13.74691959 1.87210447 -7.1484375 0.3671875 C-5 0 -5 0 0 0 Z " fill="#FDFEFE" transform="translate(960,491)"/>
<path d="M0 0 C154.77 0 309.54 0 469 0 C469 154.77 469 309.54 469 469 C439.1 465.1 439.1 465.1 438 464 C437.75729583 461.36920666 437.57389052 458.76179007 437.4375 456.125 C437.3950415 455.35937744 437.35258301 454.59375488 437.30883789 453.80493164 C436.9988834 447.86715158 436.88442346 441.94577102 437 436 C446.33333333 433.33333333 455.66666667 430.66666667 465 428 C464.85621657 426.02068336 464.70985226 424.04155416 464.5625 422.0625 C464.48128906 420.96035156 464.40007812 419.85820312 464.31640625 418.72265625 C463.95533076 414.47444711 463.47082771 410.23744943 463 406 C453.1 406 443.2 406 433 406 C431.49524348 401.48573043 430.57135589 397.8734194 429.9375 393.25 C429.43705256 388.9803039 429.43705256 388.9803039 428 385 C427.95977609 382.6670134 427.95679753 380.33293334 428 378 C432.94161847 375.48584323 437.87364463 373.1212505 443 371 C443.85464844 370.64550781 444.70929688 370.29101562 445.58984375 369.92578125 C452.74517544 367 452.74517544 367 455 367 C453.35 360.4 451.7 353.8 450 347 C439.59201975 346.90789398 429.37461857 347.16526058 419 348 C417.65649992 344.25356427 416.32698339 340.50231451 415 336.75 C414.6184375 335.68652344 414.236875 334.62304688 413.84375 333.52734375 C413.4828125 332.50253906 413.121875 331.47773438 412.75 330.421875 C412.41484375 329.47924805 412.0796875 328.53662109 411.734375 327.56542969 C411 325 411 325 411 321 C412.66479492 319.58374023 412.66479492 319.58374023 414.98046875 318.30859375 C415.81513672 317.83873047 416.64980469 317.36886719 417.50976562 316.88476562 C418.39341797 316.40716797 419.27707031 315.92957031 420.1875 315.4375 C421.91017111 314.47789126 423.63282777 313.51825658 425.35546875 312.55859375 C426.56855713 311.8931958 426.56855713 311.8931958 427.80615234 311.21435547 C430.24022739 309.86702749 432.63014701 308.4572388 435 307 C434.41161801 302.15888235 432.92346884 298.03928805 430.9375 293.625 C430.65583984 292.98433594 430.37417969 292.34367187 430.08398438 291.68359375 C429.39540579 290.11970341 428.69855289 288.55946059 428 287 C421.39097936 287.77595789 415.16372856 289.49123872 408.76367188 291.27148438 C407.95091797 291.49255859 407.13816406 291.71363281 406.30078125 291.94140625 C405.57028564 292.14451416 404.83979004 292.34762207 404.0871582 292.55688477 C402 293 402 293 398 293 C396.12654604 289.25933545 394.27967592 285.50615406 392.4375 281.75 C391.90447266 280.68652344 391.37144531 279.62304688 390.82226562 278.52734375 C390.32275391 277.50253906 389.82324219 276.47773438 389.30859375 275.421875 C388.84251709 274.47924805 388.37644043 273.53662109 387.89624023 272.56542969 C386.92124826 269.77457824 386.81426086 268.67565405 388 266 C390.40625 263.88671875 390.40625 263.88671875 393.5 261.6875 C394.5890847 260.90179383 395.67762053 260.11532633 396.765625 259.328125 C397.83296875 258.55984375 398.9003125 257.7915625 400 257 C401.75715873 255.65513549 403.50815004 254.30213405 405.25 252.9375 C405.97703125 252.36902344 406.7040625 251.80054688 407.453125 251.21484375 C407.96359375 250.81394531 408.4740625 250.41304687 409 250 C407.10698464 244.82767014 404.29975786 240.34306862 401.4609375 235.64453125 C400 233 400 233 400 231 C392.08286939 233.46504066 384.62109167 236.40556216 377.12890625 239.92578125 C373.67688599 241.11093178 372.31742218 241.51684764 369 240 C367.25213351 237.77463878 365.85100808 235.73248504 364.4375 233.3125 C363.68661142 232.07917523 362.93531259 230.84610014 362.18359375 229.61328125 C361.82507324 229.00693848 361.46655273 228.4005957 361.09716797 227.77587891 C360.03663491 226.05929736 358.84942726 224.42300465 357.66015625 222.79296875 C356 220 356 220 356.1418457 218.0871582 C357.28065025 215.31741707 358.88759514 213.85783703 361.0703125 211.8125 C361.88371094 211.03132812 362.69710938 210.25015625 363.53515625 209.4453125 C365.26585346 207.8112002 367.00025476 206.18100228 368.73828125 204.5546875 C369.54910156 203.77351562 370.35992188 202.99234375 371.1953125 202.1875 C371.94828613 201.47980469 372.70125977 200.77210938 373.47705078 200.04296875 C375.23007711 198.1483108 375.23007711 198.1483108 374.88061523 195.94042969 C373.40718652 192.69373952 371.14859309 190.0176681 368.9375 187.25 C368.46505859 186.64800781 367.99261719 186.04601562 367.50585938 185.42578125 C366.34309599 183.94590057 365.1723234 182.47231904 364 181 C356.96029791 181.43497346 351.69351072 185.56962756 345.90039062 189.2265625 C345.08634766 189.7215625 344.27230469 190.2165625 343.43359375 190.7265625 C342.33615845 191.41613037 342.33615845 191.41613037 341.21655273 192.11962891 C338.35107581 193.25773991 336.89275882 192.99777602 334 192 C332.39428711 190.66479492 332.39428711 190.66479492 331.02734375 188.98046875 C330.52009766 188.37009766 330.01285156 187.75972656 329.49023438 187.13085938 C328.72163086 186.16889648 328.72163086 186.16889648 327.9375 185.1875 C326.90637868 183.9298152 325.87385847 182.6732758 324.83984375 181.41796875 C324.35628418 180.82677246 323.87272461 180.23557617 323.37451172 179.62646484 C321.6911483 177.63453463 319.88822393 175.79766163 318 174 C319.6132123 168.66154088 323.09590439 164.73877049 326.5 160.4375 C327.68016231 158.93861707 328.85735894 157.43739324 330.03125 155.93359375 C330.55267578 155.27415771 331.07410156 154.61472168 331.61132812 153.93530273 C333.25699442 151.7494985 333.25699442 151.7494985 335 148 C330.38 143.38 325.76 138.76 321 134 C316.92005488 135.63197805 314.94780918 136.61739438 311.75 139.29296875 C310.9765625 139.92267578 310.203125 140.55238281 309.40625 141.20117188 C307.796315 142.53015231 306.19215989 143.86616438 304.59375 145.20898438 C303.8203125 145.83482422 303.046875 146.46066406 302.25 147.10546875 C301.20585938 147.97401489 301.20585938 147.97401489 300.140625 148.86010742 C298 150 298 150 295.44750977 149.8581543 C292.86131284 148.95137303 291.54031326 148.06135609 289.58984375 146.1640625 C288.99236328 145.59429687 288.39488281 145.02453125 287.77929688 144.4375 C287.17150391 143.839375 286.56371094 143.24125 285.9375 142.625 C284.71901959 141.44889036 283.49901023 140.27436232 282.27734375 139.1015625 C281.71128418 138.55661133 281.14522461 138.01166016 280.56201172 137.45019531 C278.80498242 135.81894273 276.97027684 134.36592759 275 133 C276.30136546 129.5769915 277.79315235 126.42485996 279.6015625 123.2421875 C280.09140625 122.36949219 280.58125 121.49679688 281.0859375 120.59765625 C282.11721888 118.77328284 283.15110109 116.95037733 284.1875 115.12890625 C284.67476562 114.25878906 285.16203125 113.38867188 285.6640625 112.4921875 C286.11217285 111.70183105 286.5602832 110.91147461 287.02197266 110.09716797 C288.21132721 107.93252318 288.21132721 107.93252318 288 105 C286.02052798 102.78634584 283.59242398 101.06723765 281.25 99.25 C280.61578125 98.73050781 279.9815625 98.21101563 279.328125 97.67578125 C278.709375 97.18980469 278.090625 96.70382813 277.453125 96.203125 C276.88754883 95.75614258 276.32197266 95.30916016 275.73925781 94.84863281 C274.00059911 93.80248719 274.00059911 93.80248719 271.88671875 94.27587891 C269.56168192 95.16822612 268.43625259 96.29959064 266.75 98.125 C263.59002997 101.43447399 260.26467415 104.4355285 256.80078125 107.421875 C254.7757781 109.19649815 252.86454143 111.05776935 251 113 C247.55044666 111.72199484 244.61909971 110.23881563 241.57421875 108.1796875 C240.77822266 107.64472656 239.98222656 107.10976562 239.16210938 106.55859375 C238.34548828 106.00300781 237.52886719 105.44742188 236.6875 104.875 C235.85154297 104.31167969 235.01558594 103.74835938 234.15429688 103.16796875 C232.10000948 101.78279211 230.04872962 100.39337781 228 99 C228.56768748 93.16759443 230.23493518 88.28496573 232.4375 82.875 C232.90639648 81.69744141 232.90639648 81.69744141 233.38476562 80.49609375 C234.24951153 78.32783024 235.12343462 76.16350583 236 74 C236.66703408 72.33348035 237.33391047 70.66689741 238 69 C237.12730469 68.74347656 236.25460937 68.48695312 235.35546875 68.22265625 C231.94544035 66.98011971 229.32289602 65.44862928 226.3125 63.4375 C223.48186691 61.5543264 221.23015525 60.07671842 218 59 C217.72599365 59.58716797 217.4519873 60.17433594 217.16967773 60.77929688 C216.03774201 62.92834453 214.81410622 64.65058686 213.28515625 66.53125 C212.76373047 67.17707031 212.24230469 67.82289062 211.70507812 68.48828125 C211.16302734 69.15214844 210.62097656 69.81601563 210.0625 70.5 C208.99037424 71.82250243 207.91874487 73.14540746 206.84765625 74.46875 C206.35023926 75.08234375 205.85282227 75.6959375 205.34033203 76.328125 C203.84981776 78.18733114 202.40767836 80.07731737 201 82 C196.13457978 81.3823197 192.28679943 79.29685579 188 77.0625 C181.62001105 73.77101703 181.62001105 73.77101703 175 71 C175.75138122 64.61325967 175.75138122 64.61325967 176.9375 61.6875 C178.24052174 58.39162148 178.8347387 55.12352401 179.4921875 51.6484375 C180.24059806 47.74518857 181.12465004 43.87654983 182 40 C181.40574219 39.82984375 180.81148437 39.6596875 180.19921875 39.484375 C173.69575882 37.58289682 167.34440732 35.37613734 161 33 C160.72816895 33.72469482 160.45633789 34.44938965 160.17626953 35.19604492 C159.03066687 37.92689727 157.71386845 40.33351479 156.1796875 42.86328125 C155.64472656 43.74951172 155.10976563 44.63574219 154.55859375 45.54882812 C154.00300781 46.46083984 153.44742188 47.37285156 152.875 48.3125 C152.03001953 49.70952148 152.03001953 49.70952148 151.16796875 51.13476562 C149.7819554 53.42521142 148.39254372 55.71352076 147 58 C141.23934889 57.32058766 136.04884675 55.39116805 130.625 53.4375 C129.69816406 53.10814453 128.77132812 52.77878906 127.81640625 52.43945312 C125.54264353 51.6307437 123.2706187 50.81748642 121 50 C120.8608278 42.88868736 121.26507455 35.94617463 122 28.875 C122.09539062 27.91851563 122.19078125 26.96203125 122.2890625 25.9765625 C122.5216625 23.65056246 122.75869679 21.32511041 123 19 C121.96359375 18.86722656 120.9271875 18.73445313 119.859375 18.59765625 C116.53351611 18.0826194 113.47291393 17.37979263 110.25 16.4375 C107.2916989 15.57397356 105.09404996 15 102 15 C98.10365059 23.5719687 94.56190008 32.2853512 91 41 C84.52476063 40.37926565 78.2874862 39.33118002 71.9375 37.9375 C68.988125 37.298125 66.03875 36.65875 63 36 C62.67 26.1 62.34 16.2 62 6 C50.86162169 4.27332819 50.86162169 4.27332819 40 4 C39.79318604 4.77714355 39.58637207 5.55428711 39.37329102 6.35498047 C38.4385956 9.86225373 37.50059074 13.36863343 36.5625 16.875 C36.23701172 18.09832031 35.91152344 19.32164063 35.57617188 20.58203125 C35.10727539 22.33193359 35.10727539 22.33193359 34.62890625 24.1171875 C34.1968689 25.73536377 34.1968689 25.73536377 33.75610352 27.38623047 C33 30 33 30 32 32 C28.83308393 31.85929844 25.66653622 31.71148731 22.5 31.5625 C21.613125 31.52318359 20.72625 31.48386719 19.8125 31.44335938 C14.50009226 31.18945753 9.24491292 30.90823607 4 30 C2.88371345 27.76742689 2.73044449 26.18975889 2.5 23.7109375 C2.4175 22.85113281 2.335 21.99132812 2.25 21.10546875 C2.1675 20.20441406 2.085 19.30335937 2 18.375 C1.83430369 16.6118877 1.6676484 14.84886525 1.5 13.0859375 C1.4278125 12.3026709 1.355625 11.5194043 1.28125 10.71240234 C0.91034206 7.13533012 0.44605999 3.56847991 0 0 Z " fill="#FEFEFE" transform="translate(491,0)"/>
<path d="M0 0 C26 3 26 3 30 4 C30.66 13.24 31.32 22.48 32 32 C28.52192469 33.39123012 25.34718434 34.53152495 21.76953125 35.5078125 C20.31836914 35.90419922 20.31836914 35.90419922 18.83789062 36.30859375 C17.83951172 36.57800781 16.84113281 36.84742188 15.8125 37.125 C14.80251953 37.40214844 13.79253906 37.67929687 12.75195312 37.96484375 C5.25796644 40 5.25796644 40 3 40 C3.2165625 41.485 3.2165625 41.485 3.4375 43 C3.62528772 44.33329284 3.81277137 45.66662853 4 47 C4.185625 48.299375 4.37125 49.59875 4.5625 50.9375 C5.14895044 55.04265306 5 58.71123416 5 63 C15.23 63 25.46 63 36 63 C36.9590625 67.9809375 36.9590625 67.9809375 37.9375 73.0625 C38.13722412 74.09511963 38.33694824 75.12773926 38.54272461 76.19165039 C39.48578818 81.11696022 40.34487921 86.02797804 41 91 C40.46109131 91.2266333 39.92218262 91.4532666 39.36694336 91.68676758 C36.89035999 92.72843548 34.41392908 93.77046536 31.9375 94.8125 C31.08994141 95.16892578 30.24238281 95.52535156 29.36914062 95.89257812 C24.57201205 97.91144691 19.78113291 99.94352899 15 102 C15.57021375 108.95660771 17.01302694 115.31427305 19 122 C29.3734499 122.16494885 39.6510926 121.65043638 50 121 C50.24234375 121.82242188 50.4846875 122.64484375 50.734375 123.4921875 C52.62741042 129.79745162 54.64194221 135.87982056 57.36328125 141.87890625 C58.1503235 144.50077092 58.05905665 145.47571777 57 148 C54.68334961 149.73925781 54.68334961 149.73925781 51.65234375 151.453125 C50.57275391 152.071875 49.49316406 152.690625 48.38085938 153.328125 C47.24455078 153.96234375 46.10824219 154.5965625 44.9375 155.25 C43.22723633 156.22453125 43.22723633 156.22453125 41.48242188 157.21875 C38.66125626 158.82409947 35.83384384 160.41717217 33 162 C34.78290152 167.53127729 36.72032301 172.80876493 39.23046875 178.0546875 C40 180 40 180 40 183 C40.75023437 182.73445312 41.50046875 182.46890625 42.2734375 182.1953125 C51.84018376 178.89394162 60.96902652 177.0601178 71 176 C72.65189537 179.41376807 74.29544896 182.8314872 75.9375 186.25 C76.40607422 187.21808594 76.87464844 188.18617188 77.35742188 189.18359375 C78.0293457 190.58544922 78.0293457 190.58544922 78.71484375 192.015625 C79.12855225 192.87446289 79.54226074 193.73330078 79.96850586 194.61816406 C80.89146077 196.74937071 81.52057857 198.73364413 82 201 C79.43775794 203.08365072 76.87515983 205.16686311 74.3125 207.25 C73.59126953 207.83652344 72.87003906 208.42304687 72.12695312 209.02734375 C70.72084988 210.17020392 69.3134952 211.31152644 67.90478516 212.45117188 C66.29381733 213.76108983 64.69789612 215.08947963 63.10546875 216.421875 C61 218 61 218 59 218 C62.78702994 226.03820272 62.78702994 226.03820272 67.375 233.625 C69 236 69 236 69 238 C71.48054042 237.08691764 73.95959552 236.17019202 76.4375 235.25 C77.1694458 234.97921631 77.9013916 234.70843262 78.65551758 234.42944336 C82.58870947 232.95890801 86.40551666 231.39560417 90.1875 229.5625 C92.7240967 228.41476233 93.97242267 228.00061283 96.8125 227.9375 C102.4341285 230.66800527 105.65275664 237.89858632 109 243 C109.79054709 244.18824562 110.58203599 245.37586592 111.375 246.5625 C111.91125 247.366875 112.4475 248.17125 113 249 C111.58261511 252.25207092 109.87473588 254.31361067 107.3125 256.75 C103.83243503 260.13498123 100.60262588 263.6499577 97.4453125 267.3359375 C96.34597202 268.60166464 95.1854566 269.8145434 94 271 C94.52904899 275.39149605 97.36633979 278.30208453 100.0625 281.625 C105 287.74130286 105 287.74130286 105 290 C105.73637695 289.57589844 106.47275391 289.15179687 107.23144531 288.71484375 C109.97090438 287.14252729 112.71461443 285.57798579 115.46142578 284.01855469 C116.64840488 283.34259553 117.83365039 282.66358256 119.01708984 281.98144531 C120.72032007 281.00040758 122.4304024 280.03129662 124.140625 279.0625 C125.16704102 278.47597656 126.19345703 277.88945313 127.25097656 277.28515625 C130 276 130 276 134 276 C135.4921875 277.22167969 135.4921875 277.22167969 136.875 278.921875 C137.64070313 279.84226562 137.64070313 279.84226562 138.421875 280.78125 C138.94265625 281.4309375 139.4634375 282.080625 140 282.75 C141.04022574 284.01680957 142.08186058 285.28246358 143.125 286.546875 C143.61355469 287.15080078 144.10210937 287.75472656 144.60546875 288.37695312 C146.08437577 290.17475198 146.08437577 290.17475198 148.4375 292.140625 C149.2109375 293.06101562 149.2109375 293.06101562 150 294 C149.64005512 297.81785999 148.50889349 300.07492502 146.12890625 303.03125 C145.26749023 304.12373047 145.26749023 304.12373047 144.38867188 305.23828125 C143.78603516 305.98464844 143.18339844 306.73101563 142.5625 307.5 C137.36601156 313.71564743 137.36601156 313.71564743 134 321 C134.680625 321.680625 135.36125 322.36125 136.0625 323.0625 C136.73732422 323.73925781 136.73732422 323.73925781 137.42578125 324.4296875 C138.56392986 325.56501192 139.70791175 326.69449869 140.85546875 327.8203125 C141.48066406 328.43648437 142.10585937 329.05265625 142.75 329.6875 C143.34296875 330.26886719 143.9359375 330.85023438 144.546875 331.44921875 C146 333 146 333 147 335 C153.17739284 333.14923349 157.83398546 328.59011105 162.76171875 324.61132812 C163.49003906 324.03705078 164.21835938 323.46277344 164.96875 322.87109375 C165.95004883 322.08109985 165.95004883 322.08109985 166.95117188 321.27514648 C169.34433326 319.7856944 171.19859792 319.25610046 174 319 C176.359375 320.625 176.359375 320.625 178.75 323 C183.28046655 327.34679899 187.98343153 331.23151499 193 335 C192.4156356 338.85250827 191.28412442 341.62648283 189.3125 344.9765625 C188.77882812 345.894375 188.24515625 346.8121875 187.6953125 347.7578125 C186.85613281 349.17707031 186.85613281 349.17707031 186 350.625 C184.89350205 352.5116555 183.78923149 354.39961961 182.6875 356.2890625 C182.19636719 357.12131348 181.70523438 357.95356445 181.19921875 358.81103516 C179.8783181 361.06758383 179.8783181 361.06758383 179 364 C179.53625 364.23332031 180.0725 364.46664063 180.625 364.70703125 C184.26716228 366.68985315 187.38186535 369.35574314 190.578125 371.98632812 C193.41574734 374.35036034 193.41574734 374.35036034 196.91796875 374.86694336 C199.67797319 373.71769667 201.14536428 372.10898853 203.1875 369.9296875 C203.96867188 369.11628906 204.74984375 368.30289062 205.5546875 367.46484375 C207.1887998 365.73414654 208.81899772 363.99974524 210.4453125 362.26171875 C211.22648438 361.45089844 212.00765625 360.64007812 212.8125 359.8046875 C213.52019531 359.05171387 214.22789062 358.29874023 214.95703125 357.52294922 C217 356 217 356 218.96386719 356.07836914 C221.3943841 357.17851319 223.53783712 358.47049502 225.765625 359.94140625 C227.09980469 360.81635742 227.09980469 360.81635742 228.4609375 361.70898438 C229.38132813 362.32064453 230.30171875 362.93230469 231.25 363.5625 C232.18585938 364.17802734 233.12171875 364.79355469 234.0859375 365.42773438 C236.39399678 366.94681421 238.69847801 368.47104125 241 370 C240.34695118 373.89017121 239.19461184 377.30443912 237.71484375 380.95703125 C237.26689453 382.06884766 236.81894531 383.18066406 236.35742188 384.32617188 C235.88884766 385.47666016 235.42027344 386.62714844 234.9375 387.8125 C234.46505859 388.98232422 233.99261719 390.15214844 233.50585938 391.35742188 C232.34111284 394.23987543 231.17236766 397.12063965 230 400 C230.88643188 400.18925049 230.88643188 400.18925049 231.79077148 400.38232422 C235.85282931 401.51803052 239.38225258 404.08806713 242.95507812 406.29296875 C244.59478471 407.26944289 246.29511684 408.14237955 248 409 C251.38764131 407.87078623 251.95242085 407.10310873 254.03125 404.32421875 C254.87623047 403.20563477 254.87623047 403.20563477 255.73828125 402.06445312 C256.31964844 401.28005859 256.90101563 400.49566406 257.5 399.6875 C258.08136719 398.91470703 258.66273438 398.14191406 259.26171875 397.34570312 C260.84771696 395.23527301 262.42470341 393.118422 264 391 C264.99942221 389.66623352 265.99925444 388.33277384 267 387 C272.38803389 387.54893762 276.40795259 389.46520706 281.125 391.9375 C281.82753906 392.29779297 282.53007812 392.65808594 283.25390625 393.02929688 C284.59314513 393.71663781 285.93081755 394.40704294 287.26660156 395.10107422 C289.16806071 396.08715487 291.0802376 397.05006575 293 398 C292.22404211 404.60902064 290.50876128 410.83627144 288.72851562 417.23632812 C288.3969043 418.45545898 288.3969043 418.45545898 288.05859375 419.69921875 C287.85548584 420.42971436 287.65237793 421.16020996 287.44311523 421.9128418 C286.86154884 424.29651873 286.86154884 424.29651873 287 428 C289.57952403 429.17578304 292.16303938 430.340791 294.75 431.5 C295.84441406 432.00080078 295.84441406 432.00080078 296.9609375 432.51171875 C297.66992188 432.82753906 298.37890625 433.14335938 299.109375 433.46875 C299.75874023 433.76201172 300.40810547 434.05527344 301.07714844 434.35742188 C303.29439832 435.21130014 303.29439832 435.21130014 307 435 C307.50789063 434.10539062 308.01578125 433.21078125 308.5390625 432.2890625 C312.60658989 425.13917395 316.72460947 418.02848292 321 411 C326.89084374 411.70412442 332.29104712 413.65200122 337.875 415.5625 C338.84953125 415.89185547 339.8240625 416.22121094 340.828125 416.56054688 C343.22016694 417.36961988 345.61069897 418.1828756 348 419 C347.09436574 431.4669227 347.09436574 431.4669227 346.4375 436.75 C345.98498666 441.14584389 346 445.58092636 346 450 C352.93 451.65 359.86 453.3 367 455 C367.33 453.35 367.66 451.7 368 450 C368.744342 448.20875971 369.53907511 446.43787607 370.375 444.6875 C371.94925415 441.32576419 373.42872193 437.99230224 374.6875 434.5 C376 431 376 431 378 428 C383.81915676 428.69243971 389.5945715 429.53818241 395.375 430.5 C396.58349609 430.69529297 396.58349609 430.69529297 397.81640625 430.89453125 C403.76045583 431.88022791 403.76045583 431.88022791 406 433 C406 442.9 406 452.8 406 463 C408.64 463.33 411.28 463.66 414 464 C414.99 464.185625 415.98 464.37125 417 464.5625 C420.71337975 465.10403455 424.24682849 465.02691824 428 465 C430.97604874 455.73072565 433.78952972 446.48884805 436 437 C442.60246686 436.8925336 449.00121203 437.28754907 455.5625 438 C456.93245117 438.14308594 456.93245117 438.14308594 458.33007812 438.2890625 C460.55385532 438.52191875 462.77709776 438.75895855 465 439 C465.50910422 442.49873754 466.005606 445.99915601 466.5 449.5 C466.64308594 450.48226563 466.78617187 451.46453125 466.93359375 452.4765625 C467.06894531 453.44335938 467.20429688 454.41015625 467.34375 455.40625 C467.53227539 456.72592773 467.53227539 456.72592773 467.72460938 458.07226562 C468.06584267 461.69998694 468 465.35626537 468 469 C313.56 469 159.12 469 0 469 C0 314.23 0 159.46 0 0 Z " fill="#FEFEFE" transform="translate(0,491)"/>
<path d="M0 0 C154.44 0 308.88 0 468 0 C466.81632653 14.20408163 466.81632653 14.20408163 466 21.1875 C465.9175 21.93580078 465.835 22.68410156 465.75 23.45507812 C465.11921891 28.88078109 465.11921891 28.88078109 464 30 C462.52490449 30.22706694 461.04051781 30.39453457 459.5546875 30.53515625 C458.64203125 30.62216797 457.729375 30.70917969 456.7890625 30.79882812 C455.34660156 30.9293457 455.34660156 30.9293457 453.875 31.0625 C452.46734375 31.19881836 452.46734375 31.19881836 451.03125 31.33789062 C445.99660783 31.80680338 441.05588584 32.10503918 436 32 C435.79318604 31.22285645 435.58637207 30.44571289 435.37329102 29.64501953 C434.4385956 26.13774627 433.50059074 22.63136657 432.5625 19.125 C432.07426758 17.29001953 432.07426758 17.29001953 431.57617188 15.41796875 C431.26357422 14.25136719 430.95097656 13.08476562 430.62890625 11.8828125 C430.34088135 10.80402832 430.05285645 9.72524414 429.75610352 8.61376953 C429.0992453 6.04761298 429.0992453 6.04761298 428 4 C420.19569992 3.73544745 414.03048047 4.76454147 406 6 C406 15.9 406 25.8 406 36 C397.11716621 38.22070845 397.11716621 38.22070845 393.4375 38.5 C389.45253044 38.87788504 385.84327488 39.86962503 382 41 C380.68 41 379.36 41 378 41 C376.1607188 36.87762652 374.32958658 32.75168422 372.5 28.625 C371.71302734 26.8615625 371.71302734 26.8615625 370.91015625 25.0625 C370.16572266 23.38027344 370.16572266 23.38027344 369.40625 21.6640625 C368.94541016 20.62717285 368.48457031 19.5902832 368.00976562 18.52197266 C367 16 367 16 367 14 C362.33454732 14.8823995 357.74535716 15.78005854 353.1875 17.125 C350.23518255 17.93544008 348.02443512 18.0718881 345 18 C345.13277344 18.969375 345.26554687 19.93875 345.40234375 20.9375 C346.68998221 30.61547826 347.50733537 40.25042624 348 50 C344.60583457 51.1508153 341.20939392 52.2947661 337.8125 53.4375 C336.85279297 53.76298828 335.89308594 54.08847656 334.90429688 54.42382812 C333.50727539 54.89272461 333.50727539 54.89272461 332.08203125 55.37109375 C331.22843018 55.65911865 330.3748291 55.94714355 329.49536133 56.24389648 C327.01189087 56.99639702 324.5514032 57.53447381 322 58 C316.62623726 50.22384921 311.81783392 42.12607988 307 34 C301.00817175 35.15970869 295.67653781 36.78971618 290.06640625 39.1953125 C288 40 288 40 286 40 C286.2172876 40.76143311 286.4345752 41.52286621 286.65844727 42.30737305 C287.6379687 45.76427514 288.60038407 49.22571526 289.5625 52.6875 C289.90474609 53.88568359 290.24699219 55.08386719 290.59960938 56.31835938 C290.91865234 57.47529297 291.23769531 58.63222656 291.56640625 59.82421875 C291.86490479 60.88729248 292.16340332 61.95036621 292.47094727 63.0456543 C293.02689795 66.15020401 293.05727074 68.03468093 292 71 C290.51293945 72.25439453 290.51293945 72.25439453 288.61328125 73.1328125 C287.92169922 73.46410156 287.23011719 73.79539062 286.51757812 74.13671875 C285.42606445 74.62591797 285.42606445 74.62591797 284.3125 75.125 C283.60416016 75.45886719 282.89582031 75.79273437 282.16601562 76.13671875 C280.7703096 76.79397644 279.36944755 77.44040877 277.96337891 78.07519531 C276.17480889 78.91766027 274.44728195 79.88673743 272.73046875 80.8671875 C270 82 270 82 267.96484375 81.609375 C265.01125021 79.1901294 262.84742815 76.29238026 260.5625 73.25 C259.62716951 72.02537866 258.69097758 70.80141477 257.75390625 69.578125 C257.30031738 68.98322266 256.84672852 68.38832031 256.37939453 67.77539062 C254.32028754 65.12515593 252.16615578 62.56321882 250 60 C245.46152802 61.34927545 241.68067754 63.19159348 237.625 65.625 C236.56539062 66.25664063 235.50578125 66.88828125 234.4140625 67.5390625 C233.61742187 68.02117187 232.82078125 68.50328125 232 69 C232.54819041 72.83179557 233.31082297 76.18426491 234.8125 79.75 C235.16441406 80.60335937 235.51632813 81.45671875 235.87890625 82.3359375 C236.63531759 84.13340278 237.39316354 85.93026493 238.15234375 87.7265625 C238.51457031 88.60054688 238.87679687 89.47453125 239.25 90.375 C239.58515625 91.16648437 239.9203125 91.95796875 240.265625 92.7734375 C241 95 241 95 241 99 C238.82733111 100.68449641 236.79117019 102.05588196 234.4375 103.4375 C233.14612218 104.22359831 231.85574522 105.01134331 230.56640625 105.80078125 C229.94652832 106.1767041 229.32665039 106.55262695 228.68798828 106.93994141 C226.65309806 108.21785482 224.76457642 109.64240927 222.875 111.125 C220 113 220 113 218.07983398 112.87158203 C215.32724931 111.71807489 213.87644614 110.11439473 211.84765625 107.9296875 C211.07099609 107.11628906 210.29433594 106.30289063 209.49414062 105.46484375 C207.87096886 103.73606804 206.25377749 102.00165802 204.64257812 100.26171875 C203.4756543 99.04548828 203.4756543 99.04548828 202.28515625 97.8046875 C201.58269775 97.05171387 200.88023926 96.29874023 200.15649414 95.52294922 C198.08824092 93.73155233 198.08824092 93.73155233 195.42236328 94.11938477 C191.96271122 95.37709137 189.50926976 97.63907402 186.8125 100.0625 C181.24181446 105 181.24181446 105 179 105 C181.66184676 109.9405489 184.32144656 114.87667947 187.1796875 119.70703125 C187.54384766 120.32690918 187.90800781 120.94678711 188.28320312 121.58544922 C189.0012945 122.80357113 189.72638361 124.01759952 190.45898438 125.22705078 C192.40308441 128.53827379 193 130.03983338 193 134 C190.875 136.11328125 190.875 136.11328125 188 138.3125 C183.70697482 141.63987042 179.7080438 145.06030901 175.8515625 148.8828125 C174 150 174 150 171.67578125 149.9765625 C168.13512689 148.68435288 165.45854183 146.59393093 162.5625 144.25 C161.74168945 143.60417969 161.74168945 143.60417969 160.90429688 142.9453125 C158.68124455 141.18791729 156.47973516 139.44166557 154.39404297 137.52148438 C152.68442888 135.92158633 152.68442888 135.92158633 150 134 C145.40732518 134.47800388 142.7954118 137.68984128 139.6875 140.8125 C139.12482422 141.34681641 138.56214844 141.88113281 137.98242188 142.43164062 C136.1701422 144.17555699 136.1701422 144.17555699 134 147 C134.28373239 150.48630054 136.03931248 152.68690629 138.125 155.40625 C138.74890625 156.23253906 139.3728125 157.05882812 140.015625 157.91015625 C140.99789062 159.19212891 140.99789062 159.19212891 142 160.5 C143.29753497 162.19343639 144.58945213 163.8911959 145.875 165.59375 C146.44992188 166.34333984 147.02484375 167.09292969 147.6171875 167.86523438 C149.00498082 170.00768931 149.76769282 171.46030421 150 174 C148.37802315 176.14149271 146.81829134 177.92486076 144.9375 179.8125 C143.91846506 180.87553024 142.90023116 181.93932897 141.8828125 183.00390625 C141.3868457 183.5158252 140.89087891 184.02774414 140.37988281 184.55517578 C137.79352749 187.26325271 135.40911665 190.13510453 133 193 C129.5067327 192.43127532 126.8249393 191.5634899 123.75 189.8203125 C122.9765625 189.38589844 122.203125 188.95148438 121.40625 188.50390625 C120.6121875 188.04886719 119.818125 187.59382812 119 187.125 C118.2059375 186.67769531 117.411875 186.23039063 116.59375 185.76953125 C112.69581779 183.56719955 108.82430928 181.32851089 105 179 C104.65001953 179.804375 104.65001953 179.804375 104.29296875 180.625 C102.31014685 184.26716228 99.64425686 187.38186535 97.01367188 190.578125 C94.7026531 193.48363943 94.7026531 193.48363943 93.875 197.01171875 C95.62591261 200.10621361 98.12956124 202.39200273 100.6875 204.8125 C101.78181505 205.87438129 102.87428005 206.93817264 103.96484375 208.00390625 C104.48933105 208.5158252 105.01381836 209.02774414 105.55419922 209.55517578 C108.22288357 212.22205758 110.61281143 215.08232508 113 218 C111.45852949 221.24999694 109.63486684 224.2274794 107.6875 227.25 C104.75921858 231.81395325 101.86613992 236.39680559 99 241 C93.95803983 240.35987653 89.58006907 238.88254991 84.875 237.0625 C84.17246094 236.79759766 83.46992187 236.53269531 82.74609375 236.25976562 C80.01390418 235.21905447 77.34204247 234.18174731 74.7578125 232.80859375 C72.71681832 231.72139626 72.71681832 231.72139626 69 232 C67.4382623 234.57297782 65.90093258 237.15591462 64.375 239.75 C63.70597656 240.84441406 63.70597656 240.84441406 63.0234375 241.9609375 C62.4046875 243.02441406 62.4046875 243.02441406 61.7734375 244.109375 C61.38591309 244.75874023 60.99838867 245.40810547 60.59912109 246.07714844 C59.78926589 248.02350393 59.78926589 248.02350393 60.66699219 250.04760742 C62.11249998 252.16477332 63.55038554 253.53467928 65.5546875 255.12890625 C66.25207031 255.68900391 66.94945313 256.24910156 67.66796875 256.82617188 C68.39628906 257.39916016 69.12460938 257.97214844 69.875 258.5625 C70.95587891 259.4277832 70.95587891 259.4277832 72.05859375 260.31054688 C75.33502987 262.92626522 78.63840478 265.49441399 82 268 C80.37317535 273.70323584 77.66802013 278.68013903 74.875 283.875 C74.17310547 285.19371094 74.17310547 285.19371094 73.45703125 286.5390625 C72.3087907 288.69494271 71.15636097 290.84846777 70 293 C65.1863046 292.44832903 61.48924839 291.81707673 57 290 C54.51365154 289.45078947 52.01770817 288.97976232 49.515625 288.5078125 C46.27551973 287.85375398 43.16092427 286.96202043 40 286 C39.82984375 286.61746094 39.6596875 287.23492187 39.484375 287.87109375 C37.95883437 293.20237137 36.15667779 298.1807507 33.76953125 303.1875 C32.86973181 304.97864208 32.86973181 304.97864208 33 307 C35.2840819 308.57241134 35.2840819 308.57241134 38.21484375 310.15234375 C39.29314453 310.76400391 40.37144531 311.37566406 41.48242188 312.00585938 C43.78116779 313.29102597 46.08064474 314.57488587 48.38085938 315.85742188 C49.46044922 316.47037109 50.54003906 317.08332031 51.65234375 317.71484375 C52.65257568 318.27292725 53.65280762 318.83101074 54.68334961 319.40600586 C57 321 57 321 58 324 C57.37915039 326.54370117 57.37915039 326.54370117 56.34765625 329.54296875 C55.98349609 330.61611328 55.61933594 331.68925781 55.24414062 332.79492188 C54.85419922 333.91447266 54.46425781 335.03402344 54.0625 336.1875 C53.48338867 337.88422852 53.48338867 337.88422852 52.89257812 339.61523438 C51.93637664 342.41300909 50.9718993 345.20764759 50 348 C39.66006789 347.41165035 29.32831031 346.76930362 19 346 C18.32151792 348.18386418 17.6577449 350.37230084 17 352.5625 C16.62875 353.78066406 16.2575 354.99882812 15.875 356.25390625 C15.00485057 359.97923349 14.84311596 363.19065949 15 367 C17.10238244 367.92075143 19.2070237 368.83634541 21.3125 369.75 C21.94244873 370.02513428 22.57239746 370.30026855 23.22143555 370.58374023 C28.05308128 372.66698736 32.93599627 374.36516095 37.98828125 375.84765625 C40 377 40 377 40.68798828 379.21337891 C41.03796243 382.3390479 40.67663312 384.66999042 40.00390625 387.73828125 C39.79838135 388.70032471 39.59285645 389.66236816 39.38110352 390.65356445 C39.11096436 391.86101318 38.8408252 393.06846191 38.5625 394.3125 C37.716875 398.169375 36.87125 402.02625 36 406 C25.77 406 15.54 406 5 406 C4.67 409.96 4.34 413.92 4 418 C3.81574947 420.08362323 3.62934949 422.1670627 3.4375 424.25 C3.31181641 425.61898437 3.31181641 425.61898437 3.18359375 427.015625 C3.09271484 427.99789062 3.09271484 427.99789062 3 429 C4.918125 429.3403125 4.918125 429.3403125 6.875 429.6875 C15.03519937 431.3030308 23.00655801 433.71864728 31 436 C31.11723229 442.87762742 31.02935267 449.75245747 30.75 456.625 C30.73590088 457.32367188 30.72180176 458.02234375 30.70727539 458.7421875 C30.609375 460.7265625 30.609375 460.7265625 30 464 C27.30571691 465.77747585 24.87877088 466.30624698 21.69921875 466.59765625 C20.48008789 466.71657227 20.48008789 466.71657227 19.23632812 466.83789062 C18.39521484 466.91201172 17.55410156 466.98613281 16.6875 467.0625 C15.02462506 467.21883867 13.36186194 467.37637186 11.69921875 467.53515625 C10.96533936 467.600979 10.23145996 467.66680176 9.4753418 467.73461914 C6.30701114 468.07429519 3.15446113 468.5493627 0 469 C0 314.23 0 159.46 0 0 Z " fill="#FEFEFE" transform="translate(0,0)"/>
<path d="M0 0 C0.72291733 -0.00524185 1.44583466 -0.0104837 2.19065857 -0.0158844 C3.7212496 -0.02229889 5.25188996 -0.02097495 6.7824707 -0.01245117 C9.08963649 -0.00402119 11.3942557 -0.03257394 13.70117188 -0.06445312 C27.31242569 -0.12969542 38.85288089 2.83361966 48.8359375 12.6796875 C49.96708984 13.85724609 49.96708984 13.85724609 51.12109375 15.05859375 C54.94938669 19.02670261 58.45732259 21.41632089 63.55859375 23.43359375 C73.47015104 27.36081456 81.84239522 32.21328722 87.55859375 41.43359375 C88.13609375 42.27921875 88.71359375 43.12484375 89.30859375 43.99609375 C93.36935863 51.91458526 93.84969919 60.79234329 91.87109375 69.4375 C86.83606939 84.5215938 76.03687027 91.67249971 62.43017578 98.50830078 C50.44513729 104.43359375 50.44513729 104.43359375 47.55859375 104.43359375 C47.55859375 126.87359375 47.55859375 149.31359375 47.55859375 172.43359375 C54.48859375 168.96859375 54.48859375 168.96859375 61.55859375 165.43359375 C61.88859375 153.22359375 62.21859375 141.01359375 62.55859375 128.43359375 C64.20859375 129.09359375 65.85859375 129.75359375 67.55859375 130.43359375 C68.18121094 130.68238281 68.80382812 130.93117188 69.4453125 131.1875 C79.86131833 135.86453516 87.56604081 144.16596519 91.87109375 154.62109375 C93.89228603 165.82952367 92.85466482 175.37401279 86.87109375 185.05859375 C80.17795477 194.40954094 71.6195871 198.73508559 61.46484375 203.52441406 C58.06423376 205.14632385 54.72775476 206.89558537 51.37890625 208.62109375 C49.55859375 209.43359375 49.55859375 209.43359375 47.55859375 209.43359375 C47.55859375 234.18359375 47.55859375 258.93359375 47.55859375 284.43359375 C51.84859375 282.45359375 56.13859375 280.47359375 60.55859375 278.43359375 C61.21859375 278.43359375 61.87859375 278.43359375 62.55859375 278.43359375 C62.55859375 266.22359375 62.55859375 254.01359375 62.55859375 241.43359375 C72.89187223 243.50024945 81.68067954 249.6946225 87.55859375 258.43359375 C89.18104896 261.69269474 90.45158704 264.96872528 91.55859375 268.43359375 C91.88859375 269.42359375 92.21859375 270.41359375 92.55859375 271.43359375 C93.5116584 283.47519905 91.27158209 292.32878326 83.8359375 301.90234375 C76.71697549 309.81501508 66.83505478 314.03164795 57.38476562 318.54882812 C55.64204459 319.39316249 53.91991477 320.27960941 52.19921875 321.16796875 C49.55859375 322.43359375 49.55859375 322.43359375 47.55859375 322.43359375 C47.55859375 347.18359375 47.55859375 371.93359375 47.55859375 397.43359375 C54.48859375 393.96859375 54.48859375 393.96859375 61.55859375 390.43359375 C61.88859375 378.22359375 62.21859375 366.01359375 62.55859375 353.43359375 C75.36685805 358.55689947 84.67925523 364.22502006 90.68359375 377.171875 C93.88287405 385.44144329 93.83594587 396.16010041 90.55859375 404.43359375 C84.74682924 414.86579155 76.60010725 421.36725757 66.05859375 426.62109375 C64.85396484 427.23887695 64.85396484 427.23887695 63.625 427.86914062 C61.27579808 429.07039379 58.91918989 430.25489314 56.55859375 431.43359375 C52.59859375 433.41359375 52.59859375 433.41359375 48.55859375 435.43359375 C48.22859375 484.93359375 47.89859375 534.43359375 47.55859375 585.43359375 C62.73859375 585.43359375 77.91859375 585.43359375 93.55859375 585.43359375 C109.16892486 601.04392486 109.16892486 601.04392486 109.50384521 610.11352539 C109.47550598 611.35352295 109.44716675 612.59352051 109.41796875 613.87109375 C109.42744547 615.20763579 109.44107052 616.54415399 109.45855713 617.88061523 C109.4789992 620.65943895 109.44993671 623.43189071 109.38378906 626.20996094 C109.30392658 629.73104086 109.34997736 633.23720201 109.43380356 636.75773621 C109.4849939 639.51130921 109.46804445 642.26147783 109.43201447 645.01516724 C109.41845085 646.92810062 109.46013684 648.84118003 109.50384521 650.75366211 C109.18996938 659.25337971 106.30685024 665.13689705 100.35634136 671.04354286 C90.66768698 679.01105913 77.57661062 677.31058659 65.75 677.08203125 C63.05148091 677.06923585 60.35306412 677.07514938 57.65452576 677.07949829 C52.02284718 677.07752921 46.39382914 677.02113726 40.76293945 676.92919922 C34.26814224 676.82362947 27.77663831 676.79589358 21.28107601 676.81126535 C15.00153176 676.8251226 8.72309159 676.7933378 2.44379997 676.73775101 C-0.21628811 676.71444313 -2.87494501 676.70713585 -5.53530693 676.70734787 C-9.24854283 676.69940429 -12.95727232 676.63912453 -16.66967773 676.56396484 C-17.76330627 676.57073242 -18.85693481 676.5775 -19.98370361 676.58447266 C-27.31452101 676.35912147 -27.31452101 676.35912147 -30.58693695 673.67143726 C-32.43577576 671.52934265 -32.43577576 671.52934265 -33.94687557 669.4038496 C-35.5393854 667.30442678 -37.08742559 666.16649688 -39.30322266 664.77124023 C-42.63118676 661.99293411 -43.04306833 659.64823973 -43.47412109 655.39086914 C-43.57426837 652.93898796 -43.63100086 650.48508277 -43.65234375 648.03125 C-43.67801422 646.72135605 -43.70368469 645.4114621 -43.73013306 644.06187439 C-43.7764667 641.28850895 -43.79352457 638.51665154 -43.79345703 635.74291992 C-43.79830337 632.22891924 -43.90364689 628.72612195 -44.03606224 625.21492863 C-44.1433542 621.82033845 -44.14043698 618.42749384 -44.15234375 615.03125 C-44.20780365 613.79319107 -44.26326355 612.55513214 -44.32040405 611.27955627 C-44.07553265 597.57865072 -38.67222796 596.66441546 -27.44140625 585.43359375 C-12.59140625 585.43359375 2.25859375 585.43359375 17.55859375 585.43359375 C17.55859375 541.21359375 17.55859375 496.99359375 17.55859375 451.43359375 C12.34928118 453.66405295 12.34928118 453.66405295 7.24609375 456.12109375 C4.55859375 457.43359375 4.55859375 457.43359375 2.55859375 457.43359375 C2.55859375 469.97359375 2.55859375 482.51359375 2.55859375 495.43359375 C-13.49347415 487.4075598 -20.68791222 482.79267822 -26.69140625 467.18359375 C-28.81263888 456.57743062 -27.5804078 447.29533371 -21.96875 437.9921875 C-15.23209147 428.57997664 -5.1293588 423.45963128 5.05859375 418.49609375 C6.04601562 418.00302734 7.0334375 417.50996094 8.05078125 417.00195312 C15.27658525 413.43359375 15.27658525 413.43359375 17.55859375 413.43359375 C17.55859375 388.68359375 17.55859375 363.93359375 17.55859375 338.43359375 C12.93859375 340.74359375 8.31859375 343.05359375 3.55859375 345.43359375 C3.22859375 357.64359375 2.89859375 369.85359375 2.55859375 382.43359375 C-5.31682425 379.80845442 -11.94503887 376.82126395 -17.44140625 370.43359375 C-17.93382812 369.87027344 -18.42625 369.30695313 -18.93359375 368.7265625 C-25.63213462 360.54501133 -28.13492868 351.96592615 -27.76171875 341.44140625 C-27.32359202 337.32728941 -26.36635566 334.08004263 -24.44140625 330.43359375 C-24.12429688 329.79164063 -23.8071875 329.1496875 -23.48046875 328.48828125 C-14.94159035 313.04562882 1.49580724 307.96498701 16.55859375 300.43359375 C16.55859375 276.01359375 16.55859375 251.59359375 16.55859375 226.43359375 C12.26859375 228.41359375 7.97859375 230.39359375 3.55859375 232.43359375 C3.22859375 244.64359375 2.89859375 256.85359375 2.55859375 269.43359375 C-6.43344081 267.63518684 -14.92993043 262.91050858 -20.44140625 255.43359375 C-26.39977837 245.27328573 -29.18977718 235.78293322 -26.98046875 223.96875 C-23.34296804 211.79382115 -15.1011412 203.82471179 -4.20239258 197.9375 C-1.3345492 196.42631593 1.5456313 194.94379704 4.4453125 193.49462891 C5.89224096 192.76815581 7.33210998 192.02749773 8.765625 191.27490234 C9.82330078 190.72503662 9.82330078 190.72503662 10.90234375 190.1640625 C11.53333984 189.83172607 12.16433594 189.49938965 12.81445312 189.15698242 C14.55859375 188.43359375 14.55859375 188.43359375 17.55859375 188.43359375 C17.55859375 165.99359375 17.55859375 143.55359375 17.55859375 120.43359375 C13.26859375 122.74359375 8.97859375 125.05359375 4.55859375 127.43359375 C3.89859375 127.43359375 3.23859375 127.43359375 2.55859375 127.43359375 C2.55859375 139.64359375 2.55859375 151.85359375 2.55859375 164.43359375 C-6.43344081 162.63518684 -14.92993043 157.91050858 -20.44140625 150.43359375 C-26.28083911 140.47610279 -28.55726415 131.99440055 -27.44140625 120.43359375 C-24.75387275 110.14812677 -18.95342809 102.02064694 -9.94140625 96.37109375 C-4.98357119 93.61589992 0.10927938 91.10450885 5.19702148 88.59863281 C10.06066878 86.20307986 14.84831708 83.69210239 19.62109375 81.12109375 C29.25565013 75.95355076 39.13807915 71.31276569 49.02392578 66.64990234 C51.40844766 65.50564421 53.76378281 64.31601821 56.1171875 63.109375 C59.55859375 61.43359375 59.55859375 61.43359375 61.55859375 61.43359375 C61.55859375 60.77359375 61.55859375 60.11359375 61.55859375 59.43359375 C60.28063179 59.03786415 60.28063179 59.03786415 58.97685242 58.63414001 C55.44517652 57.39375983 52.21657751 55.89320436 48.86645508 54.22485352 C48.22666214 53.90751251 47.5868692 53.59017151 46.9276886 53.26321411 C44.82993166 52.22124196 42.73516362 51.17342474 40.640625 50.125 C39.1767385 49.39500171 37.71276311 48.66518165 36.248703 47.93553162 C33.18860448 46.40920391 30.13006497 44.87980439 27.07250977 43.34838867 C23.15513175 41.38679519 19.23326933 39.4343587 15.31010914 37.48436069 C12.28915773 35.98124871 9.27099337 34.47260814 6.2536068 32.96235466 C4.80846226 32.24003896 3.36237204 31.51961208 1.91532326 30.80111885 C-0.10518564 29.7970318 -2.12173101 28.7853871 -4.13745117 27.77172852 C-5.28517502 27.1981813 -6.43289886 26.62463409 -7.61540222 26.03370667 C-12.02729375 23.53564773 -13.99756475 21.3204419 -15.44140625 16.43359375 C-15.90866141 12.15042147 -15.74890183 10.00465697 -13.69140625 6.18359375 C-9.49170344 1.05062365 -6.56969506 -0.02800971 0 0 Z " fill="#0537A2" transform="translate(447.44140625,149.56640625)"/>
<path d="M0 0 C103.95 0 207.9 0 315 0 C315 3.96 315 7.92 315 12 C313.55625 12.721875 312.1125 13.44375 310.625 14.1875 C309.70976562 14.64898438 308.79453125 15.11046875 307.8515625 15.5859375 C306.06711472 16.47082804 304.27152897 17.33397595 302.4609375 18.1640625 C287.25926646 25.25817565 278.22381375 36.4187021 271.890625 51.671875 C268.23875412 65.31833986 270.53483255 79.47624975 277.45703125 91.5390625 C278.87795443 93.78104684 280.39603121 95.88643696 282 98 C282.391875 98.59039063 282.78375 99.18078125 283.1875 99.7890625 C290.0713388 109.21131685 303.56553124 114.68303683 314 119 C314 119.33 314 119.66 314 120 C294.41337419 122.19117054 274.81381056 123.55122613 255.125 124.3125 C254.38082117 124.34193695 253.63664233 124.3713739 252.86991262 124.40170288 C195.88687084 126.58222795 152.46125786 112.89920737 102.5625 86 C101.43499061 85.39329177 101.43499061 85.39329177 100.28470325 84.7743268 C83.31447235 75.63008301 66.58089333 66.11845894 50.01494884 56.26278019 C41.84808943 51.42746475 33.5672863 47.07855808 25 43 C21.98349338 41.44672457 18.98886612 39.85568864 16 38.25 C10.70456437 35.41424848 5.37559149 32.68779574 0 30 C0 20.1 0 10.2 0 0 Z " fill="#0335A1" transform="translate(135,540)"/>
<path d="M0 0 C29.45329137 -0.08818148 58.90650603 -0.16203821 88.35989473 -0.20426132 C91.83709802 -0.20926415 95.31430103 -0.21444144 98.79150391 -0.21972656 C99.82987705 -0.22130043 99.82987705 -0.22130043 100.88922743 -0.22290608 C112.09817449 -0.24031154 123.3070395 -0.27184997 134.51593788 -0.30861118 C146.01723243 -0.34601678 157.51846925 -0.36793562 169.01982343 -0.37635398 C175.48001937 -0.38157383 181.9400292 -0.39386281 188.40016556 -0.42292023 C194.47891948 -0.45004105 200.55741035 -0.45845161 206.63621902 -0.45243073 C208.86871774 -0.45353244 211.10122512 -0.46150591 213.33367157 -0.4768219 C216.37972397 -0.49669715 219.4247807 -0.49194767 222.47085571 -0.48101807 C223.35607867 -0.49266943 224.24130162 -0.5043208 225.15334952 -0.51632524 C231.14361689 -0.45815185 234.66384224 0.66384224 239 5 C239.2734375 7.14453125 239.2734375 7.14453125 239.375 9.8125 C239.42398438 10.68519531 239.47296875 11.55789063 239.5234375 12.45703125 C238.59645845 16.96048917 234.81962608 18.45736667 231.1796875 20.8671875 C211.15231792 33.03511654 189.91166551 43.90226814 168.171875 52.6640625 C166.32579473 53.44159877 164.48787206 54.24039097 162.67456055 55.09155273 C155.37513074 58.51471985 147.94763639 61.23601658 140.3125 63.8125 C139.12205078 64.21919922 137.93160156 64.62589844 136.70507812 65.04492188 C133.80502913 66.03489844 130.90337148 67.01981974 128 68 C128.77988281 68.77214844 129.55976562 69.54429687 130.36328125 70.33984375 C137.78420937 77.82673568 139.34623003 82.51134902 139.3125 92.8125 C139.32861328 93.78509766 139.34472656 94.75769531 139.36132812 95.75976562 C139.36735917 104.66761477 137.28023099 110.56659265 131 117 C128.83984375 117.6640625 128.83984375 117.6640625 127 118 C127.03308641 119.771627 127.10256321 121.54260094 127.1875 123.3125 C127.23970703 124.79169922 127.23970703 124.79169922 127.29296875 126.30078125 C127.73787747 129.19491492 127.73787747 129.19491492 130.34375 130.62109375 C131.2203125 131.07613281 132.096875 131.53117188 133 132 C137.66049476 136.32688016 139.10749368 141.28971816 139.51953125 147.4921875 C139.57779728 149.53593021 139.61257269 151.58046466 139.625 153.625 C139.63571533 154.61467773 139.64643066 155.60435547 139.6574707 156.62402344 C139.51656832 163.97063701 138.10104892 169.48547789 133.18359375 175.05859375 C132.60738281 175.51363281 132.03117188 175.96867188 131.4375 176.4375 C130.85871094 176.91058594 130.27992188 177.38367188 129.68359375 177.87109375 C125.05002936 180.97805456 119.34026269 180.54398659 114 180 C108.49182657 177.3479165 104.35105828 173.08475893 101.8828125 167.44921875 C100.69828741 162.82118488 100.63173612 158.44656873 100.625 153.6875 C100.60050781 152.78837891 100.57601562 151.88925781 100.55078125 150.96289062 C100.52309012 144.58008452 101.6649932 139.49766405 105 134 C109.09756098 130 109.09756098 130 112 130 C112 126.04 112 122.08 112 118 C110.02 117.01 110.02 117.01 108 116 C101.19367626 108.70751027 100.65745255 103.14763703 100.6875 93.5625 C100.66333008 92.02625977 100.66333008 92.02625977 100.63867188 90.45898438 C100.63500577 84.7948458 100.88328037 80.79432069 104 76 C99.18498661 76.55920461 99.18498661 76.55920461 94.57495117 77.97436523 C92.02261783 78.99099104 89.68755257 79.55126848 86.98828125 80.03515625 C85.60479492 80.28942383 85.60479492 80.28942383 84.19335938 80.54882812 C83.24267578 80.71833984 82.29199219 80.88785156 81.3125 81.0625 C79.41227546 81.40487133 77.51250895 81.7497977 75.61328125 82.09765625 C74.77579346 82.24726807 73.93830566 82.39687988 73.07543945 82.55102539 C70.95229241 82.92052541 70.95229241 82.92052541 69 84 C67.04913702 84.33848826 65.09030744 84.631519 63.12890625 84.90234375 C61.92427734 85.06959961 60.71964844 85.23685547 59.47851562 85.40917969 C57.54008789 85.67069824 57.54008789 85.67069824 55.5625 85.9375 C54.57552124 86.07097839 54.57552124 86.07097839 53.56860352 86.20715332 C49.04732871 86.81713162 44.52411142 87.41138364 40 88 C39.04593262 88.12584473 38.09186523 88.25168945 37.10888672 88.38134766 C36.27760254 88.48882324 35.44631836 88.59629883 34.58984375 88.70703125 C33.90656006 88.79573486 33.22327637 88.88443848 32.51928711 88.97583008 C21.39315825 90.1866686 11.49756924 90 0 90 C0 60.3 0 30.6 0 0 Z " fill="#0335A1" transform="translate(615,555)"/>
<path d="M0 0 C29.7 0 59.4 0 90 0 C90 14.85 90 29.7 90 45 C72.875 44.125 72.875 44.125 67.62841797 43.67626953 C56.80928072 43.24195077 48.91738122 47.40575574 40.875 54.46875 C31.53806159 63.38861036 29.14328884 72.71693975 28.68411636 85.37566757 C28.5441619 92.7691531 28.7314238 100.13527877 29.02581787 107.52270508 C29.22223476 113.17129218 29.24985802 118.82312027 29.30703735 124.47450256 C29.41149942 132.99212794 29.7246136 141.47853625 30 150 C5.25 150 -19.5 150 -45 150 C-45 124.92 -45 99.84 -45 74 C-40.05 72.35 -35.1 70.7 -30 69 C-16.05224042 61.23526786 -9.57003011 51.53239666 -4.67163086 36.39160156 C-3.55440824 32.41329813 -2.94370468 28.40006491 -2.375 24.3125 C-2.25382812 23.51650391 -2.13265625 22.72050781 -2.0078125 21.90039062 C-0.9450464 14.58232191 -0.53080024 7.43120333 0 0 Z " fill="#0235A1" transform="translate(360,675)"/>
<path d="M0 0 C29.7 0 59.4 0 90 0 C90.99 10.56 91.98 21.12 93 32 C97.49350749 46.34465853 102.80517641 58.92329947 116 67 C122.09682038 69.9764005 128.56896074 71.85632025 135 74 C135 99.08 135 124.16 135 150 C110.25 150 85.5 150 60 150 C60.27457031 141.50378906 60.27457031 141.50378906 60.5546875 132.8359375 C60.62168184 129.19851214 60.6819461 125.56333477 60.71875 121.92578125 C60.77752286 116.178025 60.85801852 110.43767574 61.08691406 104.69384766 C62.64023615 79.3565001 62.64023615 79.3565001 52.00567627 57.32855225 C44.32349474 49.40646116 35.81815083 43.82142127 24.58227539 43.58752441 C22.09207463 43.68748996 19.60814082 43.91262155 17.125 44.125 C11.47375 44.41375 5.8225 44.7025 0 45 C0 30.15 0 15.3 0 0 Z " fill="#0235A1" transform="translate(510,675)"/>
<path d="M0 0 C14.85 0 29.7 0 45 0 C45 39.6 45 79.2 45 120 C15.3 120 -14.4 120 -45 120 C-45 97.56 -45 75.12 -45 52 C-37.41 48.04 -29.82 44.08 -22 40 C-8.49767031 28.18546152 -2.99132637 17.94795819 0 0 Z " fill="#0436A2" transform="translate(555,540)"/>
<path d="M0 0 C0.66219427 14.63143713 0.78911596 25.83382385 -9.28222656 37.32714844 C-12.10475376 40.0758631 -15.29726872 41.71900588 -18.8125 43.4375 C-19.55387207 43.81527588 -20.29524414 44.19305176 -21.05908203 44.58227539 C-26.80876663 47.48626076 -32.64285634 50.21421013 -38.49047852 52.91430664 C-43.83819574 55.40015719 -49.05020857 58.09450371 -54.25 60.875 C-60.999884 64.48322332 -67.82236014 67.87126985 -74.75 71.125 C-81.47782386 74.28599376 -88.09636773 77.56707628 -94.63012695 81.11083984 C-100.87998792 84.49734706 -107.23653516 87.65424971 -113.60498047 90.81054688 C-118.40869844 93.19624657 -123.20340468 95.60002194 -128 98 C-130.08069691 99.0404291 -132.16142548 100.08079487 -134.2421875 101.12109375 C-135.7267041 101.86335205 -135.7267041 101.86335205 -137.24121094 102.62060547 C-140.78076172 104.39038086 -140.78076172 104.39038086 -144.3203125 106.16015625 C-144.96073486 106.48048828 -145.60115723 106.80082031 -146.26098633 107.13085938 C-147.49220325 107.74622595 -148.72380448 108.36082425 -149.95581055 108.97460938 C-153.9010096 110.94181858 -157.8337432 112.93218755 -161.76171875 114.93359375 C-162.76251465 115.44075928 -163.76331055 115.9479248 -164.79443359 116.47045898 C-166.77508505 117.47424327 -168.75336684 118.48271998 -170.72900391 119.49633789 C-171.62925293 119.95129639 -172.52950195 120.40625488 -173.45703125 120.875 C-174.26116455 121.28492188 -175.06529785 121.69484375 -175.89379883 122.1171875 C-178 123 -178 123 -181 123 C-181.08820927 119.83351345 -181.1407905 116.66734908 -181.1875 113.5 C-181.21263672 112.613125 -181.23777344 111.72625 -181.26367188 110.8125 C-181.3693189 101.23383667 -178.50968309 94.07408073 -172 87 C-164.58404416 81.00999005 -155.61276304 77.10095497 -147.12304688 72.88330078 C-145.52704829 72.08490545 -143.9313115 71.2859866 -142.33581543 70.48658752 C-138.02920926 68.33073177 -133.71893158 66.18231563 -129.40787315 64.03537989 C-124.89263769 61.78530823 -120.38066683 59.5287083 -115.86828613 57.2729187 C-108.30156371 53.49139935 -100.73260677 49.71438552 -93.16210938 45.94042969 C-83.4326409 41.09017892 -73.70692424 36.2324537 -63.98235321 31.37239265 C-55.6242875 27.19534577 -47.2645197 23.02170946 -38.90447426 18.84862661 C-36.2136092 17.50524602 -33.52298043 16.16139309 -30.8323822 14.81747818 C-26.6177386 12.71259524 -22.40204222 10.60983573 -18.1855011 8.50875664 C-16.63428713 7.7354182 -15.08341403 6.96139559 -13.53289795 6.18665886 C-11.42613315 5.13414408 -9.31816259 4.08408618 -7.20983887 3.03469849 C-6.58855716 2.72362439 -5.96727546 2.4125503 -5.32716703 2.09204972 C-1.11420882 0 -1.11420882 0 0 0 Z " fill="#0537A2" transform="translate(765,210)"/>
<path d="M0 0 C3.27405996 0.76093699 5.94729476 1.88480483 8.9375 3.4375 C11.37869766 4.70148952 13.77007609 5.90934208 16.328125 6.91796875 C19.9253067 8.37472216 23.35138046 10.12327628 26.8125 11.875 C27.48603516 12.21402344 28.15957031 12.55304688 28.85351562 12.90234375 C30.22134748 13.59084093 31.58869338 14.28030434 32.95556641 14.97070312 C34.94988614 15.97476952 36.9492683 16.96814565 38.94921875 17.9609375 C43.33731781 20.15311109 47.66722751 22.45094115 52 24.75 C58.26283321 28.0582945 64.5433239 31.32523571 70.875 34.5 C71.52210938 34.82581055 72.16921875 35.15162109 72.8359375 35.48730469 C75.39484376 36.76269176 77.9428287 37.9773375 80.6015625 39.03125 C84.34216959 40.5421141 87.76879862 42.58921271 91.28125 44.5625 C93.81851315 45.90404143 96.33603561 46.94078546 99 48 C101.44907011 49.18962813 103.88390643 50.3951296 106.3125 51.625 C107.7499368 52.34908382 109.18743857 53.07303866 110.625 53.796875 C111.35460937 54.16490234 112.08421875 54.53292969 112.8359375 54.91210938 C114.86638407 55.93283026 116.90076442 56.94502301 118.9375 57.953125 C126.99045906 61.94352223 134.96475694 66.06375815 142.90429688 70.27539062 C148.80119152 73.39500701 154.74471822 76.40671849 160.75 79.3125 C166.58422169 82.17363217 171.70129547 85.08697313 175.75 90.25 C176.32234375 90.95640625 176.8946875 91.6628125 177.484375 92.390625 C181.27321794 98.9136845 181.27130523 105.67348402 181.125 113 C181.11597656 113.87011719 181.10695313 114.74023438 181.09765625 115.63671875 C181.07434619 117.7579342 181.03848579 119.87900562 181 122 C177.58108645 121.41717094 174.71233183 120.56015855 171.5859375 119.06640625 C170.75215576 118.6698584 169.91837402 118.27331055 169.05932617 117.86474609 C168.17349854 117.43500488 167.2876709 117.00526367 166.375 116.5625 C164.98535034 115.89468506 164.98535034 115.89468506 163.56762695 115.21337891 C155.78096054 111.44232334 148.12764593 107.4411116 140.4921875 103.375 C134.37069812 100.12140085 128.16387028 97.04343414 121.95166016 93.96777344 C118.6300312 92.32067097 115.31543171 90.65953109 112 89 C110.66669921 88.33326826 109.3333659 87.66660154 108 87 C83.953125 74.9765625 59.90625 62.953125 35.859375 50.9296875 C35.17810547 50.58945557 34.49683594 50.24922363 33.79492188 49.89868164 C32.44074928 49.22078698 31.08786186 48.54031839 29.73632812 47.85717773 C26.71564822 46.33374019 23.69791058 44.86461661 20.609375 43.48046875 C11.87858903 39.49896711 5.89056974 34.33143417 1.5 25.6875 C-1.40848449 17.68916764 -0.3170375 8.37710617 0 0 Z " fill="#0537A2" transform="translate(195,211)"/>
<path d="M0 0 C4.37895724 0.61849679 7.93360771 2.29539636 11.8125 4.3125 C13.22504316 5.03297819 14.63781945 5.75299942 16.05078125 6.47265625 C17.21794678 7.07037842 17.21794678 7.07037842 18.40869141 7.68017578 C23.42356475 10.2343877 28.46423151 12.73731441 33.5 15.25 C35.51051248 16.25501668 37.5209329 17.26021755 39.53125 18.265625 C40.46662598 18.73331299 41.40200195 19.20100098 42.36572266 19.68286133 C57.625 27.3125 57.625 27.3125 60.19921875 28.6015625 C62.15810512 29.57963965 64.1192336 30.55323334 66.08203125 31.5234375 C73.00725412 34.95783208 79.86048133 38.50017659 86.6875 42.125 C91.53112245 44.69425463 96.34840756 47.2398642 101.375 49.4375 C107.77651755 52.24378148 113.91046378 55.56850287 120.08032227 58.84472656 C124.69546567 61.29107011 129.32177824 63.65259204 134.0559082 65.85913086 C142.84551228 70.00411024 149.99697179 75.23830326 153.390625 84.66015625 C154.84581773 92.63573176 154.28963683 100.92804428 154 109 C149.88476285 107.70890623 146.09041615 106.17228731 142.23168945 104.2495575 C141.10461578 103.69028564 139.97754211 103.13101379 138.8163147 102.55479431 C137.58192687 101.93725094 136.34758387 101.31961795 135.11328125 100.7019043 C133.80210962 100.04931313 132.49077513 99.39704912 131.17929077 98.74508667 C127.62781722 96.97816195 124.078938 95.20608719 120.53072739 93.43262076 C118.31159106 92.32376457 116.09188859 91.21605042 113.87197876 90.10874367 C106.12128458 86.24264002 98.37266173 82.3724212 90.62597656 78.49829102 C83.41441467 74.89190921 76.19843792 71.2944768 68.98033237 67.70121258 C62.77433192 64.61130192 56.57144286 61.51520748 50.37092495 58.4143098 C46.67153919 56.56436239 42.97096369 54.71690091 39.26724243 52.87564659 C35.78347708 51.143469 32.30366141 49.40359975 28.82667923 47.65784836 C27.55344627 47.0201891 26.27885435 46.38523465 25.00278854 45.75326347 C9.67929792 38.15957729 9.67929792 38.15957729 4.75 30.5625 C4.27046875 29.84191406 3.7909375 29.12132812 3.296875 28.37890625 C-0.12168524 22.10811352 -0.2543477 16.59982597 -0.125 9.625 C-0.11597656 8.69816406 -0.10695312 7.77132813 -0.09765625 6.81640625 C-0.07422937 4.54399923 -0.04142748 2.2721382 0 0 Z " fill="#0537A2" transform="translate(222,275)"/>
<path d="M0 0 C1.03100526 22.98665875 1.03100526 22.98665875 -5 31 C-5.70125 32.0725 -6.4025 33.145 -7.125 34.25 C-11.2624095 38.20752213 -15.89751696 40.46702513 -21 43 C-22.23731812 43.62432871 -23.47428176 44.24936029 -24.7109375 44.875 C-28.10684144 46.58668773 -31.51185545 48.27946975 -34.91943359 49.96777344 C-38.28376097 51.63690934 -41.64161367 53.31895183 -45 55 C-46.33330076 55.66673181 -47.66663414 56.3333984 -49 57 C-49.99 57.495 -49.99 57.495 -51 58 C-74.33333333 69.66666667 -97.66666667 81.33333333 -121 93 C-121.66088623 93.3304834 -122.32177246 93.6609668 -123.00268555 94.00146484 C-124.32693671 94.66350949 -125.65131683 95.32529626 -126.97583008 95.98681641 C-130.4492595 97.72203303 -133.91988312 99.46257973 -137.38671875 101.2109375 C-138.46663086 101.75427734 -138.46663086 101.75427734 -139.56835938 102.30859375 C-140.94159276 102.99964023 -142.31404043 103.69225117 -143.68554688 104.38671875 C-147.07124486 106.08832084 -150.45551122 107.65810941 -154 109 C-154.91191357 83.13711803 -154.91191357 83.13711803 -147 74 C-146.34 74 -145.68 74 -145 74 C-145 73.34 -145 72.68 -145 72 C-139.37061352 67.34528899 -132.72662254 64.2539129 -126.125 61.25 C-119.14840599 58.00576052 -112.28023036 54.63691614 -105.5 51 C-98.04933092 47.01196663 -90.48559363 43.33928147 -82.8359375 39.75 C-76.97175497 36.98224423 -71.21700992 34.05926952 -65.5 31 C-58.05468039 27.01588248 -50.49788815 23.34402798 -42.85351562 19.75878906 C-36.81516596 16.90970859 -30.89020658 13.89310339 -25 10.75 C-4.82551377 0 -4.82551377 0 0 0 Z " fill="#0437A2" transform="translate(738,275)"/>
<path d="M0 0 C9.9 0 19.8 0 30 0 C30 44.55 30 89.1 30 135 C20.1 135 10.2 135 0 135 C0 90.45 0 45.9 0 0 Z " fill="#0537A2" transform="translate(720,405)"/>
<path d="M0 0 C9.9 0 19.8 0 30 0 C30 44.55 30 89.1 30 135 C20.1 135 10.2 135 0 135 C0 90.45 0 45.9 0 0 Z " fill="#0436A2" transform="translate(675,405)"/>
<path d="M0 0 C0.58920728 20.22944991 0.58920728 20.22944991 -3 27 C-3.4021875 27.76570313 -3.804375 28.53140625 -4.21875 29.3203125 C-9.6782868 38.51053277 -19.03947006 42.74468877 -28.36914062 47.36279297 C-29.36371277 47.86110123 -30.35828491 48.35940948 -31.38299561 48.87281799 C-34.63788018 50.50175219 -37.89695323 52.12210211 -41.15625 53.7421875 C-43.42808988 54.8765773 -45.69969282 56.01144173 -47.97106934 57.14675903 C-52.71327138 59.51556653 -57.45732333 61.88060437 -62.203125 64.2421875 C-68.30055609 67.27639187 -74.39420754 70.31810887 -80.48673248 73.36215019 C-85.16780913 75.700916 -89.85025443 78.03693609 -94.53300476 80.37234879 C-96.78198519 81.49398287 -99.0307747 82.61599986 -101.27937317 83.73839951 C-104.40720855 85.29890104 -107.53638291 86.8566811 -110.66601562 88.41357422 C-112.0700766 89.11476631 -112.0700766 89.11476631 -113.50250244 89.8301239 C-114.77242035 90.46080025 -114.77242035 90.46080025 -116.06799316 91.10421753 C-116.80756508 91.47251616 -117.54713699 91.84081478 -118.30912018 92.22027397 C-120 93 -120 93 -121 93 C-121.88991606 68.1987241 -121.88991606 68.1987241 -114.375 58.25 C-108.0816664 51.65340545 -98.97732678 47.83993171 -90.91625977 43.82080078 C-89.48752281 43.10259911 -89.48752281 43.10259911 -88.02992249 42.36988831 C-84.91911726 40.80760297 -81.80543188 39.25116764 -78.69140625 37.6953125 C-76.51561364 36.6054708 -74.33991008 35.5154513 -72.16429138 34.42526245 C-67.62431045 32.1515562 -63.08280749 29.88092514 -58.5402832 27.61230469 C-52.71041848 24.70028547 -46.88518009 21.77913941 -41.0611124 18.85554695 C-36.57920559 16.6072469 -32.09455689 14.36446137 -27.60908318 12.1232872 C-25.45868248 11.04782973 -23.30922969 9.97047476 -21.16073799 8.89120865 C-18.16930654 7.38935452 -15.17419032 5.89512115 -12.17797852 4.40283203 C-11.28810242 3.95407211 -10.39822632 3.50531219 -9.48138428 3.04295349 C-8.66712479 2.6393309 -7.8528653 2.23570831 -7.01393127 1.81985474 C-6.30699914 1.4663048 -5.60006701 1.11275486 -4.87171268 0.74849129 C-3 0 -3 0 0 0 Z " fill="#0537A2" transform="translate(678,355)"/>
<path d="M0 0 C4.11590874 0.93735304 7.76510755 2.63267386 11.5625 4.4375 C12.30773926 4.78949463 13.05297852 5.14148926 13.82080078 5.50415039 C20.23276198 8.56607195 26.50324028 11.86958796 32.76977539 15.21655273 C38.27642214 18.14030267 43.8480326 20.86936348 49.5 23.5 C56.80983094 26.90507436 63.96048744 30.54445306 71.07714844 34.33544922 C76.09902749 37.00872052 81.15155677 39.60107386 86.25 42.125 C88.18754806 43.09268566 90.12422263 44.06209463 92.06054688 45.03222656 C93.37749349 45.68937364 94.69659013 46.34222603 96.01757812 46.99121094 C106.28295086 52.05473695 116.28045571 57.24902835 120.390625 68.66015625 C121.84581773 76.63573176 121.28963683 84.92804428 121 93 C116.29169072 91.56577656 111.99186271 89.61488776 107.625 87.375 C106.19670478 86.65086373 104.76831682 85.92691037 103.33984375 85.203125 C102.25485596 84.65108398 102.25485596 84.65108398 101.14794922 84.08789062 C99.12578888 83.06370939 97.09800461 82.05218091 95.06640625 81.046875 C87.92344609 77.51009574 80.84796201 73.87124931 73.8125 70.125 C65.32931176 65.6170591 56.69906836 61.47209064 48.01171875 57.375 C41.59134245 54.34386861 35.23300307 51.19983222 28.91162109 47.96777344 C26.92525792 46.96216122 24.92628561 45.9849471 22.92578125 45.0078125 C12.51289529 39.82720951 5.33565616 34.09555017 1 23 C0.13987127 20.0781322 -0.11820817 17.49480897 -0.09765625 14.453125 C-0.09443359 13.60878906 -0.09121094 12.76445312 -0.08789062 11.89453125 C-0.07951172 11.02183594 -0.07113281 10.14914062 -0.0625 9.25 C-0.05798828 8.36183594 -0.05347656 7.47367187 -0.04882812 6.55859375 C-0.037074 4.37232671 -0.02064249 2.18619821 0 0 Z " fill="#0638A3" transform="translate(282,355)"/>
<path d="M0 0 C42.24 0 84.48 0 128 0 C128 9.9 128 19.8 128 30 C85.76 30 43.52 30 0 30 C0 20.1 0 10.2 0 0 Z " fill="#0A3BA4" transform="translate(150,405)"/>
<path d="M0 0 C41.91 0 83.82 0 127 0 C127 9.9 127 19.8 127 30 C85.09 30 43.18 30 0 30 C0 20.1 0 10.2 0 0 Z " fill="#0335A2" transform="translate(150,495)"/>
<path d="M0 0 C41.91 0 83.82 0 127 0 C127 9.9 127 19.8 127 30 C85.09 30 43.18 30 0 30 C0 20.1 0 10.2 0 0 Z " fill="#0537A2" transform="translate(150,450)"/>
<path d="M0 0 C2.58421021 1.33106305 3.37876817 2.89818872 4.80712891 5.41967773 C5.35369141 6.37036133 5.90025391 7.32104492 6.46337891 8.30053711 C7.33349609 9.85998047 7.33349609 9.85998047 8.22119141 11.45092773 C8.83478516 12.52665039 9.44837891 13.60237305 10.08056641 14.71069336 C12.01737357 18.11591657 13.93432517 21.53164728 15.84619141 24.95092773 C16.43819336 26.00666992 17.03019531 27.06241211 17.64013672 28.15014648 C19.96288705 32.29392268 22.28287253 36.43918877 24.59375 40.58959961 C29.14562397 48.75228027 33.83631839 56.82689604 38.56982422 64.88525391 C43.63437185 73.53087425 48.5393255 82.26040888 53.40478516 91.01928711 C53.95779297 92.01379883 54.51080078 93.00831055 55.08056641 94.03295898 C55.56750977 94.91185791 56.05445313 95.79075684 56.55615234 96.69628906 C57.58245111 98.48998117 58.69987684 100.23145589 59.84619141 101.95092773 C59.84619141 102.94092773 59.84619141 103.93092773 59.84619141 104.95092773 C59.19134766 105.3028418 58.53650391 105.65475586 57.86181641 106.01733398 C56.49283203 106.75790039 56.49283203 106.75790039 55.09619141 107.51342773 C54.09974609 108.05225586 53.10330078 108.59108398 52.07666016 109.14624023 C47.79308914 111.53923879 43.63153563 114.12150412 39.47509766 116.72827148 C36.84619141 117.95092773 36.84619141 117.95092773 34.85766602 117.80175781 C32.07999923 116.62683747 31.46241216 115.19437796 30.03369141 112.56030273 C29.52169189 111.63362793 29.00969238 110.70695313 28.48217773 109.75219727 C27.94230225 108.74527832 27.40242676 107.73835937 26.84619141 106.70092773 C25.68403997 104.5886134 24.52126609 102.47664143 23.35791016 100.36499023 C22.77187012 99.29152344 22.18583008 98.21805664 21.58203125 97.11206055 C18.9955739 92.4018707 16.33170865 87.73737716 13.65869141 83.07592773 C13.16159668 82.20581055 12.66450195 81.33569336 12.15234375 80.43920898 C9.13539488 75.16675534 6.07017695 69.92547514 2.97119141 64.70092773 C-1.84642596 56.57895686 -6.43420836 48.33235323 -11.02099609 40.07836914 C-14.75338765 33.38292832 -18.57050526 26.75763175 -22.66577148 20.27661133 C-24.34476371 17.57028498 -25.15380859 16.21005956 -25.15380859 12.95092773 C-21.41527297 10.74337326 -17.66133128 8.56348119 -13.90380859 6.38842773 C-12.84033203 5.76000977 -11.77685547 5.1315918 -10.68115234 4.48413086 C-9.65634766 3.89438477 -8.63154297 3.30463867 -7.57568359 2.69702148 C-6.63305664 2.14715576 -5.69042969 1.59729004 -4.71923828 1.03076172 C-2.15380859 -0.04907227 -2.15380859 -0.04907227 0 0 Z " fill="#0638A3" transform="translate(783.15380859375,421.049072265625)"/>
<path d="M0 0 C0.117791 3.31219232 0.18777155 6.62383492 0.25 9.9375 C0.28351563 10.86369141 0.31703125 11.78988281 0.3515625 12.74414062 C0.46849656 21.07569207 -1.60498321 27.94731135 -7.25 34.25 C-7.77078125 34.85328125 -8.2915625 35.4565625 -8.828125 36.078125 C-14.68533803 41.26112646 -21.76713015 44.44430954 -28.8125 47.6875 C-36.59764039 51.32823021 -44.22705475 55.17268951 -51.80029297 59.23339844 C-58.80384946 62.96060044 -65.94657309 66.36352006 -73.1484375 69.68945312 C-73.98503906 70.07939453 -74.82164062 70.46933594 -75.68359375 70.87109375 C-76.42150146 71.21068115 -77.15940918 71.55026855 -77.91967773 71.90014648 C-80.08129846 72.96411068 -80.08129846 72.96411068 -82.08227539 74.63305664 C-84 76 -84 76 -87 76 C-88.04693476 51.44696398 -88.04693476 51.44696398 -82 44 C-81.47664062 43.31421875 -80.95328125 42.6284375 -80.4140625 41.921875 C-71.51668716 31.74234513 -56.56768429 26.795594 -44.62841797 21.14404297 C-38.69954679 18.3283412 -32.8464882 15.41474695 -27.0625 12.3125 C-26.05703125 11.77326904 -26.05703125 11.77326904 -25.03125 11.22314453 C-24.36996094 10.86849121 -23.70867188 10.51383789 -23.02734375 10.1484375 C-18.75324266 7.85840253 -14.44945031 5.63084865 -10.125 3.4375 C-9.45218994 3.09050049 -8.77937988 2.74350098 -8.08618164 2.38598633 C-5.19132741 0.92790675 -3.28800508 0 0 0 Z " fill="#0537A2" transform="translate(644,422)"/>
<path d="M0 0 C5.21674679 1.52464164 9.69375911 3.8543093 14.4375 6.4375 C21.7414638 10.35408701 29.1296556 14.02673675 36.625 17.5625 C45.00387922 21.52062513 53.2366683 25.6695247 61.38671875 30.078125 C64.41634993 31.71183485 67.49956308 33.18176976 70.625 34.625 C75.35252951 36.99277794 78.73771125 39.84347982 82 44 C82.50789063 44.62648438 83.01578125 45.25296875 83.5390625 45.8984375 C89.17535789 54.6205259 87.42401904 66.05577502 87 76 C82.51773604 74.60987936 78.4133683 72.84828277 74.20361328 70.77880859 C73.22671036 70.30021393 73.22671036 70.30021393 72.23007202 69.81195068 C70.09116338 68.76208817 67.95542737 67.7059924 65.8203125 66.6484375 C65.0855859 66.28514973 64.3508593 65.92186195 63.59386826 65.54756546 C59.70489233 63.62387838 55.81852806 61.69502357 51.93408203 59.76220703 C47.9443207 57.77837693 43.94557758 55.81340704 39.94447517 53.8525753 C36.84880223 52.33101554 33.76042278 50.79507902 30.67376328 49.25532913 C29.20381147 48.52519079 27.7311849 47.80040955 26.25577164 47.08137131 C14.43270561 41.31018204 5.6996749 35.79798476 1 23 C0.67 22.34 0.34 21.68 0 21 C-0.08400529 19.40552536 -0.10727467 17.80759455 -0.09765625 16.2109375 C-0.09443359 15.26992188 -0.09121094 14.32890625 -0.08789062 13.359375 C-0.07951172 12.37453125 -0.07113281 11.3896875 -0.0625 10.375 C-0.05798828 9.38242187 -0.05347656 8.38984375 -0.04882812 7.3671875 C-0.03702145 4.9113984 -0.020554 2.45572896 0 0 Z " fill="#0537A2" transform="translate(316,422)"/>
<path d="M0 0 C2.5625 0.1875 2.5625 0.1875 4.5625 2.1875 C4.82128906 4.03515625 4.82128906 4.03515625 4.828125 6.25 C4.83070313 7.04664063 4.83328125 7.84328125 4.8359375 8.6640625 C4.82820312 9.49679687 4.82046875 10.32953125 4.8125 11.1875 C4.82023438 12.02023437 4.82796875 12.85296875 4.8359375 13.7109375 C4.83335937 14.50757813 4.83078125 15.30421875 4.828125 16.125 C4.82586914 16.85589844 4.82361328 17.58679688 4.82128906 18.33984375 C4.5625 20.1875 4.5625 20.1875 2.5625 22.1875 C-1.99305556 21.63194444 -1.99305556 21.63194444 -3.4375 20.1875 C-3.53610131 18.78401265 -3.56828937 17.37569523 -3.5703125 15.96875 C-3.57160156 15.11925781 -3.57289063 14.26976562 -3.57421875 13.39453125 C-3.57035156 12.50121094 -3.56648437 11.60789062 -3.5625 10.6875 C-3.56636719 9.79417969 -3.57023438 8.90085937 -3.57421875 7.98046875 C-3.57292969 7.13097656 -3.57164062 6.28148437 -3.5703125 5.40625 C-3.56918457 4.62185547 -3.56805664 3.83746094 -3.56689453 3.02929688 C-3.36591526 0.16856555 -2.86618843 0.22047603 0 0 Z " fill="#EBEFF7" transform="translate(734.4375,637.8125)"/>
<path d="M0 0 C2.375 -0.125 2.375 -0.125 5 0 C7.36568222 2.36568222 7.25571704 2.85232226 7.265625 6.0625 C7.26820313 6.85914063 7.27078125 7.65578125 7.2734375 8.4765625 C7.26570312 9.30929687 7.25796875 10.14203125 7.25 11 C7.25773438 11.83273437 7.26546875 12.66546875 7.2734375 13.5234375 C7.27085937 14.32007813 7.26828125 15.11671875 7.265625 15.9375 C7.26336914 16.66839844 7.26111328 17.39929688 7.25878906 18.15234375 C7 20 7 20 5 22 C0.44444444 21.44444444 0.44444444 21.44444444 -1 20 C-1.10011296 17.01133358 -1.13873975 14.05089547 -1.125 11.0625 C-1.12886719 10.22525391 -1.13273438 9.38800781 -1.13671875 8.52539062 C-1.13542969 7.72423828 -1.13414062 6.92308594 -1.1328125 6.09765625 C-1.13168457 5.36039307 -1.13055664 4.62312988 -1.12939453 3.86352539 C-1 2 -1 2 0 0 Z " fill="#EBEFF7" transform="translate(732,698)"/>
<path d="M0 0 C0.66 0.33 1.32 0.66 2 1 C-9.55 12.55 -21.1 24.1 -33 36 C-33 33 -33 33 -31.13671875 30.87890625 C-30.32847656 30.11449219 -29.52023438 29.35007813 -28.6875 28.5625 C-26.36599735 26.35314724 -24.22270119 24.30510584 -22.33203125 21.71484375 C-21.89246094 21.14894531 -21.45289063 20.58304688 -21 20 C-20.34 20 -19.68 20 -19 20 C-18.74347656 19.40574219 -18.48695313 18.81148437 -18.22265625 18.19921875 C-16.88290435 15.78937747 -15.5626757 14.55128012 -13.4375 12.8125 C-8.68723621 8.80310304 -4.34736751 4.43793766 0 0 Z " fill="#DEE4F3" transform="translate(200,166)"/>
<path d="M0 0 C0.5880542 0.22324951 1.1761084 0.44649902 1.78198242 0.67651367 C1.06397461 1.23209961 0.3459668 1.78768555 -0.39379883 2.36010742 C-3.2326056 4.68847868 -5.81400304 7.13965794 -8.40551758 9.73901367 C-9.26532227 10.59624023 -10.12512695 11.4534668 -11.01098633 12.33666992 C-13.33298301 14.66760928 -13.33298301 14.66760928 -15.21801758 17.67651367 C-15.89453125 15.89453125 -15.89453125 15.89453125 -16.21801758 13.67651367 C-15.10986328 11.92138672 -15.10986328 11.92138672 -13.39379883 10.18823242 C-12.77698242 9.5649707 -12.16016602 8.94170898 -11.5246582 8.29956055 C-10.8665918 7.66083008 -10.20852539 7.02209961 -9.53051758 6.36401367 C-8.89178711 5.70594727 -8.25305664 5.04788086 -7.5949707 4.36987305 C-6.97170898 3.75305664 -6.34844727 3.13624023 -5.70629883 2.50073242 C-5.13435791 1.93443115 -4.56241699 1.36812988 -3.97314453 0.78466797 C-2.21801758 -0.32348633 -2.21801758 -0.32348633 0 0 Z " fill="#345DB4" transform="translate(149.218017578125,133.323486328125)"/>
<path d="M0 0 C0.66 0 1.32 0 2 0 C1.67 0.99 1.34 1.98 1 3 C0.84629652 5.72883073 0.74271735 8.43697142 0.68359375 11.16796875 C0.66281265 11.96278152 0.64203156 12.7575943 0.62062073 13.57649231 C0.55527913 16.11340763 0.49631192 18.65042573 0.4375 21.1875 C0.39430014 22.90821372 0.35068537 24.62891708 0.30664062 26.34960938 C0.19961352 30.56630113 0.09830276 34.7830962 0 39 C-0.66 38.67 -1.32 38.34 -2 38 C-1.88205894 32.7487788 -1.75783398 27.49775903 -1.62768555 22.24682617 C-1.584273 20.4591073 -1.54260271 18.67134526 -1.50268555 16.88354492 C-1.4451354 14.31936609 -1.38139797 11.75540588 -1.31640625 9.19140625 C-1.29969376 8.3872377 -1.28298126 7.58306915 -1.26576233 6.75453186 C-1.11387171 1.11387171 -1.11387171 1.11387171 0 0 Z " fill="#CDD7ED" transform="translate(451,381)"/>
<path d="M0 0 C1.98 0.99 1.98 0.99 4 2 C3.01 2.495 3.01 2.495 2 3 C1.67 14.22 1.34 25.44 1 37 C0.67 37 0.34 37 0 37 C0 24.79 0 12.58 0 0 Z " fill="#325BB3" transform="translate(510,278)"/>
<path d="M0 0 C0.33 0 0.66 0 1 0 C0.98952637 0.71655762 0.97905273 1.43311523 0.96826172 2.17138672 C0.92678701 5.40588905 0.90070108 8.64033553 0.875 11.875 C0.85824219 13.00292969 0.84148437 14.13085938 0.82421875 15.29296875 C0.81777344 16.36933594 0.81132812 17.44570313 0.8046875 18.5546875 C0.79421387 19.54968262 0.78374023 20.54467773 0.77294922 21.56982422 C0.75620599 24.18171417 0.75620599 24.18171417 3 26 C1.35 25.67 -0.3 25.34 -2 25 C-2.30221599 16.53795229 -1.14920797 8.36254017 0 0 Z " fill="#5073BE" transform="translate(347,916)"/>
<path d="M0 0 C0.66 0.33 1.32 0.66 2 1 C-1.63 4.63 -5.26 8.26 -9 12 C-9.66 11.67 -10.32 11.34 -11 11 C-9.92173635 9.72486237 -8.83714481 8.45507431 -7.75 7.1875 C-7.14671875 6.47980469 -6.5434375 5.77210938 -5.921875 5.04296875 C-4.07629602 3.08110329 -2.20054668 1.54330375 0 0 Z " fill="#2B56B1" transform="translate(437,351)"/>
<path d="M0 0 C0.66 0.33 1.32 0.66 2 1 C-1.3 4.3 -4.6 7.6 -8 11 C-8.66 10.67 -9.32 10.34 -10 10 C-8.90033225 8.70450101 -7.79508199 7.41373929 -6.6875 6.125 C-6.07261719 5.40570313 -5.45773437 4.68640625 -4.82421875 3.9453125 C-3 2 -3 2 0 0 Z " fill="#2B55B1" transform="translate(598,293)"/>
<path d="M0 0 C2.475 0.99 2.475 0.99 5 2 C4.443125 2.226875 3.88625 2.45375 3.3125 2.6875 C0.36753316 4.35896766 -1.68156544 6.55276352 -4 9 C-4.66 8.67 -5.32 8.34 -6 8 C-4.02 5.36 -2.04 2.72 0 0 Z " fill="#335CB4" transform="translate(105,179)"/>
<path d="M0 0 C0.66 0.33 1.32 0.66 2 1 C-1.63 4.63 -5.26 8.26 -9 12 C-9 7.8407692 -6.75316432 5.85455565 -4 3 C-1.6875 1.125 -1.6875 1.125 0 0 Z " fill="#3059B2" transform="translate(571,407)"/>
<path d="M0 0 C1.45742463 -0.08096803 2.91612807 -0.13917774 4.375 -0.1875 C5.18710937 -0.22230469 5.99921875 -0.25710937 6.8359375 -0.29296875 C7.55007813 -0.19628906 8.26421875 -0.09960938 9 0 C11 3 11 3 10.625 5.1875 C10.41875 5.785625 10.2125 6.38375 10 7 C9.835 6.38125 9.67 5.7625 9.5 5.125 C7.09818625 1.72243051 3.99837866 1.77387974 0 1 C0 0.67 0 0.34 0 0 Z " fill="#4C70BD" transform="translate(419,3)"/>
<path d="M0 0 C-1.66666667 3.33333333 -3.33333333 6.66666667 -5 10 C-7 7 -7 7 -7 4 C-2.65714286 0 -2.65714286 0 0 0 Z " fill="#2752AF" transform="translate(66,705)"/>
<path d="M0 0 C0.66 0.33 1.32 0.66 2 1 C-0.97 3.97 -3.94 6.94 -7 10 C-7.66 9.67 -8.32 9.34 -9 9 C-6.31941902 5.42589203 -3.57410797 2.68058098 0 0 Z " fill="#2752AF" transform="translate(436,577)"/>
<path d="M0 0 C3.5 0.3125 3.5 0.3125 7 1 C7.33 1.66 7.66 2.32 8 3 C6.9275 2.938125 5.855 2.87625 4.75 2.8125 C0.89133813 3.00543309 -0.28817788 3.39665076 -3 6 C-1.125 1.125 -1.125 1.125 0 0 Z " fill="#375EB5" transform="translate(69,231)"/>
<path d="M0 0 C0.66 0.33 1.32 0.66 2 1 C1.04882866 2.1725131 0.08882991 3.33787015 -0.875 4.5 C-1.40867187 5.1496875 -1.94234375 5.799375 -2.4921875 6.46875 C-2.98976563 6.9740625 -3.48734375 7.479375 -4 8 C-4.66 8 -5.32 8 -6 8 C-4.55746343 4.63408134 -2.66735273 2.48952921 0 0 Z " fill="#2E57B2" transform="translate(433,249)"/>
<path d="M0 0 C-0.9590625 0.556875 -0.9590625 0.556875 -1.9375 1.125 C-4.63858072 3.58052793 -4.68407005 5.44578805 -5 9 C-5.33 9 -5.66 9 -6 9 C-6 6.03 -6 3.06 -6 0 C-3.50907189 -1.24546405 -2.58919267 -0.7767578 0 0 Z " fill="#375FB5" transform="translate(9,531)"/>
<path d="M0 0 C2 0.0625 2 0.0625 4 1 C5.25 3.5625 5.25 3.5625 6 6 C5.34 6 4.68 6 4 6 C4 5.01 4 4.02 4 3 C1.03 2.505 1.03 2.505 -2 2 C-1.34 1.34 -0.68 0.68 0 0 Z " fill="#476CBB" transform="translate(781,421)"/>
</svg>
