<?xml version="1.0" encoding="UTF-8"?>
<svg version="1.1" xmlns="http://www.w3.org/2000/svg" width="950" height="540">
<path d="M0 0 C313.5 0 627 0 950 0 C950 178.2 950 356.4 950 540 C636.5 540 323 540 0 540 C0 361.8 0 183.6 0 0 Z " fill="#B4F1EE" transform="translate(0,0)"/>
<path d="M0 0 C68.31 0 136.62 0 207 0 C207 178.2 207 356.4 207 540 C138.69 540 70.38 540 0 540 C-2.31 537.69 -4.62 535.38 -7 533 C-7.86625 532.154375 -8.7325 531.30875 -9.625 530.4375 C-12 528 -12 528 -14.4375 525 C-17.06751232 521.92096119 -19.8625034 519.54921599 -23 517 C-25.68720976 514.44387364 -28.09748464 511.8800189 -30.4375 509 C-32.37891633 506.72712235 -34.02159784 505.07841957 -36.3125 503.25 C-37.6428125 502.13625 -37.6428125 502.13625 -39 501 C-39 500.34 -39 499.68 -39 499 C-39.60328125 498.73574219 -40.2065625 498.47148437 -40.828125 498.19921875 C-43.1042287 496.94244926 -44.16818433 495.84559838 -45.75 493.8125 C-47.96923148 491.1069382 -50.26252828 488.81837557 -52.9375 486.5625 C-56.42626807 483.60434304 -59.32534506 480.39728646 -62.27734375 476.9140625 C-64.41589036 474.5378996 -66.74270564 472.5247913 -69.2265625 470.51953125 C-74.82936346 465.71889343 -79.68568671 460.05672566 -84.65234375 454.61523438 C-88.06876661 450.9172382 -91.57526966 447.51190274 -95.45678711 444.30297852 C-97.78033455 442.34114136 -99.87998554 440.17731215 -102 438 C-103.1446875 436.9171875 -103.1446875 436.9171875 -104.3125 435.8125 C-106 434 -106 434 -106 432 C-106.639375 431.731875 -107.27875 431.46375 -107.9375 431.1875 C-110 430 -110 430 -111 427 C-112.31433229 426.29661329 -113.65078789 425.63391553 -115 425 C-116.73925781 423.51953125 -116.73925781 423.51953125 -118.453125 421.8125 C-119.071875 421.19632812 -119.690625 420.58015625 -120.328125 419.9453125 C-120.96234375 419.30335938 -121.5965625 418.66140625 -122.25 418 C-122.8996875 417.35804688 -123.549375 416.71609375 -124.21875 416.0546875 C-124.83234375 415.43851562 -125.4459375 414.82234375 -126.078125 414.1875 C-126.63918945 413.62417969 -127.20025391 413.06085938 -127.77832031 412.48046875 C-129 411 -129 411 -129 409 C-129.81538553 408.67217372 -129.81538553 408.67217372 -130.6472435 408.33772469 C-133.78482991 406.55376328 -136.12715628 404.14168597 -138.644104 401.59640503 C-139.20288482 401.03933306 -139.76166564 400.48226109 -140.33737922 399.90830815 C-142.20919798 398.03978456 -144.07377721 396.16420069 -145.93847656 394.28857422 C-147.27852143 392.94796524 -148.61900678 391.60779643 -149.9598999 390.26803589 C-153.60040279 386.62810753 -157.23470023 382.98203943 -160.86793232 379.33485556 C-164.6653614 375.52493591 -168.4684435 371.72066784 -172.27093506 367.915802 C-179.47134033 360.70917704 -186.66663157 353.49746835 -193.86010909 346.28392899 C-202.04957417 338.07212014 -210.24470944 329.86598004 -218.44033098 321.66031623 C-235.29988039 304.77985375 -252.15228013 287.89226851 -269 271 C-267.4961713 267.48524758 -265.46958633 265.21903538 -262.77706146 262.52537918 C-261.88604689 261.62914912 -260.99503232 260.73291905 -260.07701731 259.8095305 C-259.08215687 258.81899423 -258.08720205 257.82855273 -257.09216309 256.8381958 C-256.03961388 255.78334278 -254.98750117 254.72805406 -253.93578863 253.67236686 C-251.04126865 250.76947975 -248.14052138 247.87288558 -245.23872447 244.97727513 C-242.11172445 241.85479064 -238.99047306 238.726569 -235.8684845 235.59907532 C-229.75086123 229.47254741 -223.62782926 223.35145268 -217.50285685 217.23227295 C-212.52737682 212.26130437 -207.55384585 207.28839359 -202.58171082 202.31407928 C-201.87484212 201.60690413 -201.16797343 200.89972897 -200.43968448 200.17112426 C-199.00385953 198.73465988 -197.56803907 197.298191 -196.13222307 195.86171767 C-182.66137195 182.38516033 -169.1843916 168.91474581 -155.70531791 155.44641325 C-144.12835564 143.87839062 -132.55665273 132.30512869 -120.98876953 120.72802734 C-107.56647413 107.29504113 -94.14095596 93.8652896 -80.71023989 80.44072223 C-79.27958545 79.01070491 -77.8489352 77.5806834 -76.41828918 76.15065765 C-75.71431247 75.44698949 -75.01033575 74.74332132 -74.2850264 74.01832987 C-69.31326533 69.04829902 -64.3438358 64.07594416 -59.37528992 59.10269928 C-53.32563964 53.04745353 -47.27246708 46.995756 -41.2146796 40.94865045 C-38.12133383 37.86057884 -35.02964195 34.7708967 -31.9422245 31.67689705 C-29.1202604 28.8490075 -26.29378336 26.02571474 -23.46351224 23.20613989 C-22.43622211 22.18109829 -21.41064423 21.15433747 -20.38688916 20.12576523 C-19.00348808 18.73635118 -17.61341292 17.35359159 -16.22293854 15.97125626 C-15.45015265 15.19879507 -14.67736676 14.42633389 -13.88116312 13.63046479 C-12 12 -12 12 -10 12 C-9.34 10.68 -8.68 9.36 -8 8 C-5.36 5.36 -2.72 2.72 0 0 Z " fill="#FEFEFE" transform="translate(743,0)"/>
<path d="M0 0 C176.22 0 352.44 0 534 0 C530.30105755 4.31543285 526.73041245 8.42656291 522.75 12.4375 C521.89921875 13.30246094 521.0484375 14.16742188 520.171875 15.05859375 C518 17 518 17 516 17 C515.67 17.99 515.34 18.98 515 20 C512.64135562 22.55519808 510.2490184 24.80701074 507.5 26.9375 C504.57679375 29.34914516 502.39404964 32.0672892 500 35 C496.01946249 39.2079968 491.67339867 43.00013897 487.36328125 46.86328125 C483.81872095 50.06803246 480.55960086 53.32847897 477.5 57 C474.31012133 60.8278544 471.00930361 64.18816883 467.125 67.3125 C463.9224848 69.92226174 461.33597799 72.94980533 458.65625 76.08203125 C455.69919161 79.50636066 452.57952433 82.53144842 449.0625 85.375 C446.15304749 87.74732282 443.8283529 90.43143811 441.4296875 93.30859375 C438.39995979 96.89294375 435.02889202 99.99698497 431.4375 103 C428.55772117 105.43195146 426.30342609 108.00554608 424 111 C422.3545622 112.68762851 420.68711423 114.3540349 419 116 C417.9171875 117.11375 417.9171875 117.11375 416.8125 118.25 C414.44863491 120.56133476 412.03815571 122.74905271 409.5625 124.9375 C403.30621111 130.52682716 397.43142378 136.48563 391.53442383 142.44921875 C388.16762566 145.851908 384.77262877 149.22585893 381.37109375 152.59375 C380.05985012 153.8957873 378.74865311 155.19787155 377.4375 156.5 C376.77814453 157.15097656 376.11878906 157.80195313 375.43945312 158.47265625 C372.05812261 161.83699515 368.91092435 165.20966291 366 169 C362.8371441 172.34890625 359.44520201 175.38588932 356 178.4375 C352.27394223 181.76611161 349.10259662 185.09959283 346 189 C343.30194081 191.84006231 340.50490618 194.43341151 337.5 196.9375 C335.22142785 198.85836082 333.48950464 200.61521236 331.5625 202.9375 C329.5681022 205.32104859 327.82008617 207.08598749 325.47924805 209.05810547 C320.33386164 213.51002413 315.56499421 218.31001486 310.76953125 223.1328125 C309.80667368 224.09754143 308.84359044 225.06204516 307.8802948 226.02633667 C305.36642948 228.54398437 302.85557983 231.06461798 300.34539795 233.5859375 C297.79524002 236.1463509 295.24223233 238.70391927 292.68945312 241.26171875 C288.95134282 245.0077469 285.214749 248.75527717 281.47973633 252.50439453 C278.32311973 255.67291338 275.16430034 258.83915581 272 262 C271.33355469 262.66644531 270.66710937 263.33289063 269.98046875 264.01953125 C268.3203125 265.6796875 266.66015625 267.33984375 265 269 C265.66 270.65 266.32 272.3 267 274 C266.31662064 274.031436 265.63324127 274.06287201 264.92915344 274.09526062 C260.59397461 275.43428471 258.24266403 278.26374604 255.13354492 281.47583008 C254.46291519 282.15230087 253.79228546 282.82877167 253.10133362 283.52574158 C251.64714099 284.99514808 250.19758779 286.46915719 248.75215721 287.94718361 C246.46123531 290.2891936 244.15801784 292.61844935 241.85115051 294.94474792 C236.12218816 300.7271848 230.41501525 306.53097706 224.70721436 312.33428955 C219.88633404 317.23423387 215.05726205 322.12582193 210.21706581 327.00668907 C207.95325285 329.29634437 205.70187823 331.59775911 203.45072937 333.89985657 C202.05263242 335.31249385 200.65396504 336.72456687 199.25463867 338.13598633 C198.63670441 338.77458588 198.01877014 339.41318542 197.3821106 340.07113647 C193.78550285 343.66945516 190.44731657 345.96468895 185.82851696 348.07877827 C183.14128036 349.43262995 181.23704343 351.28388573 179.13208008 353.41381836 C178.2679097 354.27829086 177.40373932 355.14276337 176.51338196 356.03343201 C175.60791122 356.95954788 174.70244049 357.88566376 173.76953125 358.83984375 C172.8073371 359.80951817 171.8442412 360.77829853 170.8802948 361.74623108 C168.35966931 364.28202678 165.85127939 366.8295882 163.34539795 369.37994385 C160.80069095 371.96558501 158.24463546 374.53995203 155.68945312 377.11523438 C151.94670339 380.8896948 148.21010038 384.67007454 144.47973633 388.45678711 C140.49942868 392.49684754 136.50307387 396.51776999 132.46484375 400.5 C131.63082031 401.325 130.79679688 402.15 129.9375 403 C128.68259766 404.2375 128.68259766 404.2375 127.40234375 405.5 C124.94319132 407.97145779 124.94319132 407.97145779 122.81640625 410.8125 C122.21699219 411.534375 121.61757812 412.25625 121 413 C120.34 413 119.68 413 119 413 C119 413.66 119 414.32 119 415 C118.34 415 117.68 415 117 415 C117 415.66 117 416.32 117 417 C115.4609375 418.55078125 115.4609375 418.55078125 113.375 420.3125 C112.65054688 420.93125 111.92609375 421.55 111.1796875 422.1875 C109.83931571 423.30207439 108.49182946 424.40823742 107.1328125 425.5 C105.72578512 426.63100765 104.35858424 427.81123879 103 429 C103 429.66 103 430.32 103 431 C101.6796875 432.26171875 101.6796875 432.26171875 99.875 433.6875 C97.28788209 435.82174214 95.06872451 437.97337315 92.9375 440.5625 C90.22760509 443.84176113 87.30677591 446.3264365 84 449 C82.31288577 450.6459651 80.6454378 452.31237149 79 454 C75.91649403 457.09505468 72.81700811 460.17365069 69.71484375 463.25 C68.12233542 464.83327257 66.52988907 466.41660748 64.9375 468 C63.73383789 469.19109375 63.73383789 469.19109375 62.50585938 470.40625 C58.7650636 474.1315238 55.25129023 477.83285337 52 482 C50.84520438 483.07780925 49.65969934 484.12427303 48.4375 485.125 C46.66054907 486.58930255 44.99423063 488.0060954 43.41015625 489.6796875 C42 491 42 491 40 491 C39.6596875 491.8353125 39.6596875 491.8353125 39.3125 492.6875 C37.65016521 495.61637557 35.38622939 497.66428025 33 500 C31.50903599 501.48820137 30.01960138 502.97793573 28.53125 504.46875 C25.17708333 507.82291667 21.82291667 511.17708333 18.46875 514.53125 C17.68806152 515.31282471 16.90737305 516.09439941 16.10302734 516.8996582 C14.86744867 518.13365905 13.62931956 519.365132 12.38525391 520.59057617 C10.21530651 522.7295013 8.21818642 524.88626482 6.375 527.3125 C5.59125 528.199375 4.8075 529.08625 4 530 C3.01 530 2.02 530 1 530 C0.22887365 498.21868865 -0.14633328 466.45878443 -0.11607273 434.66853122 C-0.11159558 428.71812102 -0.11317439 422.76771127 -0.11389065 416.81729984 C-0.11441489 405.35077206 -0.10987127 393.88425234 -0.10338932 382.41772661 C-0.09609625 369.10925354 -0.09538955 355.80078507 -0.09460449 342.49230957 C-0.08938645 307.47403847 -0.0754252 272.45576911 -0.0625 237.4375 C-0.041875 159.083125 -0.02125 80.72875 0 0 Z " fill="#45DDC4" transform="translate(0,0)"/>
<path d="M0 0 C3.50922362 0.85937681 5.50091066 3.28720925 7.86343384 5.860672 C8.34038696 6.36018372 8.81734009 6.85969543 9.30874634 7.37434387 C10.62751153 8.7572157 11.93345193 10.15228578 13.23843384 11.548172 C13.84429321 12.11922668 14.45015259 12.69028137 15.07437134 13.27864075 C16.23843384 14.548172 16.23843384 14.548172 16.23843384 16.548172 C17.10661743 16.90975403 17.10661743 16.90975403 17.99234009 17.27864075 C20.66503052 18.78929186 22.19237938 20.52361278 24.17593384 22.860672 C27.06767416 26.24682518 30.07775496 29.41134565 33.23843384 32.548172 C33.98808914 33.29338608 34.73774445 34.03860016 35.51011658 34.80639648 C36.28066879 35.57091629 37.05122101 36.3354361 37.84512329 37.12312317 C42.18726519 41.43343195 46.52511485 45.74801353 50.85975361 50.06586742 C53.47531276 52.67093049 56.09273822 55.27406336 58.71426392 57.87312317 C61.25957062 60.39676719 63.80002008 62.92520648 66.33711815 65.45710182 C67.30386283 66.42014621 68.27236841 67.38142621 69.24263954 68.34091759 C70.59259925 69.67644557 71.93583652 71.01875848 73.27871704 72.36140442 C74.42857841 73.50460396 74.42857841 73.50460396 75.60166931 74.67089844 C77.23843384 76.548172 77.23843384 76.548172 77.23843384 78.548172 C77.7956311 78.77939758 78.35282837 79.01062317 78.9269104 79.24885559 C81.85459364 80.89451784 83.86228572 82.94792451 86.22280884 85.3372345 C86.68326599 85.80052155 87.14372314 86.26380859 87.61813354 86.74113464 C89.07968462 88.21383098 90.53410552 89.69334602 91.98843384 91.173172 C92.98145995 92.17623521 93.97494473 93.17884457 94.96890259 94.1809845 C97.39741324 96.63148035 99.81958059 99.08813869 102.23843384 101.548172 C101.23843384 103.548172 100.23843384 105.548172 99.23843384 107.548172 C101.21843384 106.063172 101.21843384 106.063172 103.23843384 104.548172 C108.18734157 107.10569622 111.69506321 110.74308463 115.56387329 114.66242981 C116.28327087 115.38314163 117.00266846 116.10385345 117.74386597 116.84640503 C120.11778151 119.2268037 122.48463955 121.61409821 124.85171509 124.001297 C126.50641138 125.66226767 128.16162654 127.32272159 129.81733704 128.98268127 C134.17668366 133.35532862 138.53043492 137.73350135 142.88259888 142.11329651 C149.83632898 149.11013154 156.79669998 156.10034315 163.76045799 163.08719635 C166.18452684 165.52143181 168.60511876 167.95908492 171.02537537 170.39710999 C172.52506799 171.90363733 174.02487395 173.41005186 175.52481079 174.91633606 C176.18949875 175.58776138 176.85418671 176.25918671 177.53901672 176.95095825 C181.45473865 180.87602892 185.48950066 184.55133796 189.7596159 188.08991623 C190.24762582 188.57114063 190.73563574 189.05236504 191.23843384 189.548172 C191.23843384 190.208172 191.23843384 190.868172 191.23843384 191.548172 C191.87780884 191.816297 192.51718384 192.084422 193.17593384 192.360672 C195.23843384 193.548172 195.23843384 193.548172 196.23843384 196.548172 C197.22843384 196.878172 198.21843384 197.208172 199.23843384 197.548172 C199.23843384 198.208172 199.23843384 198.868172 199.23843384 199.548172 C199.83655884 199.816297 200.43468384 200.084422 201.05093384 200.360672 C203.23691237 201.54734606 204.65175978 202.64416312 206.23843384 204.548172 C206.23843384 205.208172 206.23843384 205.868172 206.23843384 206.548172 C206.85718384 206.795672 207.47593384 207.043172 208.11343384 207.298172 C210.6420201 208.78557568 210.95682388 209.98495208 212.23843384 212.548172 C212.80634644 212.81073792 213.37425903 213.07330383 213.9593811 213.34382629 C217.05829963 214.98142298 219.27619405 217.33934735 221.70327759 219.81770325 C222.47605797 220.59472847 222.47605797 220.59472847 223.26445007 221.38745117 C224.90638334 223.04053915 226.54123403 224.70043377 228.17593384 226.360672 C229.27117193 227.46595071 230.36687054 228.57077328 231.46304321 229.67512512 C233.48862314 231.71698585 235.51142326 233.76151668 237.53115845 235.80915833 C241.43621953 239.75999972 245.36982677 243.68156745 249.31163025 247.59571838 C251.35702213 249.62766666 253.39969026 251.66234448 255.44229126 253.69709778 C256.52279771 254.77252065 257.60419159 255.84705258 258.68643188 256.92073059 C260.25426817 258.47651931 261.81892413 260.03544408 263.38296509 261.595047 C264.31471558 262.52156067 265.24646606 263.44807434 266.20645142 264.40266418 C268.23843384 266.548172 268.23843384 266.548172 268.23843384 267.548172 C92.01843384 267.548172 -84.20156616 267.548172 -265.76156616 267.548172 C-265.76156616 248.078172 -265.76156616 228.608172 -265.76156616 208.548172 C-265.43156616 208.548172 -265.10156616 208.548172 -264.76156616 208.548172 C-264.76156616 224.718172 -264.76156616 240.888172 -264.76156616 257.548172 C-263.77156616 257.548172 -262.78156616 257.548172 -261.76156616 257.548172 C-261.53469116 256.991297 -261.30781616 256.434422 -261.07406616 255.860672 C-259.3860658 252.88657612 -257.294801 250.82808335 -254.76156616 248.548172 C-254.10156616 248.548172 -253.44156616 248.548172 -252.76156616 248.548172 C-252.52437866 247.98646301 -252.28719116 247.42475403 -252.04281616 246.84602356 C-250.46837259 244.02234542 -248.54472071 242.07202357 -246.26156616 239.782547 C-245.37469116 238.89309387 -244.48781616 238.00364075 -243.57406616 237.0872345 C-242.64594116 236.16684387 -241.71781616 235.24645325 -240.76156616 234.298172 C-239.36937866 232.89438293 -239.36937866 232.89438293 -237.94906616 231.4622345 C-237.06219116 230.57793762 -236.17531616 229.69364075 -235.26156616 228.782547 C-234.03953491 227.56389954 -234.03953491 227.56389954 -232.79281616 226.32063293 C-230.76156616 224.548172 -230.76156616 224.548172 -228.76156616 224.548172 C-228.49344116 223.950047 -228.22531616 223.351922 -227.94906616 222.735672 C-226.7623921 220.54969346 -225.66557504 219.13484606 -223.76156616 217.548172 C-223.10156616 217.548172 -222.44156616 217.548172 -221.76156616 217.548172 C-221.43156616 216.558172 -221.10156616 215.568172 -220.76156616 214.548172 C-220.10156616 214.548172 -219.44156616 214.548172 -218.76156616 214.548172 C-218.49344116 213.908797 -218.22531616 213.269422 -217.94906616 212.610672 C-216.76156616 210.548172 -216.76156616 210.548172 -213.76156616 209.548172 C-213.43156616 208.558172 -213.10156616 207.568172 -212.76156616 206.548172 C-212.10156616 206.548172 -211.44156616 206.548172 -210.76156616 206.548172 C-210.51084351 205.97292786 -210.26012085 205.39768372 -210.00180054 204.80500793 C-208.59427789 202.24376004 -206.97986591 200.50759808 -204.91781616 198.438797 C-204.16629272 197.68469543 -203.41476929 196.93059387 -202.64047241 196.15364075 C-201.85543335 195.37633606 -201.07039429 194.59903137 -200.26156616 193.798172 C-199.4765271 193.00539856 -198.69148804 192.21262512 -197.88265991 191.39582825 C-197.13113647 190.64688293 -196.37961304 189.89793762 -195.60531616 189.126297 C-194.91631226 188.43954895 -194.22730835 187.7528009 -193.51742554 187.04524231 C-191.76156616 185.548172 -191.76156616 185.548172 -189.76156616 185.548172 C-189.49344116 184.950047 -189.22531616 184.351922 -188.94906616 183.735672 C-187.7623921 181.54969346 -186.66557504 180.13484606 -184.76156616 178.548172 C-184.10156616 178.548172 -183.44156616 178.548172 -182.76156616 178.548172 C-182.10156616 177.228172 -181.44156616 175.908172 -180.76156616 174.548172 C-180.10156616 174.548172 -179.44156616 174.548172 -178.76156616 174.548172 C-178.43156616 173.558172 -178.10156616 172.568172 -177.76156616 171.548172 C-177.10156616 171.548172 -176.44156616 171.548172 -175.76156616 171.548172 C-175.49344116 170.908797 -175.22531616 170.269422 -174.94906616 169.610672 C-173.76156616 167.548172 -173.76156616 167.548172 -170.76156616 166.548172 C-170.47281616 165.970672 -170.18406616 165.393172 -169.88656616 164.798172 C-168.38370425 161.79244817 -166.15434851 159.87960096 -163.76156616 157.548172 C-163.43156616 156.888172 -163.10156616 156.228172 -162.76156616 155.548172 C-161.66933651 154.49235 -160.53910946 153.47530306 -159.38656616 152.485672 C-158.78070679 151.95844543 -158.17484741 151.43121887 -157.55062866 150.88801575 C-155.76156616 149.548172 -155.76156616 149.548172 -152.76156616 148.548172 C-151.5527452 146.54800733 -151.5527452 146.54800733 -150.76156616 144.548172 C-150.10156616 144.548172 -149.44156616 144.548172 -148.76156616 144.548172 C-148.76156616 143.888172 -148.76156616 143.228172 -148.76156616 142.548172 C-148.10156616 142.548172 -147.44156616 142.548172 -146.76156616 142.548172 C-146.76156616 141.888172 -146.76156616 141.228172 -146.76156616 140.548172 C-145.62784781 139.3506421 -144.4840001 138.16127567 -143.29428101 137.0193634 C-141.66027556 135.45094722 -140.0794077 133.8393071 -138.49984741 132.21614075 C-137.35798311 131.05592271 -136.21605517 129.89576729 -135.07406616 128.735672 C-134.49334351 128.13819153 -133.91262085 127.54071106 -133.31430054 126.92512512 C-131.8343104 125.42802527 -130.30173834 123.98328468 -128.76156616 122.548172 C-128.10156616 122.548172 -127.44156616 122.548172 -126.76156616 122.548172 C-126.51726364 121.9798616 -126.27296112 121.41155121 -126.02125549 120.82601929 C-124.5324002 118.1337801 -122.77176204 116.28967202 -120.60653687 114.10261536 C-119.31928459 112.79622353 -119.31928459 112.79622353 -118.00602722 111.46343994 C-117.07586288 110.53104996 -116.14569855 109.59865997 -115.18734741 108.63801575 C-114.22033784 107.66457429 -113.25347714 106.69098494 -112.28675842 105.71725464 C-110.26018619 103.6787202 -108.2295352 101.64434942 -106.19638062 99.61238098 C-103.60162313 97.01782643 -101.02088179 94.40980496 -98.44352436 91.79798031 C-96.45057277 89.78270399 -94.4485076 87.77667216 -92.44383812 85.77305794 C-91.02704297 84.35277819 -89.61934112 82.92344601 -88.21183777 81.49395752 C-87.33790878 80.62618179 -86.4639798 79.75840607 -85.56356812 78.86433411 C-84.80348953 78.10140549 -84.04341095 77.33847687 -83.26029968 76.5524292 C-80.79024758 74.57117763 -78.51185461 73.64381687 -75.59725094 72.48480129 C-71.96623056 70.63213023 -69.3330243 67.59323019 -66.52865601 64.6900177 C-65.84316177 63.99707611 -65.15766754 63.30413452 -64.45140076 62.5901947 C-62.97159188 61.09188446 -61.49639449 59.5890084 -60.02537155 58.0820713 C-57.69772627 55.69858139 -55.35725786 53.32838932 -53.01293945 50.96130371 C-47.19711209 45.08411248 -41.40147076 39.18716964 -35.60977173 33.28620911 C-30.70720818 28.29165944 -25.79503768 23.30699419 -20.86830521 18.33627892 C-18.56000493 15.99926551 -16.26680324 13.64808292 -13.97357178 11.29629517 C-12.56171733 9.86947831 -11.14912879 8.44338735 -9.73568726 7.0181427 C-9.10075851 6.3589534 -8.46582977 5.6997641 -7.81166077 5.02059937 C-3.47234269 0.68926142 -3.47234269 0.68926142 0 0 Z " fill="#71E2EF" transform="translate(265.7615661621094,272.4518280029297)"/>
<path d="M0 0 C2.91371813 1.31781109 4.98566461 2.73585604 7.24249935 4.99361038 C8.17466193 5.91887476 8.17466193 5.91887476 9.12565607 6.86283135 C9.79929195 7.5416108 10.47292784 8.22039025 11.16697693 8.91973877 C11.88965557 9.64000299 12.6123342 10.36026721 13.3569122 11.10235763 C15.78366142 13.52345932 18.20318033 15.95166017 20.62280273 18.37988281 C22.35867808 20.11468552 24.09498623 21.84905525 25.83169556 23.58302307 C30.06246438 27.80944129 34.28855658 32.04048458 38.51252132 36.27369913 C43.4332858 41.20485101 48.35927661 46.13076812 53.28548015 51.05648538 C62.07765802 59.84816254 70.86499495 68.64466245 79.6496582 77.44384766 C88.16947695 85.97774322 96.6927789 94.50813957 105.2199707 103.03466797 C105.74479101 103.55944832 106.26961132 104.08422867 106.81033527 104.62491146 C107.33425619 105.14879203 107.85817712 105.67267259 108.39797443 106.21242833 C118.10869306 115.92245634 127.81611463 125.63577463 137.52201329 135.3506204 C140.9519024 138.7835217 144.38276353 142.21544973 147.81393242 145.64707184 C152.43663487 150.27052935 157.0565265 154.89678305 161.67457962 159.52488518 C163.3696412 161.22286544 165.0655466 162.9200038 166.76235771 164.61623573 C169.07924116 166.93262763 171.3930228 169.25207448 173.70603943 171.57232666 C174.37744459 172.24218322 175.04884975 172.91203978 175.74060053 173.60219502 C178.56899901 176.44520776 181.29620247 179.29184048 183.83087254 182.40172958 C185.73427639 185.03380789 185.73427639 185.03380789 188 186 C188 186.66 188 187.32 188 188 C188.66 188 189.32 188 190 188 C191.48562717 189.50507355 191.48562717 189.50507355 193.19667053 191.5645752 C196.58763277 195.54964225 200.14367468 199.27972952 203.85327148 202.96679688 C204.82040825 203.93415268 204.82040825 203.93415268 205.80708313 204.92105103 C207.90938818 207.02266713 210.01519777 209.1207327 212.12109375 211.21875 C213.59104456 212.686833 215.06077272 214.15513897 216.5302887 215.62365723 C220.37655945 219.46613136 224.22582506 223.3055914 228.07574463 227.14440918 C232.0126134 231.07100211 235.94661131 235.00046906 239.88085938 238.9296875 C247.58444922 246.62259043 255.29120935 254.31230887 263 262 C260.73608046 265.56988986 258.66543544 268.59093561 255.37573242 271.25537109 C250.30061534 275.53532574 245.66660777 280.20840884 240.98828125 284.9140625 C240.05702927 285.84672943 239.12577728 286.77939636 238.16630554 287.74032593 C235.71162325 290.19878949 233.25995694 292.66023852 230.80895996 295.12237549 C228.31912577 297.62246636 225.82644083 300.11971135 223.33398438 302.6171875 C218.90479624 307.05598166 214.47747534 311.49662793 210.05410767 315.94122314 C208.38002309 317.61911308 206.69804627 319.28830436 205.01245117 320.95458984 C202.94091376 322.97476372 202.94091376 322.97476372 201.1875 325.375 C198.67254659 328.3929441 195.8570166 330.76901525 192.875 333.3125 C190.86602082 335.028658 190.86602082 335.028658 189 337.5 C187.23635917 339.70455104 185.58510787 341.28050872 183.44604492 343.09130859 C178.7028926 347.19937635 174.28425234 351.58942938 169.86328125 356.0390625 C169.02081345 356.88294525 168.17834564 357.726828 167.31034851 358.59628296 C164.64202097 361.27016272 161.97720268 363.94750829 159.3125 366.625 C157.51260279 368.42991988 155.71247468 370.23460954 153.91210938 372.0390625 C150.61356003 375.34574658 147.31631558 378.65371917 144.02075195 381.96337891 C136.20673536 389.80999903 136.20673536 389.80999903 132.46484375 393.5 C131.63082031 394.325 130.79679688 395.15 129.9375 396 C128.68259766 397.2375 128.68259766 397.2375 127.40234375 398.5 C124.94319132 400.97145779 124.94319132 400.97145779 122.81640625 403.8125 C122.21699219 404.534375 121.61757812 405.25625 121 406 C120.34 406 119.68 406 119 406 C119 406.66 119 407.32 119 408 C118.34 408 117.68 408 117 408 C117 408.66 117 409.32 117 410 C115.4609375 411.55078125 115.4609375 411.55078125 113.375 413.3125 C112.65054688 413.93125 111.92609375 414.55 111.1796875 415.1875 C109.83931571 416.30207439 108.49182946 417.40823742 107.1328125 418.5 C105.72578512 419.63100765 104.35858424 420.81123879 103 422 C103 422.66 103 423.32 103 424 C101.6796875 425.26171875 101.6796875 425.26171875 99.875 426.6875 C97.28788209 428.82174214 95.06872451 430.97337315 92.9375 433.5625 C90.22760509 436.84176113 87.30677591 439.3264365 84 442 C82.31288577 443.6459651 80.6454378 445.31237149 79 447 C75.91649403 450.09505468 72.81700811 453.17365069 69.71484375 456.25 C68.12233542 457.83327257 66.52988907 459.41660748 64.9375 461 C63.73383789 462.19109375 63.73383789 462.19109375 62.50585938 463.40625 C58.7650636 467.1315238 55.25129023 470.83285337 52 475 C50.84520438 476.07780925 49.65969934 477.12427303 48.4375 478.125 C46.66054907 479.58930255 44.99423063 481.0060954 43.41015625 482.6796875 C42 484 42 484 40 484 C39.6596875 484.8353125 39.6596875 484.8353125 39.3125 485.6875 C37.65016521 488.61637557 35.38622939 490.66428025 33 493 C31.50903599 494.48820137 30.01960138 495.97793573 28.53125 497.46875 C25.17708333 500.82291667 21.82291667 504.17708333 18.46875 507.53125 C17.68806152 508.31282471 16.90737305 509.09439941 16.10302734 509.8996582 C14.86744867 511.13365905 13.62931956 512.365132 12.38525391 513.59057617 C10.21530651 515.7295013 8.21818642 517.88626482 6.375 520.3125 C5.59125 521.199375 4.8075 522.08625 4 523 C3.01 523 2.02 523 1 523 C0.23559285 491.40900137 -0.14665496 459.83927364 -0.11606562 428.23940742 C-0.11163366 422.45766524 -0.1132163 416.67592371 -0.1139679 410.8941803 C-0.11448529 400.94157067 -0.11142209 390.98896773 -0.10573006 381.03635979 C-0.09750642 366.64761471 -0.09498889 352.25887277 -0.09374207 337.8701256 C-0.091657 314.50968805 -0.08496324 291.14925396 -0.07543945 267.78881836 C-0.066214 245.13354511 -0.05915067 222.47827281 -0.05493164 199.82299805 C-0.05473435 198.77039147 -0.05473435 198.77039147 -0.05453308 197.69652011 C-0.05321424 190.64760992 -0.05193848 183.59869972 -0.05069422 176.54978952 C-0.04815988 162.19795228 -0.04533863 147.8461151 -0.04234314 133.49427795 C-0.04206841 132.17698863 -0.04179369 130.85969931 -0.04151063 129.50249214 C-0.03238226 86.33499337 -0.01665196 43.16749644 0 0 Z " fill="#1CC0BD" transform="translate(0,7)"/>
<path d="M0 0 C108.57 0 217.14 0 329 0 C325.30105755 4.31543285 321.73041245 8.42656291 317.75 12.4375 C316.89921875 13.30246094 316.0484375 14.16742188 315.171875 15.05859375 C313 17 313 17 311 17 C310.67 17.99 310.34 18.98 310 20 C307.64135562 22.55519808 305.2490184 24.80701074 302.5 26.9375 C299.57679375 29.34914516 297.39404964 32.0672892 295 35 C291.01946249 39.2079968 286.67339867 43.00013897 282.36328125 46.86328125 C278.81872095 50.06803246 275.55960086 53.32847897 272.5 57 C269.31012133 60.8278544 266.00930361 64.18816883 262.125 67.3125 C258.9224848 69.92226174 256.33597799 72.94980533 253.65625 76.08203125 C250.69919161 79.50636066 247.57952433 82.53144842 244.0625 85.375 C241.15304749 87.74732282 238.8283529 90.43143811 236.4296875 93.30859375 C233.39995979 96.89294375 230.02889202 99.99698497 226.4375 103 C223.55772117 105.43195146 221.30342609 108.00554608 219 111 C217.3545622 112.68762851 215.68711423 114.3540349 214 116 C213.278125 116.7425 212.55625 117.485 211.8125 118.25 C209.44863491 120.56133476 207.03815571 122.74905271 204.5625 124.9375 C198.30610411 130.52692275 192.43086047 136.4855862 186.53417969 142.44970703 C184.36480903 144.6418623 182.18245532 146.82087667 180 149 C178.77856036 150.22126869 177.557214 151.44263068 176.3359375 152.6640625 C171.55729167 157.44270833 166.77864583 162.22135417 162 167 C161.79396149 166.30533127 161.58792297 165.61066254 161.37564087 164.89494324 C159.58214179 161.12064565 156.93969687 158.56025192 153.98974609 155.6809082 C153.3749791 155.06891571 152.7602121 154.45692322 152.1268158 153.8263855 C150.09909827 151.81092568 148.06119202 149.80608785 146.0234375 147.80078125 C144.61302442 146.40104471 143.20341805 145.00049489 141.79458618 143.59916687 C138.08871279 139.91606347 134.37479442 136.24119407 130.65826416 132.56884766 C124.70067354 126.68148873 118.75064008 120.78657672 112.80958939 114.88252831 C110.72876173 112.81846191 108.64165069 110.76089906 106.55404663 108.70368958 C105.2862598 107.44635745 104.01871887 106.18877733 102.75146484 104.9309082 C102.16551041 104.35685745 101.57955597 103.7828067 100.97584534 103.19136047 C99.61212061 101.83173869 98.3001211 100.42056385 97 99 C97 98.34 97 97.68 97 97 C96.4225 96.773125 95.845 96.54625 95.25 96.3125 C92.41027692 94.65599487 91.04775464 92.57432012 89 90 C87.91395515 89.04156542 86.8080032 88.10541222 85.6875 87.1875 C83.11378344 85.05307446 80.90833001 82.83813645 78.74949646 80.28684998 C75.11327786 76.07883016 71.26675801 72.13894914 67.32055664 68.22290039 C66.58801666 67.49182068 65.85547668 66.76074097 65.10073853 66.00750732 C63.52501071 64.43555836 61.9481297 62.86476466 60.37019539 61.29503059 C57.87626991 58.81394436 55.38554841 56.32968098 52.89561462 53.84458923 C47.62071894 48.58107145 42.34188278 43.32151664 37.0625 38.0625 C30.91956212 31.94313973 24.77823737 25.82217847 18.64108086 19.69701958 C16.18120608 17.24365041 13.71835272 14.79329775 11.25538635 12.34303284 C9.76133863 10.85261435 8.26742928 9.36205714 6.77368164 7.87133789 C6.08337357 7.18619614 5.39306549 6.50105438 4.68183899 5.79515076 C4.06089355 5.17427582 3.43994812 4.55340088 2.80018616 3.91371155 C2.2562021 3.3719481 1.71221804 2.83018465 1.15174961 2.27200413 C0 1 0 1 0 0 Z " fill="#71DFD8" transform="translate(205,0)"/>
<path d="M0 0 C5.43255655 1.48515144 8.59154431 5.19732868 12.41723633 9.0925293 C13.14638748 9.82284866 13.87553864 10.55316803 14.62678528 11.30561829 C17.03557187 13.7215916 19.43366236 16.14790711 21.83203125 18.57421875 C23.50892891 20.25925635 25.18656754 21.94355687 26.86491394 23.62715149 C31.28566861 28.06503256 35.69778956 32.51139469 40.10772705 36.96002197 C47.15312921 44.0645664 54.21110454 51.15661309 61.26984215 58.24790382 C63.72750907 60.7194591 66.18127373 63.19483599 68.63447571 65.67082214 C70.15442205 67.20080199 71.6744525 68.73069828 73.19458008 70.26049805 C73.86861877 70.94284515 74.54265747 71.62519226 75.23712158 72.32821655 C79.17333469 76.28254773 83.22624651 79.98553185 87.52440929 83.54552937 C88.01135423 84.02550467 88.49829916 84.50547998 89 85 C89 85.66 89 86.32 89 87 C89.639375 87.268125 90.27875 87.53625 90.9375 87.8125 C93 89 93 89 94 92 C94.99 92.33 95.98 92.66 97 93 C97 93.66 97 94.32 97 95 C97.598125 95.268125 98.19625 95.53625 98.8125 95.8125 C100.99847854 96.99917406 102.41332594 98.09599113 104 100 C104 100.66 104 101.32 104 102 C104.61875 102.2475 105.2375 102.495 105.875 102.75 C108.40358627 104.23740369 108.71839004 105.43678009 110 108 C110.5679126 108.26256592 111.1358252 108.52513184 111.72094727 108.7956543 C114.81986579 110.43325098 117.03776022 112.79117535 119.46484375 115.26953125 C120.23762413 116.04655647 120.23762413 116.04655647 121.02601624 116.83927917 C122.6679495 118.49236715 124.30280019 120.15226177 125.9375 121.8125 C127.03273809 122.91777871 128.12843671 124.02260128 129.22460938 125.12695312 C131.2501893 127.16881385 133.27298942 129.21334469 135.29272461 131.26098633 C139.19778569 135.21182773 143.13139293 139.13339545 147.07319641 143.04754639 C149.11858829 145.07949466 151.16125642 147.11417249 153.20385742 149.14892578 C154.28436387 150.22434865 155.36575775 151.29888058 156.44799805 152.37255859 C158.01583433 153.92834732 159.58049029 155.48727209 161.14453125 157.046875 C162.54215698 158.43664551 162.54215698 158.43664551 163.96801758 159.85449219 C166 162 166 162 166 163 C44.89 163 -76.22 163 -201 163 C-201 162.67 -201 162.34 -201 162 C-199.38158203 162.00169189 -199.38158203 162.00169189 -197.73046875 162.00341797 C-193.69690405 161.99972485 -189.66452088 161.9567338 -185.63134766 161.90234375 C-183.89151663 161.88426423 -182.15154296 161.87660056 -180.41162109 161.87988281 C-177.89830908 161.8827634 -175.38790624 161.84721293 -172.875 161.8046875 C-171.72294067 161.8183284 -171.72294067 161.8183284 -170.54760742 161.83224487 C-160.17482695 161.55802162 -153.78872765 153.05800237 -146.9765625 146.1015625 C-146.14917572 145.26660248 -145.32178894 144.43164246 -144.46932983 143.57138062 C-141.8496246 140.92740595 -139.23654848 138.27703013 -136.625 135.625 C-133.16452193 132.11152646 -129.69760386 128.60459698 -126.2265625 125.1015625 C-125.43077789 124.28918121 -124.63499329 123.47679993 -123.81509399 122.63980103 C-122.71287003 121.52766739 -122.71287003 121.52766739 -121.58837891 120.39306641 C-120.94188385 119.73609772 -120.29538879 119.07912903 -119.62930298 118.4022522 C-118 117 -118 117 -116 117 C-115.73419128 116.40901299 -115.46838257 115.81802599 -115.19451904 115.20913029 C-113.96780665 112.94046198 -112.71048452 111.46640273 -110.88769531 109.65391541 C-110.2483606 109.01327652 -109.60902588 108.37263763 -108.95031738 107.71258545 C-108.2499939 107.02102356 -107.54967041 106.32946167 -106.828125 105.61694336 C-106.08977417 104.87990677 -105.35142334 104.14287018 -104.59069824 103.38349915 C-102.14836045 100.9476539 -99.69913071 98.51885724 -97.25 96.08984375 C-95.55320389 94.39931757 -93.8569216 92.70827553 -92.16113281 91.01673889 C-87.69448749 86.56340279 -83.2223125 82.11566468 -78.74853516 77.66949463 C-71.58605908 70.55012193 -64.43027152 63.42404213 -57.27770996 56.29471016 C-54.77507116 53.80231232 -52.26905614 51.31334599 -49.76269531 48.82469177 C-48.23230718 47.30113042 -46.70202781 45.7774598 -45.171875 44.25366211 C-44.47155151 43.56007599 -43.77122803 42.86648987 -43.04968262 42.15188599 C-42.4103479 41.51406693 -41.77101318 40.87624786 -41.11230469 40.21910095 C-40.55629578 39.66661147 -40.00028687 39.11412199 -39.4274292 38.5448904 C-37.78665037 36.85032155 -37.78665037 36.85032155 -36 34 C-35.34 34 -34.68 34 -34 34 C-34 33.34 -34 32.68 -34 32 C-33.01 31.67 -32.02 31.34 -31 31 C-29.97388051 29.34928604 -28.97691857 27.68029994 -28 26 C-26 23.6875 -26 23.6875 -24 22 C-23.01 22 -22.02 22 -21 22 C-20.8875293 21.40002197 -20.77505859 20.80004395 -20.65917969 20.18188477 C-19.58888875 16.63922177 -16.84176415 14.45212831 -14.25 11.9375 C-13.7240625 11.40833984 -13.198125 10.87917969 -12.65625 10.33398438 C-9.6403747 7.35916678 -6.72828714 5.0705426 -3 3 C-1.24850835 1.41754725 -1.24850835 1.41754725 0 0 Z " fill="#82DEE2" transform="translate(368,377)"/>
<path d="M0 0 C0.69590744 0.69656204 1.39181488 1.39312408 2.10881042 2.11079407 C5.15331218 5.15523745 8.20603652 8.19137427 11.2590332 11.22729492 C17.397671 17.3333605 23.53129963 23.44443204 29.66204548 29.55842113 C33.36720976 33.25309903 37.07424177 36.94586395 40.78540039 40.63452148 C44.38108704 44.20855273 47.97193246 47.78738138 51.55940819 51.3696537 C52.92806963 52.73461139 54.29849404 54.09780361 55.67067909 55.45921898 C57.58107163 57.35519044 59.48521174 59.25722966 61.38793945 61.16088867 C61.95983002 61.72558868 62.53172058 62.2902887 63.12094116 62.87210083 C67 66.7718901 67 66.7718901 67 69 C67.99 69.33 68.98 69.66 70 70 C71.6484375 71.671875 71.6484375 71.671875 73.375 73.75 C76.10136163 77.01167465 78.98372832 80.00382412 82 83 C89.33333333 90.33333333 96.66666667 97.66666667 104 105 C102.61495526 108.11682057 101.01406283 110.23371636 98.60417175 112.63633728 C97.90185928 113.34139908 97.19954681 114.04646088 96.47595215 114.77288818 C95.32032776 115.91772675 95.32032776 115.91772675 94.14135742 117.08569336 C93.32979691 117.89754593 92.51823639 118.7093985 91.68208313 119.54585266 C88.99459116 122.23194999 86.30007871 124.91088857 83.60546875 127.58984375 C81.73656855 129.45501261 79.86811034 131.32062442 78.00007629 133.18666077 C73.57955843 137.60096238 69.15397046 142.0101444 64.72653323 146.41750485 C59.70639828 151.4153592 54.69187039 156.41882281 49.67784345 161.42280376 C41.0998159 169.98345673 32.51761021 178.53990623 23.93063354 187.09158325 C19.51281795 191.49138765 19.51281795 191.49138765 15.102005 195.89820862 C13.78084928 197.21923007 12.45459906 198.53519594 11.12109375 199.84375 C8.46586999 202.45584948 5.99626015 205.00475062 3.6875 207.9375 C3.130625 208.618125 2.57375 209.29875 2 210 C1.34 210 0.68 210 0 210 C0.66 211.32 1.32 212.64 2 214 C1.4225 214.103125 0.845 214.20625 0.25 214.3125 C-2.32049158 215.09792798 -3.93657284 216.30504197 -6 218 C-4.66666667 215.33333333 -3.33333333 212.66666667 -2 210 C-2.64026123 209.35973877 -3.28052246 208.71947754 -3.94018555 208.05981445 C-67.56445313 144.43554687 -67.56445313 144.43554687 -69.92668152 142.07232666 C-71.16190744 140.83769164 -72.39812559 139.6040461 -73.63642883 138.37249756 C-77.00766696 135.01878526 -80.11863924 131.48440133 -83.23046875 127.890625 C-84.86863988 125.92091997 -84.86863988 125.92091997 -87 125 C-87 124.34 -87 123.68 -87 123 C-88.485 122.505 -88.485 122.505 -90 122 C-91.54296875 120.3984375 -91.54296875 120.3984375 -93.1875 118.375 C-96.77482388 114.12846703 -100.73176717 110.54762209 -105 107 C-103.54350941 103.51675266 -101.69615118 101.65221544 -98.8125 99.25 C-95.92894298 96.84619415 -93.40838429 94.36058927 -90.9855957 91.50585938 C-86.43900343 86.27659681 -81.55170921 81.40825296 -76.6484375 76.515625 C-75.66136368 75.5278757 -74.67443818 74.53997816 -73.68765259 73.55194092 C-71.6335554 71.49638028 -69.57768821 69.44261157 -67.52050781 67.39013672 C-64.89347009 64.76881816 -62.27097905 62.14300384 -59.649786 59.51584244 C-57.61835718 57.48079057 -55.58454099 55.44813804 -53.55000687 53.4161911 C-52.58209631 52.44894382 -51.61491747 51.48096371 -50.64850998 50.51221466 C-49.29723659 49.15838345 -47.94238547 47.80812612 -46.58740234 46.45800781 C-45.82019867 45.69159973 -45.052995 44.92519165 -44.26254272 44.13555908 C-41.93984737 41.94322339 -39.507096 39.97661109 -37 38 C-33.98513526 35.14381235 -31.22038671 32.13256651 -28.5 29 C-24.79485924 24.73589404 -20.9767379 20.79460719 -16.625 17.1875 C-13.25487457 14.35219882 -10.48253671 11.18209287 -7.640625 7.828125 C-5.63568213 5.5940458 -3.37989303 3.8199182 -1 2 C-0.67 1.34 -0.34 0.68 0 0 Z " fill="#A4F7ED" transform="translate(369,164)"/>
<path d="M0 0 C1.32 0.66 2.64 1.32 4 2 C3.40482039 2.10720399 2.80964079 2.21440798 2.19642544 2.32486057 C-0.2989973 3.09190609 -1.32180243 3.95759692 -3.14280701 5.80223083 C-3.7384848 6.39812012 -4.3341626 6.9940094 -4.94789124 7.60795593 C-5.58955734 8.265121 -6.23122345 8.92228607 -6.89233398 9.59936523 C-7.91991821 10.63352066 -7.91991821 10.63352066 -8.96826172 11.68856812 C-10.45518304 13.18690785 -11.93862825 14.68870332 -13.41900444 16.19351006 C-15.7618082 18.57456477 -18.11382301 20.94615609 -20.46852112 23.31544495 C-26.31535231 29.20241898 -32.14584274 35.10549411 -37.97692871 41.00805664 C-42.90329581 45.99358292 -47.83572865 50.97295432 -52.77644539 55.94426155 C-55.09418445 58.28145854 -57.40270623 60.62750678 -59.71104431 62.97398376 C-61.13300743 64.40684528 -62.55539389 65.83928683 -63.97827148 67.27124023 C-64.61791336 67.92638107 -65.25755524 68.58152191 -65.9165802 69.2565155 C-69.07355477 72.41460563 -71.58181486 74.75790774 -76 76 C-74.53033642 72.60140297 -72.61962486 70.35036291 -70 67.75 C-69.29875 67.04359375 -68.5975 66.3371875 -67.875 65.609375 C-66 64 -66 64 -64 64 C-63.7525 63.4225 -63.505 62.845 -63.25 62.25 C-61.81700012 59.67060021 -60.21575324 57.93878408 -58 56 C-57.34 56 -56.68 56 -56 56 C-55.75733398 55.43267151 -55.51466797 54.86534302 -55.26464844 54.28082275 C-53.75660785 51.56103662 -51.96323905 49.70898435 -49.765625 47.50683594 C-48.89131836 46.62622498 -48.01701172 45.74561401 -47.11621094 44.83831787 C-46.16106205 43.8867478 -45.20565216 42.93543964 -44.25 41.984375 C-43.27086602 41.00389341 -42.29202907 40.02311513 -41.31347656 39.04205322 C-39.26560571 36.99123841 -37.21417216 34.94407365 -35.16015625 32.89941406 C-32.52359985 30.27428192 -29.89616355 27.64023305 -27.27130127 25.00341415 C-25.25380379 22.9787041 -23.23158501 20.95876392 -21.20788574 18.94025421 C-20.23674562 17.97045069 -19.26709572 16.99915258 -18.2989502 16.02635956 C-16.94892166 14.67127264 -15.59182027 13.32324314 -14.234375 11.97558594 C-13.46319336 11.20599548 -12.69201172 10.43640503 -11.89746094 9.64349365 C-10 8 -10 8 -8 8 C-7.773125 7.401875 -7.54625 6.80375 -7.3125 6.1875 C-5.65731747 3.42886244 -3.79815679 2.50669981 -1 1 C-0.67 0.67 -0.34 0.34 0 0 Z " fill="#54E0DB" transform="translate(263,271)"/>
<path d="M0 0 C0.99 0.33 1.98 0.66 3 1 C3 1.66 3 2.32 3 3 C2.34 3 1.68 3 1 3 C1 90.45 1 177.9 1 268 C0.67 268 0.34 268 0 268 C0 179.56 0 91.12 0 0 Z " fill="#0DAA9D" transform="translate(0,7)"/>
<path d="M0 0 C0.33 0 0.66 0 1 0 C1 16.17 1 32.34 1 49 C1.99 49.33 2.98 49.66 4 50 C3.34 50.66 2.68 51.32 2 52 C1.67 53.98 1.34 55.96 1 58 C50.83 58 100.66 58 152 58 C152 58.33 152 58.66 152 59 C101.84 59 51.68 59 0 59 C0 39.53 0 20.06 0 0 Z " fill="#6FCEED" transform="translate(0,481)"/>
<path d="M0 0 C0.495 1.485 0.495 1.485 1 3 C-0.28965176 4.37562854 -1.62689293 5.70766393 -3 7 C-3.66 7 -4.32 7 -5 7 C-5.309375 7.79664063 -5.309375 7.79664063 -5.625 8.609375 C-7.57961192 12.00773436 -10.22123717 14.51055928 -13 17.25 C-13.5465625 17.80429688 -14.093125 18.35859375 -14.65625 18.9296875 C-18.7466133 23 -18.7466133 23 -21 23 C-21.26039063 23.58652344 -21.52078125 24.17304688 -21.7890625 24.77734375 C-24.49467807 29.7434575 -29.36051224 33.84514833 -34 37 C-34.66 36.67 -35.32 36.34 -36 36 C-24.12 24.12 -12.24 12.24 0 0 Z " fill="#97F3E6" transform="translate(327,206)"/>
<path d="M0 0 C0.66 0.33 1.32 0.66 2 1 C1.32795532 1.66418945 1.32795532 1.66418945 0.64233398 2.34179688 C-1.42870096 4.39176683 -3.49560697 6.44585433 -5.5625 8.5 C-6.26697266 9.19609375 -6.97144531 9.8921875 -7.69726562 10.609375 C-13.36774686 16.25372499 -18.65168668 22.14979701 -23.75 28.3125 C-27.62463487 32.94053609 -31.47857539 36.43648143 -37 39 C-35.71480435 36.13302508 -34.42870746 34.02392288 -32 32 C-31.34 32 -30.68 32 -30 32 C-29.67 31.01 -29.34 30.02 -29 29 C-28.34 29 -27.68 29 -27 29 C-26.731875 28.360625 -26.46375 27.72125 -26.1875 27.0625 C-25 25 -25 25 -22 24 C-21.67 23.01 -21.34 22.02 -21 21 C-20.34 21 -19.68 21 -19 21 C-18.75072754 20.42475586 -18.50145508 19.84951172 -18.24462891 19.25683594 C-16.82126077 16.67589928 -15.18451214 14.95787763 -13.0859375 12.890625 C-12.32539062 12.13652344 -11.56484375 11.38242187 -10.78125 10.60546875 C-9.9871875 9.82816406 -9.193125 9.05085938 -8.375 8.25 C-7.17230469 7.06083984 -7.17230469 7.06083984 -5.9453125 5.84765625 C-3.96797154 3.89385507 -1.98611091 1.94487897 0 0 Z " fill="#59D4F4" transform="translate(74,458)"/>
<path d="M0 0 C0.99 0.33 1.98 0.66 3 1 C3 1.66 3 2.32 3 3 C2.34 3 1.68 3 1 3 C1 22.8 1 42.6 1 63 C0.67 63 0.34 63 0 63 C0 42.21 0 21.42 0 0 Z " fill="#0CA589" transform="translate(0,7)"/>
<path d="M0 0 C0.66 0 1.32 0 2 0 C0.37506343 4.15704633 -2.67222824 6.89595505 -5.8125 9.9375 C-6.33392578 10.44990234 -6.85535156 10.96230469 -7.39257812 11.49023438 C-8.42735537 12.50692563 -9.46395055 13.52177025 -10.50244141 14.53466797 C-12.68644969 16.6716777 -14.84315572 18.83562747 -17 21 C-17.66 21.66 -18.32 22.32 -19 23 C-19.99 22.67 -20.98 22.34 -22 22 C-20.85221336 20.85221336 -19.70409645 19.70475579 -18.5546875 18.55859375 C-17.47139432 17.47257873 -16.39367641 16.38098592 -15.3203125 15.28515625 C-12.58163916 12.50388132 -9.85787189 9.82052591 -6.8125 7.375 C-3.92462311 5.09178359 -3.92462311 5.09178359 -1.75 2.1875 C-0.88375 1.1046875 -0.88375 1.1046875 0 0 Z " fill="#9AF4E5" transform="translate(364,169)"/>
<path d="M0 0 C0.33 0 0.66 0 1 0 C1 16.17 1 32.34 1 49 C1.99 49.33 2.98 49.66 4 50 C2.68 50.66 1.36 51.32 0 52 C0 34.84 0 17.68 0 0 Z " fill="#44C2EB" transform="translate(0,481)"/>
<path d="M0 0 C0.66 0.33 1.32 0.66 2 1 C-1.3637229 7.7274458 -7.32859958 13.56899407 -14 17 C-14.99 17.66 -15.98 18.32 -17 19 C-15.71480435 16.13302508 -14.42870746 14.02392288 -12 12 C-11.34 12 -10.68 12 -10 12 C-9.34 10.68 -8.68 9.36 -8 8 C-7.34 8 -6.68 8 -6 8 C-5.67 7.01 -5.34 6.02 -5 5 C-4.34 5 -3.68 5 -3 5 C-2.690625 4.360625 -2.38125 3.72125 -2.0625 3.0625 C-1 1 -1 1 0 0 Z " fill="#5CD7F0" transform="translate(93,439)"/>
<path d="M0 0 C0.33 0.66 0.66 1.32 1 2 C-5.19718477 9.45915695 -12.10416592 16.197493 -19 23 C-19.99 22.67 -20.98 22.34 -22 22 C-21.56429688 21.64808594 -21.12859375 21.29617187 -20.6796875 20.93359375 C-16.83728266 17.7482235 -13.57814274 14.44051354 -10.40625 10.59375 C-8.49949192 8.43275751 -6.25756594 6.7822889 -4 5 C-2.62631655 3.36643049 -1.28062485 1.7074998 0 0 Z " fill="#AEEBEC" transform="translate(498,35)"/>
<path d="M0 0 C0.33 0.66 0.66 1.32 1 2 C-4.34388455 8.33480354 -10.08833812 14.19539034 -16 20 C-16.99 19.67 -17.98 19.34 -19 19 C-12.66666667 12.66666667 -6.33333333 6.33333333 0 0 Z " fill="#99F2E9" transform="translate(290,243)"/>
<path d="M0 0 C0 3 0 3 -1.79296875 5.19140625 C-2.58316406 5.97386719 -3.37335938 6.75632812 -4.1875 7.5625 C-4.96480469 8.34753906 -5.74210938 9.13257813 -6.54296875 9.94140625 C-8.98212714 11.98502544 -10.99742699 13.01336411 -14 14 C-12.5466378 10.65876526 -10.70404484 8.43458035 -8.125 5.875 C-7.44695312 5.19179688 -6.76890625 4.50859375 -6.0703125 3.8046875 C-4.11264331 2.09819096 -2.3692591 1.03057459 0 0 Z " fill="#58DEE0" transform="translate(201,333)"/>
<path d="M0 0 C0.33 0.66 0.66 1.32 1 2 C0.34 1.67 -0.32 1.34 -1 1 C-0.67 0.67 -0.34 0.34 0 0 Z M-5 4 C-4.34 4.33 -3.68 4.66 -3 5 C-6.61328125 9.6875 -6.61328125 9.6875 -8 11 C-8.99 11 -9.98 11 -11 11 C-11 10.34 -11 9.68 -11 9 C-10.34 9 -9.68 9 -9 9 C-9 8.34 -9 7.68 -9 7 C-7 5.375 -7 5.375 -5 4 Z " fill="#66DDED" transform="translate(128,406)"/>
<path d="M0 0 C1.32 0.66 2.64 1.32 4 2 C3.443125 2.0825 2.88625 2.165 2.3125 2.25 C-0.69256318 3.22461509 -2.57254822 5.00824469 -5 7 C-5.99 7.33 -6.98 7.66 -8 8 C-6.54098339 4.15350168 -4.5612873 2.91761624 -1 1 C-0.67 0.67 -0.34 0.34 0 0 Z " fill="#59E2D8" transform="translate(263,271)"/>
<path d="M0 0 C0.33 0 0.66 0 1 0 C1 3.3 1 6.6 1 10 C1.99 10.33 2.98 10.66 4 11 C2.02 11.99 2.02 11.99 0 13 C0 8.71 0 4.42 0 0 Z " fill="#4DC7F6" transform="translate(0,520)"/>
<path d="M0 0 C0.33 0.99 0.66 1.98 1 3 C-0.62339805 4.70884005 -2.29319053 6.37446717 -4 8 C-4.66 8 -5.32 8 -6 8 C-4.55746343 4.63408134 -2.66735273 2.48952921 0 0 Z " fill="#98F0EA" transform="translate(270,263)"/>
</svg>
